<svg width="106" height="409" viewBox="0 0 106 409" fill="none" xmlns="http://www.w3.org/2000/svg">
<path d="M0.127222 209.458V199.276C18.4757 199.17 30.8848 195.882 37.3545 189.412C43.9303 182.836 47.2181 170.427 47.2181 152.185V68.8213C47.2181 57.2607 48.3848 47.2379 50.7181 38.7531C53.0515 30.1622 56.6045 23.0561 61.3772 17.4349C66.15 11.8137 72.1424 7.62431 79.3545 4.86674C86.6727 2.10915 95.2636 0.730358 105.127 0.730358V10.9122C94.0969 10.8061 85.0287 12.7682 77.9227 16.7985C70.9227 20.8289 65.7257 27.1395 62.3318 35.7304C59.0439 44.2152 57.4 55.2455 57.4 68.8213V152.185C57.4 162.685 56.3924 171.594 54.3772 178.912C52.3621 186.124 49.1272 192.011 44.6727 196.571C40.2181 201.026 34.3318 204.314 27.0136 206.435C19.6954 208.45 10.7333 209.458 0.127222 209.458ZM105.127 408.003C95.2636 408.003 86.6727 406.624 79.3545 403.867C72.1424 401.109 66.15 396.92 61.3772 391.299C56.6045 385.677 53.0515 378.571 50.7181 369.98C48.3848 361.496 47.2181 351.473 47.2181 339.912V256.549C47.2181 238.306 43.9303 225.95 37.3545 219.48C30.8848 212.905 18.4757 209.564 0.127222 209.458V199.276C10.7333 199.382 19.6954 200.496 27.0136 202.617C34.3318 204.632 40.2181 207.867 44.6727 212.321C49.1272 216.776 52.3621 222.662 54.3772 229.98C56.3924 237.192 57.4 246.049 57.4 256.549V339.912C57.4 353.488 59.0439 364.518 62.3318 373.003C65.7257 381.594 70.9227 387.852 77.9227 391.776C85.0287 395.806 94.0969 397.821 105.127 397.821V408.003ZM0.127222 209.458V199.276H34.4909V209.458H0.127222Z" fill="#9EA5A9"/>
</svg>
