<svg width="106" height="409" viewBox="0 0 106 409" fill="none" xmlns="http://www.w3.org/2000/svg">
<path d="M105.425 199.276V209.458C87.0763 209.564 74.6142 212.905 68.0384 219.48C61.5687 225.95 58.3339 238.306 58.3339 256.549V339.912C58.3339 351.473 57.1672 361.496 54.8339 369.98C52.5006 378.571 48.9475 385.677 44.1748 391.299C39.4021 396.92 33.3566 401.109 26.0384 403.867C18.8263 406.624 10.2884 408.003 0.424805 408.003V397.821C11.5612 397.821 20.6294 395.806 27.6294 391.776C34.6294 387.852 39.7733 381.594 43.0612 373.003C46.4551 364.518 48.1521 353.488 48.1521 339.912V256.549C48.1521 246.049 49.1597 237.192 51.1748 229.98C53.19 222.662 56.4248 216.776 60.8794 212.321C65.3339 207.761 71.2203 204.473 78.5384 202.458C85.8566 200.336 94.8187 199.276 105.425 199.276ZM0.424805 0.730358C10.2884 0.730358 18.8263 2.10915 26.0384 4.86674C33.3566 7.62431 39.4021 11.8137 44.1748 17.4349C48.9475 23.0561 52.5006 30.1622 54.8339 38.7531C57.1672 47.2379 58.3339 57.2607 58.3339 68.8213V152.185C58.3339 170.427 61.5687 182.836 68.0384 189.412C74.6142 195.882 87.0763 199.17 105.425 199.276V209.458C94.8187 209.352 85.8566 208.291 78.5384 206.276C71.2203 204.155 65.3339 200.867 60.8794 196.412C56.4248 191.958 53.19 186.124 51.1748 178.912C49.1597 171.594 48.1521 162.685 48.1521 152.185V68.8213C48.1521 55.2455 46.4551 44.2152 43.0612 35.7304C39.7733 27.1395 34.6294 20.8289 27.6294 16.7985C20.6294 12.7682 11.5612 10.8061 0.424805 10.9122V0.730358ZM105.425 199.276V209.458H71.0612V199.276H105.425Z" fill="#9EA5A9"/>
</svg>
