<svg width="272" height="92" viewBox="0 0 272 92" fill="none" xmlns="http://www.w3.org/2000/svg">
<path d="M170.506 27.4406C167.408 27.3556 166.245 29.3819 165.686 31.967L164.597 37.4408C164.387 38.26 163.913 38.5175 163.182 38.7323H158.275C155.046 38.5149 153.28 40.5432 153.195 43.0012C153.15 45.0274 154.874 47.0082 157.024 47.0536H161.597C162.156 47.1429 162.458 47.4405 162.5 48.0876L161.64 52.6567C160.692 55.5021 161.941 58.5196 165.213 58.6045C169.045 58.7263 169.59 55.8863 170.03 53.5849L170.119 53.1312L171.11 48.2105C171.302 47.8188 171.608 47.5057 171.977 47.3037C172.262 47.1477 172.583 47.0579 172.919 47.0488H177.696C181.184 47.3486 182.992 45.2802 183.12 43.1241C183.207 41.0888 182.087 38.8152 178.901 38.7275H174.254C173.779 38.6874 173.175 38.5149 173.263 37.7828L174.338 32.4421C174.987 29.8986 173.175 27.5705 170.506 27.4406Z" fill="white" fill-opacity="0.6"/>
<path d="M95.9021 34.7135C90.082 25.6249 97.4506 16.789 108.946 17.0038L120.655 17.0086C121.087 16.9659 121.259 17.1812 121.216 17.5708L120.139 23.5469C120.053 24.0214 119.707 24.2367 119.236 24.2367L106.751 24.3238C104.426 24.5012 102.66 25.5351 102.66 28.3378C103.005 30.9352 104.438 31.6224 106.235 31.998H115.875C116.521 32.0429 116.693 32.3876 116.606 32.9048L115.663 38.6378C115.618 39.1977 115.274 39.4569 114.628 39.4125H103.695C99.8989 39.4569 98.142 42.5598 98.0116 44.9729C97.8823 47.4309 99.3015 49.8867 101.929 50.1042H114.465C116.877 50.0593 118.814 48.9826 119.33 47.4309L122.301 37.731C126.262 24.8079 150.757 25.1526 148.519 41.2731L145.333 57.0934C145.245 57.7827 144.817 58.0002 144.256 58.0002H137.669C137.152 57.9601 136.808 57.6154 136.98 57.0555L140.234 41.9245C140.879 38.7254 139.976 36.7959 137.091 36.3641H134.552C132.184 36.494 130.417 38.4774 129.729 40.416C128.75 44.3381 127.843 47.658 126.899 49.9861C124.358 57.141 118.41 57.8751 116.523 57.9174L101.455 57.9601C94.5245 57.9601 89.1426 52.6167 88.8861 46.4937C88.7141 42.5716 90.6078 37.9153 95.9021 34.7135Z" fill="white" fill-opacity="0.6"/>
<path fill-rule="evenodd" clip-rule="evenodd" d="M176.498 66.3578H172.748V74.8143H174.806V71.9914H176.501C176.897 71.9957 177.291 71.9428 177.672 71.8332C178.004 71.7381 178.313 71.5666 178.575 71.3315C178.834 71.0841 179.033 70.772 179.153 70.4231C179.294 69.9924 179.361 69.5388 179.351 69.083C179.364 68.6469 179.284 68.2136 179.117 67.8155C179.036 67.6322 178.933 67.4618 178.812 67.3079C178.713 67.1828 178.603 67.0685 178.481 66.9675C178.209 66.749 177.898 66.5903 177.568 66.5005C177.218 66.4043 176.859 66.3562 176.498 66.3578ZM176.201 70.2847H174.806L174.815 68.1195H176.201C176.483 68.1078 176.762 68.196 176.993 68.3702C177.096 68.4679 177.178 68.5871 177.232 68.7185C177.297 68.8772 177.324 69.0536 177.307 69.231C177.338 69.542 177.221 69.8487 176.998 70.0491C176.762 70.2152 176.483 70.2981 176.201 70.2847Z" fill="white" fill-opacity="0.6"/>
<path d="M158.641 74.0764C159.192 73.4608 159.466 72.5407 159.466 71.316L159.462 66.3578H157.402V71.4544C157.43 71.8904 157.321 72.3243 157.092 72.686C156.885 72.9623 156.527 73.1012 156.018 73.1028C155.509 73.1044 155.151 72.9655 154.945 72.686C154.713 72.3254 154.603 71.8909 154.633 71.4544V66.3578H152.579V71.316C152.579 72.5444 152.854 73.464 153.404 74.0764C153.954 74.6887 154.827 74.9949 156.023 74.9949C157.219 74.9981 158.091 74.692 158.641 74.0764Z" fill="white" fill-opacity="0.6"/>
<path fill-rule="evenodd" clip-rule="evenodd" d="M132.063 68.8569C131.887 69.4121 131.799 69.9946 131.803 70.5813L131.813 70.5834C131.808 71.1733 131.895 71.7595 132.073 72.3173C132.237 72.8319 132.495 73.3069 132.83 73.7152C132.951 73.8584 133.081 73.9909 133.219 74.1122C133.472 74.3339 133.753 74.5172 134.054 74.6562C135.116 75.1146 136.304 75.1146 137.367 74.6562C137.833 74.4408 138.25 74.1202 138.587 73.7152C138.925 73.3075 139.184 72.8324 139.347 72.3173C139.565 71.6157 139.647 70.8789 139.591 70.1511C139.558 69.7167 139.477 69.2855 139.347 68.8671C139.184 68.3493 138.926 67.8716 138.587 67.4618C138.249 67.0573 137.832 66.7351 137.367 66.5181C136.304 66.0602 135.116 66.0602 134.054 66.5181C133.817 66.6293 133.591 66.7671 133.383 66.9296C133.182 67.0851 132.997 67.2635 132.83 67.4618C132.492 67.8684 132.231 68.3424 132.063 68.8569ZM133.962 71.5067C133.895 71.2038 133.861 70.8928 133.862 70.5813L133.871 70.5834C133.867 70.2719 133.898 69.9609 133.962 69.6574C134.023 69.3704 134.132 69.0974 134.284 68.8521C134.6 68.3456 135.131 68.041 135.701 68.041C136.271 68.041 136.802 68.3456 137.118 68.8521C137.27 69.0974 137.379 69.3704 137.44 69.6574C137.57 70.266 137.57 70.8987 137.44 71.5067C137.378 71.7937 137.269 72.0667 137.118 72.3125C136.802 72.8191 136.271 73.1231 135.701 73.1231C135.498 73.1231 135.299 73.0847 135.114 73.012C134.78 72.8805 134.487 72.6385 134.284 72.3125C134.218 72.2041 134.159 72.0908 134.109 71.9732C134.046 71.8236 133.996 71.667 133.962 71.5067Z" fill="white" fill-opacity="0.6"/>
<path fill-rule="evenodd" clip-rule="evenodd" d="M116.229 66.3578H112.199V74.8116H114.277V71.728H115.838C116.041 71.7167 116.243 71.7691 116.42 71.8781C116.554 71.9812 116.662 72.1191 116.732 72.2799C116.815 72.4541 116.872 72.6428 116.898 72.8367C116.928 73.0424 116.95 73.2508 116.964 73.464C116.971 73.5271 116.98 73.6201 116.987 73.7376C116.994 73.8557 117.005 73.9834 117.02 74.1218C117.034 74.2554 117.056 74.3874 117.086 74.5183C117.094 74.56 117.106 74.6011 117.12 74.6412C117.14 74.7021 117.166 74.7609 117.198 74.817H119.236C119.153 74.7048 119.097 74.5744 119.069 74.4355C119.031 74.2821 119.001 74.1266 118.979 73.9695L118.969 73.8782C118.947 73.6826 118.93 73.4945 118.924 73.3112C118.919 73.2043 118.913 73.1146 118.908 73.0414C118.904 72.9885 118.902 72.9441 118.902 72.9072C118.886 72.6978 118.856 72.4899 118.814 72.2847C118.771 72.0731 118.705 71.8685 118.614 71.6751C118.529 71.487 118.413 71.317 118.272 71.1733C118.185 71.0867 118.088 71.0157 117.982 70.9617C117.908 70.9243 117.831 70.8949 117.751 70.8746V70.8623C118.149 70.7095 118.482 70.4081 118.689 70.0138C118.892 69.6243 118.996 69.185 118.994 68.7394C119.002 68.5027 118.972 68.267 118.909 68.0421C118.871 67.9069 118.821 67.7754 118.759 67.6499C118.605 67.356 118.391 67.1027 118.134 66.9098C117.865 66.7116 117.564 66.5683 117.247 66.4882C116.915 66.4006 116.573 66.3568 116.229 66.3578ZM115.986 70.0314H114.258L114.242 68.1142H115.883C116.143 68.1057 116.4 68.1815 116.62 68.3327C116.828 68.4909 116.943 68.7549 116.924 69.0279C116.948 69.3026 116.863 69.5762 116.689 69.7803C116.496 69.9609 116.242 70.0507 115.986 70.0314Z" fill="white" fill-opacity="0.6"/>
<path d="M97.6654 74.8218H98.9735L98.982 70.1821H95.6605V71.8183H97.1C97.0691 72.024 96.9953 72.2169 96.8863 72.3841C96.7923 72.5273 96.6715 72.6508 96.5304 72.7464C96.1575 72.996 95.7225 73.1183 95.2833 73.098C94.718 73.1205 94.1836 72.8228 93.8769 72.3152C93.7818 72.1613 93.7038 71.9967 93.6439 71.8247C93.6076 71.7221 93.5777 71.6168 93.5552 71.5094C93.4206 70.9013 93.4206 70.2681 93.5552 69.6601C93.6161 69.3731 93.7251 69.1001 93.8769 68.8548C94.1836 68.3461 94.718 68.049 95.2833 68.0715C95.6605 68.0586 96.0324 68.166 96.352 68.3803C96.633 68.5652 96.8158 68.8815 96.8446 69.2337H98.8986C98.8666 68.7474 98.7287 68.2761 98.4947 67.8583C98.2799 67.4826 97.9945 67.1583 97.6579 66.905C97.3202 66.6528 96.943 66.4658 96.5443 66.3525C96.1457 66.236 95.7343 66.1761 95.3207 66.1745C94.765 66.1644 94.2135 66.2782 93.7006 66.5085C93.4526 66.6234 93.2175 66.7671 92.9995 66.936C92.8029 67.0883 92.6212 67.2609 92.4555 67.4516C92.1082 67.8572 91.8389 68.3322 91.6637 68.8495C91.295 69.9657 91.295 71.1835 91.6637 72.2997C91.7705 72.6139 91.9116 72.9126 92.0836 73.1894C92.1948 73.3684 92.3188 73.5383 92.4555 73.6975C92.8039 74.1015 93.2282 74.4221 93.7006 74.6385C94.2125 74.8768 94.765 74.9971 95.3228 74.9923C95.4297 74.9923 95.5366 74.9864 95.6413 74.9746C95.7279 74.965 95.8144 74.9516 95.8999 74.9345C96.103 74.8934 96.3017 74.8298 96.493 74.7438C96.6939 74.654 96.8852 74.5391 97.0626 74.4029C97.2465 74.2613 97.4046 74.0865 97.5318 73.8856L97.6654 74.8218Z" fill="white" fill-opacity="0.6"/>
</svg>
