<svg width="95" height="144" viewBox="0 0 95 144" fill="none" xmlns="http://www.w3.org/2000/svg">
<path d="M82.6959 59.209C82.1459 49.974 78.707 43.4182 73.5683 40.3909L73.5693 40.3872L70.2685 38.4815C69.6413 38.1212 60.7287 33.0903 52.5765 33.3909C47.7926 33.5674 42.9822 35.9816 38.9739 38.7658C32.4858 43.2727 27.2952 49.3938 23.7146 56.4356C19.0889 65.5324 16.2458 75.8982 16.2458 85.5086C16.2458 93.1651 18.0559 99.2088 21.1285 103.253L32.657 120.342C34.816 123.543 37.6744 126.21 41.016 128.143L49.4338 133.012C49.7146 133.218 50.0087 133.388 50.315 133.522L50.325 133.528L50.3254 133.526C54.4608 135.319 60.7221 130.651 63.7794 122.587L77.8943 85.361C81.3406 76.8456 83.1986 67.6493 82.6959 59.209Z" fill="url(#paint0_linear_821_4724)"/>
<path d="M82.6959 59.209C82.1459 49.974 78.707 43.4182 73.5683 40.3909L73.5693 40.3872L70.2685 38.4815C69.6413 38.1212 60.7287 33.0903 52.5765 33.3909C47.7926 33.5674 42.9822 35.9816 38.9739 38.7658C32.4858 43.2727 27.2952 49.3938 23.7146 56.4356C19.0889 65.5324 16.2458 75.8982 16.2458 85.5086C16.2458 93.1651 18.0559 99.2088 21.1285 103.253L32.657 120.342C34.816 123.543 37.6744 126.21 41.016 128.143L49.4338 133.012C49.7146 133.218 50.0087 133.388 50.315 133.522L50.325 133.528L50.3254 133.526C54.4608 135.319 60.7221 130.651 63.7794 122.587L77.8943 85.361C81.3406 76.8456 83.1986 67.6493 82.6959 59.209Z" fill="url(#paint1_linear_821_4724)"/>
<path d="M77.8945 85.3611C81.3406 76.8458 83.1988 67.6493 82.6959 59.209C81.6825 42.193 70.8749 34.2448 57.6607 40.7812C42.0699 48.4932 29.1235 72.4458 29.1235 92.9553C29.1235 100.612 30.9338 106.656 34.0062 110.7L48.1211 131.628C51.7962 137.077 60.1042 132.28 63.7792 122.588L77.8945 85.3611Z" fill="url(#paint2_linear_821_4724)"/>
<path d="M73.1134 67.5725C73.1134 80.2112 65.4291 94.8936 55.95 100.366C46.471 105.839 38.7866 100.03 38.7866 87.3911C38.7866 74.7524 46.471 60.07 55.95 54.5973C65.4291 49.1245 73.1134 54.9336 73.1134 67.5725Z" fill="url(#paint3_linear_821_4724)"/>
<path d="M84.5372 33.2999L80.0485 13.1743C79.6824 11.5328 77.8967 10.6461 76.3677 11.3466L73.12 12.8344C72.4257 13.1524 69.0024 14.818 66.099 14.1664C63.1957 13.5149 60.8123 10.5462 60.3205 9.96199L58.02 7.22912C56.937 5.94248 54.9436 5.98113 53.9112 7.30867L41.2529 23.5861L84.5373 33.2998L84.5372 33.2999Z" fill="url(#paint4_linear_821_4724)"/>
<path d="M84.5372 33.2999L80.0485 13.1743C79.6824 11.5328 77.8967 10.6461 76.3677 11.3466L73.12 12.8344C72.4257 13.1524 69.0024 14.818 66.099 14.1664C63.1957 13.5149 60.8123 10.5462 60.3205 9.96199L58.02 7.22912C56.937 5.94248 54.9436 5.98113 53.9112 7.30867L41.2529 23.5861L84.5373 33.2998L84.5372 33.2999Z" fill="url(#paint5_linear_821_4724)"/>
<path d="M86.0001 36.0893L93.9237 17.1463C94.8916 14.8323 92.7303 12.4356 90.3289 13.1599L81.3318 15.8735C76.765 17.2509 71.9102 14.8654 70.2102 10.4087L69.1445 7.61491C68.6742 6.3817 67.0981 6.02801 66.1458 6.94196L63.9885 9.01246C60.5471 12.3154 55.1385 12.3976 51.5983 9.20086L44.6236 2.90282C42.7619 1.22181 39.7837 2.46513 39.6701 4.97086L38.7391 25.4831L86.0001 36.0893Z" fill="url(#paint6_linear_821_4724)"/>
<path d="M78.0662 16.2377C77.1497 16.1728 76.2552 15.9703 75.4115 15.6419L57.0499 11.5213C56.1468 11.4576 55.2516 11.2585 54.3953 10.9255L39.551 7.59424L38.7391 25.483L86.0002 36.0892L92.9103 19.569L78.0662 16.2377Z" fill="url(#paint7_linear_821_4724)"/>
<path d="M86 36.0891L93.9235 17.1461C94.8914 14.8321 92.7301 12.4354 90.3287 13.1597L81.3316 15.8734C76.7649 17.2508 71.91 14.8653 70.2101 10.4086L69.1443 7.61475C68.9091 6.99814 68.3975 6.60147 67.8257 6.47314L62.3694 30.7862L85.9999 36.0893L86 36.0891Z" fill="url(#paint8_linear_821_4724)"/>
<path d="M64.366 21.8985C67.0519 22.5013 69.7179 20.8125 70.3207 18.1266C70.9234 15.4407 69.2347 12.7747 66.5488 12.172C63.8629 11.5692 61.1969 13.2579 60.5941 15.9438C59.9914 18.6297 61.6801 21.2957 64.366 21.8985Z" fill="url(#paint9_linear_821_4724)"/>
<path d="M64.6479 20.6424C66.64 21.0894 68.6172 19.837 69.0643 17.8449C69.5113 15.8529 68.2588 13.8756 66.2668 13.4286C64.2748 12.9815 62.2975 14.234 61.8505 16.226C61.4034 18.2181 62.6559 20.1953 64.6479 20.6424Z" fill="url(#paint10_linear_821_4724)"/>
<path d="M61.85 16.2256C61.403 18.2177 62.6554 20.1949 64.6475 20.642C66.6395 21.089 68.6168 19.8365 69.0638 17.8445C69.1606 17.4131 69.1775 16.9824 69.1246 16.5677L62.3406 15.0453C62.1157 15.3976 61.9469 15.7941 61.85 16.2256Z" fill="url(#paint11_linear_821_4724)"/>
<path d="M62.3345 19.0131C63.4269 20.7378 65.7107 21.2504 67.4354 20.1579C69.1601 19.0654 69.6726 16.7816 68.5801 15.057C68.3435 14.6834 68.0508 14.367 67.7204 14.1112L61.8468 17.8317C61.9368 18.2398 62.0979 18.6396 62.3345 19.0131Z" fill="url(#paint12_linear_821_4724)"/>
<path d="M45.2499 19.753C47.1491 20.1792 49.0343 18.9851 49.4605 17.0859C49.8867 15.1866 48.6926 13.3015 46.7934 12.8753C44.8941 12.449 43.009 13.6431 42.5828 15.5424C42.1565 17.4416 43.3506 19.3268 45.2499 19.753Z" fill="url(#paint13_linear_821_4724)"/>
<path d="M45.449 18.8648C46.8576 19.1809 48.2558 18.2953 48.5719 16.8867C48.888 15.4781 48.0023 14.0799 46.5937 13.7638C45.1851 13.4477 43.787 14.3333 43.4708 15.7419C43.1547 17.1505 44.0404 18.5487 45.449 18.8648Z" fill="url(#paint14_linear_821_4724)"/>
<path d="M43.4713 15.7418C43.1552 17.1503 44.0409 18.5485 45.4494 18.8647C46.858 19.1808 48.2562 18.2951 48.5723 16.8865C48.6408 16.5814 48.6527 16.277 48.6153 15.9837L43.8182 14.9071C43.6591 15.1563 43.5398 15.4367 43.4713 15.7418Z" fill="url(#paint15_linear_821_4724)"/>
<path d="M43.8134 17.7127C44.5859 18.9322 46.2008 19.2947 47.4203 18.5222C48.6398 17.7497 49.0022 16.1348 48.2298 14.9153C48.0625 14.6512 47.8556 14.4275 47.6218 14.2466L43.4685 16.8774C43.5323 17.166 43.6461 17.4486 43.8134 17.7127Z" fill="url(#paint16_linear_821_4724)"/>
<path d="M82.5656 28.127C84.4648 28.5532 86.3499 27.3591 86.7762 25.4599C87.2024 23.5607 86.0083 21.6755 84.109 21.2493C82.2098 20.8231 80.3246 22.0172 79.8984 23.9164C79.4722 25.8156 80.6663 27.7008 82.5656 28.127Z" fill="url(#paint17_linear_821_4724)"/>
<path d="M82.7646 27.2388C84.1733 27.555 85.5714 26.6693 85.8875 25.2607C86.2037 23.8521 85.318 22.4539 83.9094 22.1378C82.5008 21.8217 81.1026 22.7073 80.7865 24.1159C80.4704 25.5246 81.356 26.9227 82.7646 27.2388Z" fill="url(#paint18_linear_821_4724)"/>
<path d="M80.7872 24.1158C80.4711 25.5244 81.3568 26.9226 82.7654 27.2387C84.1739 27.5548 85.5722 26.6691 85.8883 25.2605C85.9567 24.9555 85.9686 24.651 85.9312 24.3577L81.1342 23.2812C80.975 23.5303 80.8557 23.8107 80.7872 24.1158Z" fill="url(#paint19_linear_821_4724)"/>
<path d="M81.1291 26.0868C81.9016 27.3063 83.5165 27.6687 84.736 26.8962C85.9555 26.1238 86.3179 24.5088 85.5454 23.2893C85.3782 23.0252 85.1713 22.8015 84.9375 22.6206L80.7842 25.2514C80.848 25.54 80.9618 25.8227 81.1291 26.0868Z" fill="url(#paint20_linear_821_4724)"/>
<path d="M67.8837 23.4828C66.2136 21.1199 63.0261 20.4045 60.5064 21.8272C59.4578 22.4193 58.2466 22.6653 57.0519 22.5144C46.6266 21.1983 38.4682 22.6261 37.643 26.303L35.5523 35.6195L84.5512 46.6157L86.642 37.2992C87.4672 33.6222 80.7012 28.8451 70.7132 25.5803C69.5688 25.2061 68.5788 24.4661 67.8837 23.4828Z" fill="url(#paint21_linear_821_4724)"/>
<path d="M67.8837 23.4828C66.2136 21.1199 63.0261 20.4045 60.5064 21.8272C59.4578 22.4193 58.2466 22.6653 57.0519 22.5144C46.6266 21.1983 38.4682 22.6261 37.643 26.303L35.5523 35.6195L84.5512 46.6157L86.642 37.2992C87.4672 33.6222 80.7012 28.8451 70.7132 25.5803C69.5688 25.2061 68.5788 24.4661 67.8837 23.4828Z" fill="url(#paint22_linear_821_4724)"/>
<path d="M85.7518 41.2659L84.5513 46.6151L35.5531 35.6191L36.7536 30.2699C37.7541 25.8115 49.5332 24.6587 63.0643 27.6953C76.5954 30.7319 86.7523 36.8075 85.7518 41.2659Z" fill="url(#paint23_linear_821_4724)"/>
<path d="M85.7518 41.2659L84.5513 46.6151L35.5531 35.6191L36.7536 30.2699C37.7541 25.8115 49.5332 24.6587 63.0643 27.6953C76.5954 30.7319 86.7523 36.8075 85.7518 41.2659Z" fill="url(#paint24_linear_821_4724)"/>
<path d="M84.5512 46.6156L86.642 37.2992C87.4672 33.6221 80.7012 28.8451 70.7132 25.5802C69.5686 25.2061 68.5787 24.4661 67.8837 23.4828C67.0486 22.3013 65.8343 21.5317 64.5137 21.2354L60.0518 41.1176L84.5512 46.6156Z" fill="url(#paint25_linear_821_4724)"/>
<path d="M84.5512 46.6156L86.642 37.2992C87.4672 33.6221 80.7012 28.8451 70.7132 25.5802C69.5686 25.2061 68.5787 24.4661 67.8837 23.4828C67.0486 22.3013 65.8343 21.5317 64.5137 21.2354L60.0518 41.1176L84.5512 46.6156Z" fill="url(#paint26_linear_821_4724)"/>
<path d="M58.2391 49.1899C71.7698 52.2264 83.5496 51.0739 84.5501 46.6157C85.5506 42.1576 75.3929 36.0819 61.8622 33.0454C48.3316 30.0089 36.5517 31.1614 35.5513 35.6196C34.5508 40.0777 44.7085 46.1534 58.2391 49.1899Z" fill="url(#paint27_linear_821_4724)"/>
<path d="M58.2391 49.1899C71.7698 52.2264 83.5496 51.0739 84.5501 46.6157C85.5506 42.1576 75.3929 36.0819 61.8622 33.0454C48.3316 30.0089 36.5517 31.1614 35.5513 35.6196C34.5508 40.0777 44.7085 46.1534 58.2391 49.1899Z" fill="url(#paint28_linear_821_4724)"/>
<path d="M35.5515 35.6196C35.9118 34.0138 37.6711 32.837 40.4066 32.1303L81.6518 41.3864C83.823 43.1943 84.9107 45.01 84.5503 46.6158C83.5498 51.0739 71.77 52.2264 58.2394 49.1899C44.7087 46.1533 34.551 40.0777 35.5515 35.6196Z" fill="url(#paint29_linear_821_4724)"/>
<path d="M58.8655 46.3964C69.1703 48.709 77.994 48.4894 78.5737 45.9059C79.1535 43.3224 71.2698 39.3533 60.9651 37.0408C50.6603 34.7282 41.8366 34.9478 41.2569 37.5313C40.6771 40.1148 48.5607 44.0839 58.8655 46.3964Z" fill="url(#paint30_linear_821_4724)"/>
<path d="M58.8655 46.3964C69.1703 48.709 77.994 48.4894 78.5737 45.9059C79.1535 43.3224 71.2698 39.3533 60.9651 37.0408C50.6603 34.7282 41.8366 34.9478 41.2569 37.5313C40.6771 40.1148 48.5607 44.0839 58.8655 46.3964Z" fill="url(#paint31_linear_821_4724)"/>
<path d="M63.2676 33.375C76.0889 36.5049 85.516 42.3133 84.5505 46.6157C83.5849 50.9181 72.5798 52.1413 59.6506 49.4923L63.2676 33.375Z" fill="url(#paint32_linear_821_4724)"/>
<path d="M85.3649 42.9892L85.4663 42.5375C86.4666 38.0802 76.3097 32.0045 62.7786 28.9679C49.2475 25.9313 37.4684 27.0842 36.4681 31.5415L36.3667 31.9931C36.1951 31.3895 36.1675 30.7989 36.2949 30.2312C36.4223 29.6636 36.6995 29.1415 37.1127 28.669C40.2284 25.1047 51.0476 24.31 63.2113 27.0397C75.375 29.7695 84.8171 35.1112 86.1109 39.665C86.2825 40.2687 86.3102 40.8593 86.1828 41.4269C86.0554 41.9946 85.778 42.5167 85.3649 42.9892Z" fill="url(#paint33_linear_821_4724)"/>
<path d="M85.3649 42.9892L85.4663 42.5375C86.4666 38.0802 76.3097 32.0045 62.7786 28.9679C49.2475 25.9313 37.4684 27.0842 36.4681 31.5415L36.3667 31.9931C36.1951 31.3895 36.1675 30.7989 36.2949 30.2312C36.4223 29.6636 36.6995 29.1415 37.1127 28.669C40.2284 25.1047 51.0476 24.31 63.2113 27.0397C75.375 29.7695 84.8171 35.1112 86.1109 39.665C86.2825 40.2687 86.3102 40.8593 86.1828 41.4269C86.0554 41.9946 85.778 42.5167 85.3649 42.9892Z" fill="url(#paint34_linear_821_4724)"/>
<mask id="mask0_821_4724" style="mask-type:alpha" maskUnits="userSpaceOnUse" x="9" y="35" width="76" height="103">
<path d="M46.9433 137.491C87.9828 145.339 89.4561 50.7633 78.5764 45.9062C79.1562 43.3227 71.2725 39.3537 60.9677 37.0411C50.663 34.7285 41.8393 34.9482 41.2595 37.5317C20.441 40.9038 -21.7312 114.109 46.9433 137.491Z" fill="#737373"/>
</mask>
<g mask="url(#mask0_821_4724)">
<path d="M82.6959 59.209C82.1459 49.974 78.707 43.4182 73.5683 40.3909L73.5693 40.3872L70.2685 38.4815C69.6413 38.1212 60.7288 33.0903 52.5765 33.3909C47.7926 33.5674 42.9822 35.9816 38.9739 38.7658C32.4858 43.2727 27.2952 49.3938 23.7146 56.4356C19.0889 65.5324 16.2458 75.8982 16.2458 85.5086C16.2458 93.1651 18.0559 99.2088 21.1285 103.253L32.657 120.342C34.816 123.543 37.6744 126.21 41.016 128.143L49.4338 133.012C49.7145 133.218 50.0087 133.388 50.315 133.522L50.325 133.528L50.3254 133.526C54.4608 135.319 60.7221 130.651 63.7794 122.587L77.8943 85.361C81.3406 76.8456 83.1986 67.6493 82.6959 59.209Z" fill="url(#paint35_linear_821_4724)"/>
<path d="M82.6959 59.209C82.1459 49.974 78.707 43.4182 73.5683 40.3909L73.5693 40.3872L70.2685 38.4815C69.6413 38.1212 60.7288 33.0903 52.5765 33.3909C47.7926 33.5674 42.9822 35.9816 38.9739 38.7658C32.4858 43.2727 27.2952 49.3938 23.7146 56.4356C19.0889 65.5324 16.2458 75.8982 16.2458 85.5086C16.2458 93.1651 18.0559 99.2088 21.1285 103.253L32.657 120.342C34.816 123.543 37.6744 126.21 41.016 128.143L49.4338 133.012C49.7145 133.218 50.0087 133.388 50.315 133.522L50.325 133.528L50.3254 133.526C54.4608 135.319 60.7221 130.651 63.7794 122.587L77.8943 85.361C81.3406 76.8456 83.1986 67.6493 82.6959 59.209Z" fill="url(#paint36_linear_821_4724)"/>
<path d="M77.8945 85.3611C81.3406 76.8458 83.1988 67.6493 82.6959 59.209C81.6825 42.193 70.8749 34.2448 57.6607 40.7812C42.0699 48.4932 29.1235 72.4458 29.1235 92.9553C29.1235 100.612 30.9338 106.656 34.0062 110.7L48.1211 131.628C51.7962 137.077 60.1042 132.28 63.7792 122.588L77.8945 85.3611Z" fill="url(#paint37_linear_821_4724)"/>
<path d="M73.1134 67.5725C73.1134 80.2112 65.4291 94.8936 55.95 100.366C46.471 105.839 38.7866 100.03 38.7866 87.3911C38.7866 74.7524 46.471 60.07 55.95 54.5973C65.4291 49.1245 73.1134 54.9336 73.1134 67.5725Z" fill="url(#paint38_linear_821_4724)"/>
</g>
<defs>
<linearGradient id="paint0_linear_821_4724" x1="33.0735" y1="108.261" x2="71.4478" y2="41.7949" gradientUnits="userSpaceOnUse">
<stop stop-color="#802129"/>
<stop offset="0.5313" stop-color="#FF7A85"/>
<stop offset="0.666" stop-color="#FC7782"/>
<stop offset="0.7602" stop-color="#F36F7A"/>
<stop offset="0.8419" stop-color="#E4616C"/>
<stop offset="0.9166" stop-color="#CE4C57"/>
<stop offset="0.9859" stop-color="#B2323D"/>
<stop offset="1" stop-color="#AB2C37"/>
</linearGradient>
<linearGradient id="paint1_linear_821_4724" x1="33.0735" y1="108.261" x2="71.4478" y2="41.7949" gradientUnits="userSpaceOnUse">
<stop stop-color="#802129"/>
<stop offset="0.5313" stop-color="#FF7A85"/>
<stop offset="0.666" stop-color="#FC7782"/>
<stop offset="0.7602" stop-color="#F36F7A"/>
<stop offset="0.8419" stop-color="#E4616C"/>
<stop offset="0.9166" stop-color="#CE4C57"/>
<stop offset="0.9859" stop-color="#B2323D"/>
<stop offset="1" stop-color="#AB2C37"/>
</linearGradient>
<linearGradient id="paint2_linear_821_4724" x1="55.9506" y1="156.838" x2="55.9506" y2="-4.28291" gradientUnits="userSpaceOnUse">
<stop stop-color="#AB2C37"/>
<stop offset="1" stop-color="#FF7A85"/>
</linearGradient>
<linearGradient id="paint3_linear_821_4724" x1="55.95" y1="131.203" x2="55.95" y2="69.7643" gradientUnits="userSpaceOnUse">
<stop stop-color="#D7D1EB"/>
<stop offset="1" stop-color="#F2EFFA"/>
</linearGradient>
<linearGradient id="paint4_linear_821_4724" x1="51.1894" y1="10.4086" x2="68.5916" y2="24.3873" gradientUnits="userSpaceOnUse">
<stop stop-color="#FEF0AE"/>
<stop offset="1" stop-color="#FBC56D"/>
</linearGradient>
<linearGradient id="paint5_linear_821_4724" x1="68.9127" y1="1.62889" x2="66.0009" y2="14.6035" gradientUnits="userSpaceOnUse">
<stop stop-color="#DC8758" stop-opacity="0"/>
<stop offset="0.2153" stop-color="#DD8654" stop-opacity="0.215"/>
<stop offset="0.4291" stop-color="#E28448" stop-opacity="0.429"/>
<stop offset="0.6424" stop-color="#EA8034" stop-opacity="0.642"/>
<stop offset="0.8543" stop-color="#F47B18" stop-opacity="0.854"/>
<stop offset="1" stop-color="#FE7701"/>
</linearGradient>
<linearGradient id="paint6_linear_821_4724" x1="57.9666" y1="17.0294" x2="68.8268" y2="19.4666" gradientUnits="userSpaceOnUse">
<stop stop-color="#FEF0AE"/>
<stop offset="1" stop-color="#FBC56D"/>
</linearGradient>
<linearGradient id="paint7_linear_821_4724" x1="64.8657" y1="19.6641" x2="62.081" y2="32.0729" gradientUnits="userSpaceOnUse">
<stop stop-color="#DC8758" stop-opacity="0"/>
<stop offset="0.2153" stop-color="#DD8654" stop-opacity="0.215"/>
<stop offset="0.4291" stop-color="#E28448" stop-opacity="0.429"/>
<stop offset="0.6424" stop-color="#EA8034" stop-opacity="0.642"/>
<stop offset="0.8543" stop-color="#F47B18" stop-opacity="0.854"/>
<stop offset="1" stop-color="#FE7701"/>
</linearGradient>
<linearGradient id="paint8_linear_821_4724" x1="82.1795" y1="24.1673" x2="89.1507" y2="27.2651" gradientUnits="userSpaceOnUse">
<stop stop-color="#DC8758" stop-opacity="0"/>
<stop offset="0.2153" stop-color="#DD8654" stop-opacity="0.215"/>
<stop offset="0.4291" stop-color="#E28448" stop-opacity="0.429"/>
<stop offset="0.6424" stop-color="#EA8034" stop-opacity="0.642"/>
<stop offset="0.8543" stop-color="#F47B18" stop-opacity="0.854"/>
<stop offset="1" stop-color="#FE7701"/>
</linearGradient>
<linearGradient id="paint9_linear_821_4724" x1="67.4268" y1="20.1443" x2="62.895" y2="12.9899" gradientUnits="userSpaceOnUse">
<stop stop-color="#FEF0AE"/>
<stop offset="1" stop-color="#FBC56D"/>
</linearGradient>
<linearGradient id="paint10_linear_821_4724" x1="64.2153" y1="14.8811" x2="66.6058" y2="19.0274" gradientUnits="userSpaceOnUse">
<stop stop-color="#FD4755"/>
<stop offset="0.3362" stop-color="#E43F48"/>
<stop offset="1" stop-color="#A72B2B"/>
</linearGradient>
<linearGradient id="paint11_linear_821_4724" x1="65.5005" y1="16.8407" x2="64.6127" y2="20.7968" gradientUnits="userSpaceOnUse">
<stop stop-color="#A72B2B" stop-opacity="0"/>
<stop offset="1" stop-color="#481F05"/>
</linearGradient>
<linearGradient id="paint12_linear_821_4724" x1="65.9219" y1="17.5985" x2="67.7883" y2="19.8625" gradientUnits="userSpaceOnUse">
<stop stop-color="#A72B2B" stop-opacity="0"/>
<stop offset="1" stop-color="#481F05"/>
</linearGradient>
<linearGradient id="paint13_linear_821_4724" x1="47.4143" y1="18.5127" x2="44.2098" y2="13.4537" gradientUnits="userSpaceOnUse">
<stop stop-color="#FEF0AE"/>
<stop offset="1" stop-color="#FBC56D"/>
</linearGradient>
<linearGradient id="paint14_linear_821_4724" x1="45.1431" y1="14.791" x2="46.8334" y2="17.7229" gradientUnits="userSpaceOnUse">
<stop stop-color="#BBEC6C"/>
<stop offset="1" stop-color="#81B823"/>
</linearGradient>
<linearGradient id="paint15_linear_821_4724" x1="46.0527" y1="16.1767" x2="45.4249" y2="18.9741" gradientUnits="userSpaceOnUse">
<stop stop-color="#026841" stop-opacity="0"/>
<stop offset="0.2391" stop-color="#0A6644" stop-opacity="0.239"/>
<stop offset="0.6113" stop-color="#20604D" stop-opacity="0.611"/>
<stop offset="1" stop-color="#3E5959"/>
</linearGradient>
<linearGradient id="paint16_linear_821_4724" x1="46.3502" y1="16.7125" x2="47.6699" y2="18.3133" gradientUnits="userSpaceOnUse">
<stop stop-color="#026841" stop-opacity="0"/>
<stop offset="0.2391" stop-color="#0A6644" stop-opacity="0.239"/>
<stop offset="0.6113" stop-color="#20604D" stop-opacity="0.611"/>
<stop offset="1" stop-color="#3E5959"/>
</linearGradient>
<linearGradient id="paint17_linear_821_4724" x1="84.7298" y1="26.8867" x2="81.5254" y2="21.8277" gradientUnits="userSpaceOnUse">
<stop stop-color="#FEF0AE"/>
<stop offset="1" stop-color="#FBC56D"/>
</linearGradient>
<linearGradient id="paint18_linear_821_4724" x1="82.4587" y1="23.165" x2="84.149" y2="26.0969" gradientUnits="userSpaceOnUse">
<stop stop-color="#BBEC6C"/>
<stop offset="1" stop-color="#81B823"/>
</linearGradient>
<linearGradient id="paint19_linear_821_4724" x1="83.3686" y1="24.5507" x2="82.7408" y2="27.3481" gradientUnits="userSpaceOnUse">
<stop stop-color="#026841" stop-opacity="0"/>
<stop offset="0.2391" stop-color="#0A6644" stop-opacity="0.239"/>
<stop offset="0.6113" stop-color="#20604D" stop-opacity="0.611"/>
<stop offset="1" stop-color="#3E5959"/>
</linearGradient>
<linearGradient id="paint20_linear_821_4724" x1="83.6658" y1="25.0866" x2="84.9856" y2="26.6873" gradientUnits="userSpaceOnUse">
<stop stop-color="#026841" stop-opacity="0"/>
<stop offset="0.2391" stop-color="#0A6644" stop-opacity="0.239"/>
<stop offset="0.6113" stop-color="#20604D" stop-opacity="0.611"/>
<stop offset="1" stop-color="#3E5959"/>
</linearGradient>
<linearGradient id="paint21_linear_821_4724" x1="51.0156" y1="28.6479" x2="70.9719" y2="33.1265" gradientUnits="userSpaceOnUse">
<stop stop-color="#FEF0AE"/>
<stop offset="1" stop-color="#FBC56D"/>
</linearGradient>
<linearGradient id="paint22_linear_821_4724" x1="62.0973" y1="21.8321" x2="60.7853" y2="41.3429" gradientUnits="userSpaceOnUse">
<stop stop-color="#DC8758" stop-opacity="0"/>
<stop offset="0.2153" stop-color="#DD8654" stop-opacity="0.215"/>
<stop offset="0.4291" stop-color="#E28448" stop-opacity="0.429"/>
<stop offset="0.6424" stop-color="#EA8034" stop-opacity="0.642"/>
<stop offset="0.8543" stop-color="#F47B18" stop-opacity="0.854"/>
<stop offset="1" stop-color="#FE7701"/>
</linearGradient>
<linearGradient id="paint23_linear_821_4724" x1="62.6631" y1="33.6373" x2="64.8375" y2="28.5032" gradientUnits="userSpaceOnUse">
<stop stop-color="#DC8758" stop-opacity="0"/>
<stop offset="0.2153" stop-color="#DD8654" stop-opacity="0.215"/>
<stop offset="0.4291" stop-color="#E28448" stop-opacity="0.429"/>
<stop offset="0.6424" stop-color="#EA8034" stop-opacity="0.642"/>
<stop offset="0.8543" stop-color="#F47B18" stop-opacity="0.854"/>
<stop offset="1" stop-color="#FE7701"/>
</linearGradient>
<linearGradient id="paint24_linear_821_4724" x1="59.7659" y1="31.008" x2="58.9494" y2="24.7768" gradientUnits="userSpaceOnUse">
<stop stop-color="#DC8758" stop-opacity="0"/>
<stop offset="0.2153" stop-color="#DD8654" stop-opacity="0.215"/>
<stop offset="0.4291" stop-color="#E28448" stop-opacity="0.429"/>
<stop offset="0.6424" stop-color="#EA8034" stop-opacity="0.642"/>
<stop offset="0.8543" stop-color="#F47B18" stop-opacity="0.854"/>
<stop offset="1" stop-color="#FE7701"/>
</linearGradient>
<linearGradient id="paint25_linear_821_4724" x1="80.3329" y1="35.2272" x2="85.4941" y2="36.3854" gradientUnits="userSpaceOnUse">
<stop stop-color="#DC8758" stop-opacity="0"/>
<stop offset="0.2153" stop-color="#DD8654" stop-opacity="0.215"/>
<stop offset="0.4291" stop-color="#E28448" stop-opacity="0.429"/>
<stop offset="0.6424" stop-color="#EA8034" stop-opacity="0.642"/>
<stop offset="0.8543" stop-color="#F47B18" stop-opacity="0.854"/>
<stop offset="1" stop-color="#FE7701"/>
</linearGradient>
<linearGradient id="paint26_linear_821_4724" x1="65.2868" y1="29.4283" x2="58.7968" y2="22.4775" gradientUnits="userSpaceOnUse">
<stop stop-color="#DC8758" stop-opacity="0"/>
<stop offset="0.2153" stop-color="#DD8654" stop-opacity="0.215"/>
<stop offset="0.4291" stop-color="#E28448" stop-opacity="0.429"/>
<stop offset="0.6424" stop-color="#EA8034" stop-opacity="0.642"/>
<stop offset="0.8543" stop-color="#F47B18" stop-opacity="0.854"/>
<stop offset="1" stop-color="#FE7701"/>
</linearGradient>
<linearGradient id="paint27_linear_821_4724" x1="61.6776" y1="33.868" x2="58.3081" y2="48.8825" gradientUnits="userSpaceOnUse">
<stop stop-color="#FEF0AE"/>
<stop offset="1" stop-color="#FBC56D"/>
</linearGradient>
<linearGradient id="paint28_linear_821_4724" x1="61.6776" y1="33.868" x2="58.3081" y2="48.8825" gradientUnits="userSpaceOnUse">
<stop stop-color="#FEF0AE"/>
<stop offset="1" stop-color="#FBC56D"/>
</linearGradient>
<linearGradient id="paint29_linear_821_4724" x1="59.6165" y1="43.0535" x2="58.1083" y2="49.7737" gradientUnits="userSpaceOnUse">
<stop stop-color="#DC8758" stop-opacity="0"/>
<stop offset="0.2153" stop-color="#DD8654" stop-opacity="0.215"/>
<stop offset="0.4291" stop-color="#E28448" stop-opacity="0.429"/>
<stop offset="0.6424" stop-color="#EA8034" stop-opacity="0.642"/>
<stop offset="0.8543" stop-color="#F47B18" stop-opacity="0.854"/>
<stop offset="1" stop-color="#FE7701"/>
</linearGradient>
<linearGradient id="paint30_linear_821_4724" x1="59.9485" y1="27.8491" x2="59.8958" y2="49.9258" gradientUnits="userSpaceOnUse">
<stop stop-color="#DC8758" stop-opacity="0"/>
<stop offset="0.2153" stop-color="#DD8654" stop-opacity="0.215"/>
<stop offset="0.4291" stop-color="#E28448" stop-opacity="0.429"/>
<stop offset="0.6424" stop-color="#EA8034" stop-opacity="0.642"/>
<stop offset="0.8543" stop-color="#F47B18" stop-opacity="0.854"/>
<stop offset="1" stop-color="#FE7701"/>
</linearGradient>
<linearGradient id="paint31_linear_821_4724" x1="59.4822" y1="43.6491" x2="60.9809" y2="36.9706" gradientUnits="userSpaceOnUse">
<stop stop-color="#DC8758" stop-opacity="0"/>
<stop offset="0.2153" stop-color="#DD8654" stop-opacity="0.215"/>
<stop offset="0.4291" stop-color="#E28448" stop-opacity="0.429"/>
<stop offset="0.6424" stop-color="#EA8034" stop-opacity="0.642"/>
<stop offset="0.8543" stop-color="#F47B18" stop-opacity="0.854"/>
<stop offset="1" stop-color="#FE7701"/>
</linearGradient>
<linearGradient id="paint32_linear_821_4724" x1="70.8395" y1="45.5152" x2="78.38" y2="54.1914" gradientUnits="userSpaceOnUse">
<stop stop-color="#DC8758" stop-opacity="0"/>
<stop offset="0.2153" stop-color="#DD8654" stop-opacity="0.215"/>
<stop offset="0.4291" stop-color="#E28448" stop-opacity="0.429"/>
<stop offset="0.6424" stop-color="#EA8034" stop-opacity="0.642"/>
<stop offset="0.8543" stop-color="#F47B18" stop-opacity="0.854"/>
<stop offset="1" stop-color="#FE7701"/>
</linearGradient>
<linearGradient id="paint33_linear_821_4724" x1="58.4353" y1="31.4569" x2="69.3307" y2="33.902" gradientUnits="userSpaceOnUse">
<stop stop-color="#FD4755"/>
<stop offset="0.3362" stop-color="#E43F48"/>
<stop offset="1" stop-color="#A72B2B"/>
</linearGradient>
<linearGradient id="paint34_linear_821_4724" x1="62.9829" y1="28.0576" x2="61.4359" y2="34.951" gradientUnits="userSpaceOnUse">
<stop stop-color="#A72B2B" stop-opacity="0"/>
<stop offset="1" stop-color="#481F05"/>
</linearGradient>
<linearGradient id="paint35_linear_821_4724" x1="33.0735" y1="108.261" x2="71.4478" y2="41.7949" gradientUnits="userSpaceOnUse">
<stop stop-color="#802129"/>
<stop offset="0.5313" stop-color="#FF7A85"/>
<stop offset="0.666" stop-color="#FC7782"/>
<stop offset="0.7602" stop-color="#F36F7A"/>
<stop offset="0.8419" stop-color="#E4616C"/>
<stop offset="0.9166" stop-color="#CE4C57"/>
<stop offset="0.9859" stop-color="#B2323D"/>
<stop offset="1" stop-color="#AB2C37"/>
</linearGradient>
<linearGradient id="paint36_linear_821_4724" x1="33.0735" y1="108.261" x2="71.4478" y2="41.7949" gradientUnits="userSpaceOnUse">
<stop stop-color="#802129"/>
<stop offset="0.5313" stop-color="#FF7A85"/>
<stop offset="0.666" stop-color="#FC7782"/>
<stop offset="0.7602" stop-color="#F36F7A"/>
<stop offset="0.8419" stop-color="#E4616C"/>
<stop offset="0.9166" stop-color="#CE4C57"/>
<stop offset="0.9859" stop-color="#B2323D"/>
<stop offset="1" stop-color="#AB2C37"/>
</linearGradient>
<linearGradient id="paint37_linear_821_4724" x1="55.9506" y1="156.838" x2="55.9506" y2="-4.28291" gradientUnits="userSpaceOnUse">
<stop stop-color="#AB2C37"/>
<stop offset="1" stop-color="#FF7A85"/>
</linearGradient>
<linearGradient id="paint38_linear_821_4724" x1="55.95" y1="131.203" x2="55.95" y2="69.7643" gradientUnits="userSpaceOnUse">
<stop stop-color="#D7D1EB"/>
<stop offset="1" stop-color="#F2EFFA"/>
</linearGradient>
</defs>
</svg>
