<svg width="114" height="93" viewBox="0 0 114 93" fill="none" xmlns="http://www.w3.org/2000/svg">
<path d="M72.3895 57.6578C72.7946 56.6793 73.0039 55.6309 73.0039 54.5716V53.4194H81.0095V56.1147C81.0095 59.9609 79.4819 63.6494 76.7623 66.369C74.0427 69.0886 70.3538 70.6162 66.5075 70.6162H47.4914C43.6493 70.6162 39.9637 69.0911 37.2441 66.3757C34.5254 63.6603 32.9953 59.9764 32.9902 56.1339V37.1177C32.9902 33.2715 34.5179 29.583 37.2374 26.8634C39.957 24.1438 43.6459 22.6162 47.4914 22.6162H50.0352V30.6122H49.0541C47.9944 30.6122 46.9464 30.821 45.9679 31.2266C44.9894 31.6321 44.1013 32.2264 43.353 32.9756C42.6038 33.7252 42.0112 34.6145 41.606 35.5931C41.2972 36.3405 41.1038 37.129 41.0293 37.9318C41.0067 38.18 40.9958 38.4294 40.9958 38.6797V54.5716C40.9958 56.709 41.8446 58.7585 43.3563 60.2694C44.8672 61.7807 46.9163 62.6299 49.0541 62.6299H64.9364C65.9953 62.6311 67.0441 62.4235 68.0226 62.0193C69.002 61.6145 69.8909 61.0215 70.6401 60.2732C71.3892 59.5244 71.9835 58.6359 72.3895 57.6578Z" fill="white" fill-opacity="0.6"/>
<path fill-rule="evenodd" clip-rule="evenodd" d="M81.0095 22.6162H53.2017V30.6787H66.4222L55.0784 42.0275L61.7121 48.6616L72.9462 37.427V49.8523H81.0087L81.0095 22.6162ZM73.0608 30.6787L72.9462 30.7934V30.6787H73.0608Z" fill="white" fill-opacity="0.6"/>
</svg>
