<svg width="379" height="89" viewBox="0 0 379 89" fill="none" xmlns="http://www.w3.org/2000/svg">
<path d="M33.7904 9.89636L34.9494 8.77946V0.123291H36.2623V12.9373L27.5181 21.4225V0.123291H28.8323V14.677L29.996 13.5541V0.123291H31.309V12.2853L32.4679 11.1714V0.123291H33.7904V9.89636Z" fill="white" fill-opacity="0.6"/>
<path d="M25.0128 14.6794L23.8514 13.5586V0.12538H22.529V12.2856L21.3771 11.1681V0.12538H20.057V9.89666L18.8957 8.77976V0.12538H17.5792V12.9376L26.3293 21.4228V0.12538H25.0128V14.6794Z" fill="white" fill-opacity="0.6"/>
<path d="M27.5193 28.5321L36.2635 20.0445V14.6101L27.5193 23.052V28.5321Z" fill="white" fill-opacity="0.6"/>
<path d="M36.2635 41.5287L27.5193 50.0127V44.2086L36.2635 35.7742V41.5287Z" fill="white" fill-opacity="0.6"/>
<path fill-rule="evenodd" clip-rule="evenodd" d="M297.294 40.9099H309.932V36.3892H291.186V62.2327H303.403C305.695 62.2327 307.872 61.9692 309.779 60.0851C311.035 58.8441 312.032 56.8884 312.032 54.2476C312.032 51.4233 310.808 49.4595 308.865 48.1433C306.878 46.7856 304.926 46.6349 302.909 46.6349H297.294V40.9099ZM302.22 57.7158H297.294V51.0016H302.065C302.874 51.0016 303.98 51.0846 304.851 51.946C305.216 52.3062 305.456 52.695 305.604 53.0973C305.751 53.4971 305.808 53.9104 305.808 54.3231C305.808 55.0413 305.695 55.9777 304.851 56.8054C303.98 57.6744 303.137 57.7158 302.22 57.7158Z" fill="white" fill-opacity="0.6"/>
<path fill-rule="evenodd" clip-rule="evenodd" d="M101.135 36.3904C103.392 36.3904 105.907 36.4635 108.083 37.9283C109.538 38.8742 111.252 40.7607 111.252 44.1117C111.252 47.8037 108.887 52.1373 102.358 52.1373H96.8582V62.2324H92.0505V36.3904H101.135ZM101.428 48.3686C102.49 48.3698 103.959 48.3713 105.145 47.2738C105.983 46.5182 106.445 45.2414 106.445 44.1496C106.445 43.1302 106.023 41.9262 105.185 41.2083C104.344 40.4936 103.01 40.1534 101.516 40.1534H96.8582V48.3686H101.428Z" fill="white" fill-opacity="0.6"/>
<path fill-rule="evenodd" clip-rule="evenodd" d="M115.685 44.9788C117.019 43.7321 119.009 42.6418 121.981 42.6418C124.959 42.6418 126.946 43.7321 128.282 44.9788C130.263 46.8268 131.294 49.6848 131.294 52.6228C131.294 55.5638 130.263 58.4257 128.282 60.2722C126.946 61.5177 124.959 62.6083 121.981 62.6083C119.009 62.6083 117.019 61.5177 115.685 60.2722C113.696 58.4251 112.666 55.5638 112.666 52.6228C112.666 49.6851 113.696 46.8268 115.685 44.9788ZM118.931 58.0497C119.061 58.2043 119.245 58.3989 119.487 58.5934C119.811 58.853 120.239 59.1123 120.784 59.2756C121.133 59.3803 121.531 59.4453 121.981 59.4453C123.664 59.4453 124.616 58.5427 125.034 58.0497C125.341 57.7114 126.489 56.2068 126.489 52.6228C126.489 49.0459 125.341 47.5456 125.034 47.2024C124.616 46.7101 123.664 45.8065 121.981 45.8065C121.448 45.8065 120.988 45.8979 120.595 46.0381C119.751 46.3395 119.214 46.8667 118.931 47.2024C118.628 47.545 117.475 49.0459 117.475 52.6228C117.475 56.2074 118.628 57.7117 118.931 58.0497Z" fill="white" fill-opacity="0.6"/>
<path d="M145.561 47.2371C146.055 47.9553 146.439 49.0877 146.516 50.065L150.562 49.5735C150.296 47.8765 149.532 45.9966 148.268 44.7559C147.014 43.4734 145.028 42.6406 142.62 42.6406C139.8 42.6406 137.391 44.0021 135.979 45.6547C134.986 46.8274 133.727 49.0125 133.727 52.6646C133.727 56.5795 135.142 59.07 136.628 60.4614C137.735 61.4801 139.608 62.6089 142.507 62.6089C145.099 62.6089 146.934 61.6693 148.119 60.6115C149.532 59.3367 150.331 57.3739 150.562 55.6017L146.516 55.1129C146.439 56.0943 146.055 57.2229 145.486 58.0169C144.995 58.6779 144.402 59.0971 143.718 59.3003C143.388 59.3985 143.036 59.4462 142.663 59.4462C141.055 59.4462 140.062 58.4678 139.568 57.7158C139.226 57.1763 138.983 56.4566 138.82 55.667C138.618 54.6898 138.538 53.6054 138.538 52.6234C138.538 51.5322 138.612 49.125 139.568 47.5796C140.179 46.5642 141.17 45.8089 142.663 45.8089C144.185 45.8089 145.099 46.5642 145.561 47.2371Z" fill="white" fill-opacity="0.6"/>
<path d="M165.461 50.065C165.385 49.0877 165.006 47.9553 164.507 47.2371C164.05 46.5642 163.13 45.8089 161.603 45.8089C160.119 45.8089 159.125 46.5642 158.513 47.5796C157.563 49.125 157.483 51.5322 157.483 52.6234C157.483 53.3789 157.531 54.1948 157.645 54.976C157.678 55.203 157.718 55.4271 157.762 55.6459C157.81 55.8771 157.865 56.1024 157.926 56.319C158.075 56.8502 158.268 57.3294 158.513 57.7158C158.595 57.8418 158.692 57.9739 158.803 58.107C158.971 58.307 159.172 58.5087 159.407 58.6925C159.949 59.1165 160.674 59.4462 161.603 59.4462C161.99 59.4462 162.355 59.3955 162.696 59.2905C163.368 59.0837 163.95 58.6674 164.431 58.0169C164.75 57.5759 165.01 57.0319 165.189 56.467C165.333 56.015 165.426 55.5495 165.459 55.1129L169.507 55.6017C169.278 57.3739 168.477 59.3367 167.064 60.6115C165.877 61.6693 164.05 62.6089 161.453 62.6089C158.552 62.6089 156.681 61.4801 155.573 60.4614C154.086 59.07 152.674 56.5795 152.674 52.6646C152.674 49.0125 153.931 46.8274 154.925 45.6547C156.333 44.0021 158.738 42.6406 161.565 42.6406C163.97 42.6406 165.955 43.4734 167.212 44.7559C168.477 45.9966 169.24 47.8765 169.507 49.5735L165.461 50.065Z" fill="white" fill-opacity="0.6"/>
<path fill-rule="evenodd" clip-rule="evenodd" d="M186.721 61.0286C187.862 60.2358 189.238 58.9184 189.922 56.658L185.686 56.1284C185.626 56.4527 185.52 56.7869 185.335 57.1316C185.266 57.262 185.185 57.3936 185.09 57.5266C185.032 57.6099 184.969 57.6938 184.899 57.7782C184.859 57.828 184.816 57.8782 184.77 57.9286C184.735 57.9692 184.698 58.0098 184.658 58.0503C184.363 58.3526 184.052 58.5937 183.733 58.7847C183.366 59.0046 182.99 59.1577 182.621 59.2603C182.145 59.3928 181.68 59.4418 181.259 59.4418C179.962 59.4418 178.088 58.919 177.061 56.8054C176.399 55.471 176.408 53.8137 176.409 53.4905V53.458H190.23V52.5891C190.23 50.4036 189.618 47.8762 188.28 46.0673C187.024 44.334 184.658 42.6397 180.953 42.6397C178.012 42.6397 176.069 43.8467 175.033 44.7117C173.24 46.184 171.6 48.7819 171.6 52.7013C171.6 55.7894 172.711 58.3923 174.193 59.9001C175.801 61.5177 178.473 62.6125 181.107 62.6125C183.208 62.6125 185.195 62.0441 186.721 61.0286ZM184.896 47.9857C184.971 48.1507 185.038 48.3238 185.098 48.5029C185.316 49.1665 185.42 49.908 185.42 50.588H176.528C176.528 49.1963 177.061 48.0308 177.67 47.2738C178.435 46.3717 179.694 45.652 181.144 45.652C182.556 45.652 183.856 46.3717 184.578 47.4244C184.696 47.5957 184.803 47.7846 184.896 47.9857Z" fill="white" fill-opacity="0.6"/>
<path d="M209.081 43.0192V62.2321H204.648V46.2586H199.612C199.547 47.7652 199.495 48.7526 199.446 49.6612L199.431 49.9116C199.401 50.4794 199.373 51.0321 199.344 51.6814L199.33 51.964C199.216 54.0551 199.004 58.0023 197.358 60.2009C196.406 61.4428 195.224 61.9313 194.384 62.1601C193.891 62.3108 193.357 62.3827 192.816 62.3827L192.688 62.3813L192.565 62.3768C192.498 62.3735 192.431 62.3687 192.364 62.3625C192.134 62.3407 191.903 62.2998 191.679 62.2321V58.9187H192.051C192.628 58.8775 193.392 58.5791 193.891 58.2001C195.368 57.0364 195.555 54.446 195.707 52.3319L195.722 52.137C195.824 50.5928 195.883 49.3873 195.92 48.1943C195.932 47.7966 195.942 47.4 195.951 46.9927L195.965 46.2983L195.987 45.0555L196.028 43.0192H209.081Z" fill="white" fill-opacity="0.6"/>
<path fill-rule="evenodd" clip-rule="evenodd" d="M223.074 49.8734H218.185V43.021H213.758V62.233H223.453C224.668 62.233 225.628 62.013 226.348 61.7478L226.448 61.7102L226.649 61.6287C226.78 61.5732 226.902 61.5171 227.014 61.4613C227.207 61.3652 227.373 61.2709 227.51 61.1862C227.705 61.0653 227.843 60.9636 227.927 60.9021L227.959 60.8788C228.833 60.1606 229.979 58.7689 229.979 56.0195C229.979 55.756 229.969 55.437 229.932 55.0846C229.903 54.8059 229.858 54.5066 229.787 54.1974C229.585 53.3288 229.181 52.3838 228.382 51.6112C226.779 50.028 224.327 49.8734 223.074 49.8734ZM221.664 59.0694H218.185L218.186 53.0397H221.665C222.273 53.0397 223.224 53.1155 223.988 53.6084C224.216 53.754 224.406 53.9175 224.561 54.0981C224.625 54.1727 224.684 54.2503 224.736 54.3308C224.779 54.3962 224.819 54.4636 224.856 54.5328L224.886 54.5922L224.926 54.6788C224.952 54.7378 224.976 54.7981 224.998 54.8596C225.123 55.2174 225.176 55.6172 225.176 56.0565C225.176 56.2788 225.157 56.4841 225.124 56.6738C225.109 56.7625 225.091 56.8478 225.069 56.9296C224.984 57.2641 224.852 57.5443 224.702 57.7791C224.63 57.8916 224.554 57.9933 224.476 58.0858C224.378 58.2025 224.278 58.3043 224.181 58.3926C223.413 59.0279 222.503 59.0694 221.664 59.0694Z" fill="white" fill-opacity="0.6"/>
<path d="M236.414 43.0192L240.002 49.008L243.742 43.0192H247.789L242.1 51.7228L248.856 62.2321H243.662L239.241 54.9998L234.584 62.2321H230.537L237.178 52.2501L231.22 43.0192H236.414Z" fill="white" fill-opacity="0.6"/>
<path fill-rule="evenodd" clip-rule="evenodd" d="M258.573 42.6418C255.597 42.6418 253.612 43.7321 252.276 44.9788C250.289 46.8268 249.259 49.6851 249.259 52.6228C249.259 55.5638 250.289 58.4251 252.276 60.2722C253.612 61.5177 255.597 62.6083 258.573 62.6083C261.553 62.6083 263.539 61.5177 264.873 60.2722C266.854 58.4257 267.892 55.5638 267.892 52.6228C267.892 49.6848 266.854 46.8268 264.873 44.9788C263.539 43.7321 261.553 42.6418 258.573 42.6418ZM258.573 59.4453C256.895 59.4453 255.938 58.5427 255.524 58.0497C255.385 57.897 255.075 57.5067 254.777 56.7944C254.592 56.3519 254.411 55.7855 254.279 55.0747L254.272 55.0425L254.254 54.9443L254.232 54.8098C254.217 54.7128 254.202 54.6134 254.189 54.5117C254.173 54.3908 254.157 54.2664 254.144 54.1384C254.122 53.9328 254.106 53.7179 254.093 53.4932C254.077 53.2178 254.069 52.9278 254.069 52.6228C254.069 49.0459 255.217 47.545 255.524 47.2024C255.938 46.7101 256.895 45.8065 258.573 45.8065C259.691 45.8065 260.487 46.2046 261.019 46.6164C261.137 46.7077 261.242 46.7993 261.334 46.8876C261.453 47.0013 261.553 47.1093 261.633 47.2024C261.933 47.5456 263.079 49.0459 263.079 52.6228C263.079 56.2068 261.933 57.7114 261.633 58.0497C261.21 58.5427 260.256 59.4453 258.573 59.4453Z" fill="white" fill-opacity="0.6"/>
<path d="M270.251 48.2185C270.823 45.8829 272.313 44.6028 273.381 43.9598C274.029 43.548 275.822 42.6397 278.874 42.6397C279.916 42.6397 280.969 42.7411 281.946 42.9619C282.761 43.146 283.524 43.4131 284.185 43.7733C286.319 44.937 286.854 46.6346 286.854 47.8419C286.854 49.1617 286.201 51.6817 282.885 52.0582V52.1376C284.027 52.2919 285.292 52.7807 286.053 53.5666C286.524 54.0542 286.92 54.7713 287.125 55.5838C287.221 55.9622 287.274 56.3608 287.274 56.7666C287.274 58.6928 286.131 60.3853 284.677 61.3291C282.92 62.4576 280.511 62.6086 278.726 62.6086C276.927 62.6086 274.182 62.4242 272.27 60.9161C271.205 60.0845 270.213 58.6552 269.904 56.8469L273.913 56.166C274.061 56.7666 274.411 57.6741 274.868 58.2001C275.865 59.3325 277.425 59.445 278.417 59.445C279.412 59.445 280.482 59.3319 281.321 58.7638C282.082 58.241 282.464 57.5222 282.464 56.5786C282.464 56.1367 282.416 55.7419 282.253 55.3809C282.125 55.0971 281.927 54.8342 281.625 54.5857C280.745 53.871 279.565 53.7579 278.46 53.7579H276.435V50.8169H278.46C278.91 50.8169 279.481 50.7641 280.001 50.6585C280.107 50.6367 280.212 50.6128 280.312 50.5866C280.548 50.5251 280.763 50.4514 280.939 50.3657C281.74 49.9483 282.197 49.2715 282.197 48.1809C282.197 47.5757 281.964 47.0109 281.398 46.5597C280.514 45.845 279.258 45.8065 278.611 45.8065C277.729 45.8065 276.435 45.9164 275.365 46.8235C275.11 47.0356 274.806 47.3519 274.553 47.7879C274.486 47.9034 274.423 48.0272 274.366 48.1597C274.251 48.4208 274.158 48.7156 274.102 49.0462L270.251 48.2185Z" fill="white" fill-opacity="0.6"/>
<path fill-rule="evenodd" clip-rule="evenodd" d="M315.173 48.3683C315.784 45.7681 317.502 44.4503 318.534 43.8467C320.058 42.978 322.082 42.6397 324.604 42.6397C327.811 42.6397 331.056 43.055 332.505 46.0336C333.205 47.4534 333.197 48.9681 333.191 50.3129V58.0879C333.191 59.6333 333.419 61.0668 333.763 62.2327H328.231C328.075 61.4801 327.964 60.4608 327.924 59.1822C327.195 60.4614 325.439 62.6131 321.398 62.6131C320.45 62.6131 319.492 62.4872 318.612 62.2189C317.825 61.979 317.103 61.6254 316.508 61.1459C315.826 60.5968 315.287 59.8625 314.944 59.0198C314.672 58.3508 314.523 57.6138 314.523 56.8472C314.523 54.9249 315.364 52.6231 318.685 51.269C320.822 50.4042 324.297 50.1035 325.862 50.028L327.693 49.9483V49.5347C327.693 49.2906 327.685 48.9161 327.623 48.5246C327.607 48.4163 327.585 48.3068 327.559 48.1982C327.54 48.1221 327.52 48.0466 327.496 47.9723L327.468 47.892C327.45 47.8407 327.431 47.7906 327.41 47.7416L327.358 47.6309C327.293 47.4999 327.215 47.3788 327.122 47.2738C326.396 46.4463 324.945 46.409 324.366 46.409C324.024 46.409 323.651 46.423 323.274 46.4782C322.776 46.551 322.27 46.6955 321.814 46.973C321.315 47.2738 320.67 47.8756 320.443 48.9331L315.173 48.3683ZM325.98 53.1531C324.068 53.3029 322.159 53.4941 321.089 54.8077C320.912 55.0279 320.735 55.3117 320.617 55.665C320.532 55.921 320.479 56.2134 320.479 56.5449C320.479 56.8239 320.526 57.0731 320.605 57.2927C320.646 57.404 320.693 57.5076 320.747 57.6036C320.833 57.7552 320.935 57.8874 321.042 57.9999C321.129 58.0924 321.222 58.1718 321.315 58.2377C321.855 58.6546 322.653 58.8435 323.417 58.8435C324.563 58.8435 325.901 58.355 326.663 57.4518C326.778 57.3318 327.693 56.2027 327.693 54.0214V53.0021L325.98 53.1531Z" fill="white" fill-opacity="0.6"/>
<path d="M343.301 50.215V43.0192H337.607V62.2321H343.301V54.1685H349.443V62.2321H355.127V43.0192H349.443V50.215H343.301Z" fill="white" fill-opacity="0.6"/>
<path d="M365.238 43.0195V50.4036H366.766C368.403 50.4036 369.092 49.6099 369.509 48.7452C369.7 48.3417 369.844 47.9598 369.961 47.5942C370.083 47.2156 370.176 46.8542 370.265 46.5045L370.276 46.4678C370.461 45.7499 370.634 45.0817 371.003 44.4148C371.335 43.8037 371.73 43.457 372.1 43.2591C372.368 43.1153 372.625 43.05 372.834 43.0192H377.527C376.916 43.6566 376.384 44.4148 376.038 45.0889C375.824 45.5255 375.615 46.0596 375.418 46.6065C375.157 47.3331 374.918 48.0824 374.722 48.6559C374.646 48.8806 374.577 49.0785 374.515 49.2372C374.055 50.4412 373.291 51.6476 371.344 51.7989V51.8703C372.377 52.0248 373.443 52.5509 374.246 53.7206C374.48 54.0596 374.68 54.4496 374.885 54.9228C375.11 55.4468 375.339 56.0732 375.62 56.8463C375.85 57.4938 376.023 57.9599 376.186 58.3732L376.366 58.8235L376.552 59.2729L376.879 60.0466C377.261 60.9155 377.487 61.4422 378.137 62.2318H372.795C372.46 62.1285 372.168 61.9766 371.895 61.7075C371.482 61.3002 371.11 60.6249 370.697 59.4447C370.584 59.1272 370.492 58.8533 370.413 58.611L370.326 58.3374L370.164 57.8128C370.028 57.3637 369.92 57.0125 369.74 56.578L369.47 55.9052C368.899 54.4723 368.135 54.1679 366.957 54.1679H365.238V62.2318H359.552V43.0195H365.238Z" fill="white" fill-opacity="0.6"/>
<path d="M36.2635 27.1514L27.5193 35.6366V30.1604L36.2635 21.72V27.1514Z" fill="white" fill-opacity="0.6"/>
<path d="M36.2635 34.2598L27.5193 42.7444V37.2667L36.2635 28.8266V34.2598Z" fill="white" fill-opacity="0.6"/>
<path d="M17.5792 41.5266L26.3317 50.0124V44.2104L17.5792 35.776V41.5266Z" fill="white" fill-opacity="0.6"/>
<path d="M17.5792 20.0439L26.3317 28.5297V23.0494L17.5792 14.6113V20.0439Z" fill="white" fill-opacity="0.6"/>
<path d="M26.3317 35.6366L17.5792 27.1535V21.72L26.3317 30.1604V35.6366Z" fill="white" fill-opacity="0.6"/>
<path d="M17.5792 34.2601L26.3317 42.7447V37.267L17.5792 28.8287V34.2601Z" fill="white" fill-opacity="0.6"/>
<path fill-rule="evenodd" clip-rule="evenodd" d="M69.6994 38.739C70.3034 38.739 70.7999 39.2374 70.7999 39.8455V40.5184C70.7999 41.1256 70.3034 41.6263 69.6994 41.6263H66.5674V42.5722H68.1263V43.9058H66.5674V45.2864H68.1263V47.8282H66.5674V46.6767H64.2519V47.8282H62.6883V45.2864H64.2519V43.9058H62.6883V42.5722H64.2519V41.6263H48.425C48.8714 42.3177 49.1339 43.1308 49.1339 44.0162C49.1339 46.5146 47.075 48.5378 44.541 48.5378C42.0118 48.5378 39.9613 46.5146 39.9613 44.0162C39.9613 43.0327 40.2835 42.13 40.8182 41.3891C40.422 41.1331 40.1546 40.6858 40.1546 40.1839C40.1546 39.6739 40.422 39.2323 40.8182 38.9706C40.4984 38.5272 40.2537 38.0277 40.1093 37.487L40.0651 37.3055C40.0472 37.2238 40.0305 37.1411 40.0174 37.0576L39.9923 36.8788C39.9827 36.7956 39.9756 36.7117 39.9708 36.627C39.9648 36.5345 39.9613 36.4411 39.9613 36.3471C39.9613 33.8516 42.0118 31.824 44.541 31.824C47.075 31.824 49.1339 33.8516 49.1339 36.3471C49.1339 36.906 49.0289 37.4374 48.8391 37.9277C48.7293 38.2133 48.5897 38.4845 48.425 38.739H69.6994ZM44.541 46.3449C45.848 46.3449 46.9091 45.3043 46.9091 44.0162C46.9091 43.855 46.8769 43.6569 46.8244 43.4385C46.773 43.2227 46.7002 42.9873 46.6179 42.7489C46.2896 41.7979 45.7991 40.7974 45.7991 40.7974V39.5656C45.7991 39.5656 46.2789 38.586 46.6071 37.6448C46.779 37.154 46.9091 36.6735 46.9091 36.348C46.9091 35.0634 45.848 34.0157 44.541 34.0157C44.2916 34.0157 44.0517 34.0542 43.8261 34.1252C43.5575 34.21 43.3093 34.341 43.092 34.5087C42.8867 34.6674 42.7077 34.8593 42.5645 35.0756C42.4415 35.2612 42.3448 35.4647 42.2792 35.6814C42.2159 35.8929 42.1813 36.1164 42.1813 36.348C42.1813 36.8233 42.3222 37.2632 42.5692 37.6281L43.2281 38.7283C42.8211 39.0801 42.5621 39.6014 42.5621 40.1842C42.5621 40.7613 42.8211 41.2823 43.2281 41.632L42.5692 42.7319C42.3222 43.1019 42.1813 43.5441 42.1813 44.0162C42.1813 45.3043 43.2412 46.3449 44.541 46.3449Z" fill="white" fill-opacity="0.6"/>
<path d="M9.62153 35.9878V41.6281C9.62153 47.0189 12.0027 50.4785 13.3694 51.8291C14.1715 52.6082 22.3069 60.5067 22.4191 60.6186C24.9531 63.0604 25.3959 63.8649 25.9593 65.253V59.0058C25.9593 53.905 23.5578 51.6656 22.0253 50.238C21.8856 50.1076 21.7531 49.9841 21.6302 49.8656C18.2046 46.5636 15.9058 44.3921 14.0581 42.5734C10.5478 39.1078 9.62153 35.9878 9.62153 35.9878Z" fill="white" fill-opacity="0.6"/>
<path d="M17.615 59.9654C18.7644 61.068 20.0821 62.3299 21.6302 63.8228L21.9346 64.109L22.0205 64.1886C23.5519 65.6126 25.9569 67.8485 25.9569 72.9594V79.5599L25.9235 79.4764C25.3757 78.1237 24.9018 76.957 22.4215 74.5689C22.3213 74.4666 14.1679 66.5916 13.3634 65.8209C12.1006 64.41 9.61915 60.9683 9.61915 55.5823V50.7113C9.61915 50.7113 10.5501 53.0629 14.0569 56.527C15.0702 57.5231 16.2185 58.6265 17.615 59.9654Z" fill="white" fill-opacity="0.6"/>
<path d="M39.6712 10.5657C39.0362 10.5657 38.4108 10.5788 37.7925 10.6071V13.2476C38.4108 13.2193 39.0362 13.2008 39.6712 13.2008C59.8941 13.2008 76.288 29.3849 76.288 49.3467C76.288 69.307 59.8941 85.487 39.6712 85.487C19.4435 85.487 3.04847 69.307 3.04847 49.3467C3.04847 38.267 8.10091 28.3542 16.0502 21.7257V18.3496C6.53134 25.4276 0.378418 36.6756 0.378418 49.3461C0.378418 70.7656 17.9683 88.1233 39.6712 88.1233C61.367 88.1233 78.958 70.7659 78.958 49.3461C78.958 27.929 61.367 10.5657 39.6712 10.5657Z" fill="white" fill-opacity="0.6"/>
<path d="M69.1921 67.0577C68.6526 67.9267 68.0749 68.7732 67.4626 69.5929V61.8531H69.1921V67.0577Z" fill="white" fill-opacity="0.6"/>
<path d="M72.5019 59.9607C72.749 59.2129 72.971 58.4523 73.1644 57.6893H67.4626V59.0729H68.3292C69.8498 59.0321 71.5459 59.013 72.5019 59.9607Z" fill="white" fill-opacity="0.6"/>
<path d="M33.0003 57.5007H34.546V72.9666H33.0003V57.5007Z" fill="white" fill-opacity="0.6"/>
<path fill-rule="evenodd" clip-rule="evenodd" d="M29.4374 54.517H34.546C35.8637 54.517 36.7827 54.788 37.3234 55.2964C37.8629 55.7966 38.1076 56.7031 38.1076 58.008V72.4548C38.1076 73.7672 37.8629 74.6734 37.3234 75.1777C36.5118 75.9753 35.0258 75.9753 33.7821 75.9753C33.5111 75.949 33.2402 75.949 33.0003 75.949V82.7978C33.5111 82.899 34.0244 82.99 34.546 83.0679V77.4425C36.8949 77.4425 38.4394 76.6518 39.1616 75.061V83.4331L39.3752 83.4376L39.6712 83.4406C39.9947 83.4406 40.3181 83.437 40.6416 83.4259V58.2792C40.6416 56.9436 40.9173 56.0111 41.4246 55.4808C41.6669 55.2269 42.0023 55.0338 42.426 54.9008C42.8951 54.7534 43.474 54.68 44.1555 54.68C44.3334 54.68 44.5219 54.6764 44.7177 54.6728C45.9829 54.6495 47.5513 54.6209 48.4214 55.4808C48.937 56.0111 49.1745 56.9436 49.1745 58.2792V65.6842H45.6749V57.7672H44.1555V83.155C44.3763 83.1273 44.5959 83.0965 44.8156 83.064C45.1008 83.0219 45.3861 82.9763 45.6749 82.9294V67.1774H49.1745V82.1288C49.899 81.9256 50.6104 81.6997 51.3087 81.4559V67.7688C51.3087 66.2231 51.687 65.0498 53.2864 64.5193L51.5247 54.996H55.0661L55.6569 65.3957H56.0902L56.6846 54.996H60.4157L58.4165 64.5193C60.0911 65.1023 60.4157 66.1142 60.4157 67.7688V76.6082C61.4541 75.8407 62.4472 75.0127 63.3853 74.1327V54.9169H73.7552C73.8256 54.4621 73.8949 53.9957 73.9533 53.5329H49.6866L50.0315 55.252C49.2617 53.8603 47.8043 53.1602 45.6749 53.1602H44.1555C41.5833 53.1602 40.0197 54.1691 39.4313 56.1851C38.8775 54.0748 37.2494 53.0256 34.546 53.0256H27.8977V81.407C28.1842 81.5108 28.473 81.6087 28.7642 81.7039L29.3479 81.8931L29.4374 81.9226V54.517ZM61.6546 65.4479L59.9812 63.8717L61.6546 55.3311V65.4479Z" fill="white" fill-opacity="0.6"/>
<path d="M56.6595 79.0365C56.1367 79.3272 55.6044 79.605 55.0649 79.8717V67.3361H56.6595V79.0365Z" fill="white" fill-opacity="0.6"/>
</svg>
