<svg width="497" height="102" viewBox="0 0 497 102" fill="none" xmlns="http://www.w3.org/2000/svg">
<g opacity="0.6">
<path d="M202.942 72.925C210.921 86.6032 222.167 93.962 244.302 101.421C250.048 99.6992 253.017 98.7048 257.818 96.8619V79.2756C253.224 81.9776 250.277 83.1637 244.302 84.6492C226.228 80.2526 213.689 68.5284 213.689 53.7103L257.655 33.5187C247.128 29.5545 240.883 29.1221 230.95 33.8443V41.9861C224.583 41.7635 220.779 40.1861 213.689 35.4727V26.6795C226.716 16.9094 240.557 14.1411 257.981 18.2121V0.951386C234.695 -2.30544 212.712 2.90545 198.871 14.9553C198.871 14.9553 198.057 54.5245 198.871 59.7352C199.685 64.946 200.99 69.129 202.942 72.925Z" fill="white"/>
<path d="M257.818 48.8253L230.95 61.038C231.276 64.4575 238.074 68.7882 244.465 70.8081C252.703 67.6774 255.816 65.7374 257.818 61.8521V48.8253Z" fill="white"/>
<circle cx="285.627" cy="71.7852" r="12.8641" fill="white"/>
</g>
</svg>
