<svg width="268" height="92" viewBox="0 0 268 92" fill="none" xmlns="http://www.w3.org/2000/svg">
<g filter="url(#filter0_b_52_428)">
<path d="M134.917 10.084C134.61 10.0221 134.297 9.99427 133.984 10.001H133.809C127.156 10.0039 120.637 11.8631 114.982 15.3695C109.328 18.876 104.764 23.8907 101.802 29.85C105.221 26.2682 110.593 22.7401 117.852 19.3147C121.144 17.7657 128.367 14.3598 132.324 11.9849C132.978 11.5891 135.064 10.1573 134.917 10.084Z" fill="white" fill-opacity="0.6"/>
<path d="M137.272 58.4997C124.333 63.8749 113.163 68.5708 112.674 73.6479C112.634 74.1299 112.69 74.6151 112.84 75.0748C103.531 68.3949 99.7848 59.0959 99.0423 54.136C98.2804 49.0247 105.836 44.5194 119.161 38.465C122.931 36.7645 126.883 35.103 130.712 33.5003C143.656 28.1251 154.821 23.4291 155.309 18.352C155.356 17.8659 155.303 17.3754 155.153 16.9105C164.463 23.6051 168.209 32.9041 168.951 37.8639C169.713 42.9752 162.152 47.4757 148.833 53.5301C145.291 55.1423 141.545 56.7108 137.903 58.2356L137.272 58.4997Z" fill="white" fill-opacity="0.6"/>
<path d="M103.976 29.5373L103.521 29.9673L103.194 30.2898L103.106 30.3777L102.828 30.666L101.294 32.4496L101.045 32.7868L101.001 32.8454L100.757 33.1973C100.343 33.8044 99.9768 34.4433 99.6628 35.1079C99.3977 36.0072 99.1921 36.9229 99.0474 37.8492C98.686 40.2632 100.137 42.5989 103.604 45.179C107.512 42.4475 113.124 39.7647 118.624 37.2677C122.37 35.5672 126.326 33.9107 130.155 32.3128L132.319 31.4088C125.266 28.4182 118.37 25.2713 115.004 22.1879C110.648 24.4553 107.116 26.7666 104.498 29.0682L104.073 29.4493L103.976 29.5373Z" fill="white" fill-opacity="0.6"/>
<path d="M118.741 68.6393C117.649 69.3101 116.625 70.0859 115.683 70.9555L115.561 71.0679L115.434 71.1999L115.385 71.2536C115.152 71.4965 114.935 71.7544 114.736 72.0257L114.36 72.6316C114.273 72.7889 114.198 72.9522 114.135 73.1203L114.057 73.3744V74.2197L114.086 74.4152V74.4836L114.316 75.1091L114.36 75.197L114.404 75.2752L114.462 75.3681L115 76.062L115.004 76.0667C115.11 76.1773 115.211 76.2834 115.322 76.3845L116.201 77.0979L116.343 77.2005L116.426 77.2591L116.611 77.3862C116.843 77.5393 117.088 77.6892 117.349 77.8358L117.422 77.8748C117.71 78.0263 118.008 78.1778 118.311 78.3244L118.38 78.3586C123.054 80.5331 129.867 81.486 133.154 80.9973C133.761 80.5002 134.402 80.0478 135.074 79.6438C135.062 79.5559 135.042 79.4693 135.015 79.3848C134.59 78.2365 132.246 74.8794 118.741 68.6393Z" fill="white" fill-opacity="0.6"/>
<path d="M137.823 59.6821C141.663 58.0793 145.629 56.4179 149.385 54.7125C154.879 52.2155 160.487 49.5328 164.399 46.8061C167.867 49.3813 169.317 51.7219 168.956 54.1359C168.849 55.0726 168.641 55.9951 168.336 56.887C167.98 57.7097 167.521 58.4832 166.968 59.1885L166.665 59.599C166.531 59.7864 166.381 59.9697 166.222 60.1638L166.177 60.2196L165.718 60.7522L165.493 60.9965L163.486 62.9511L163.041 63.3372L162.606 63.6988L162.538 63.7525L162.006 64.1777L161.517 64.549L161.444 64.6028C158.78 66.5659 155.958 68.3065 153.009 69.8069C149.643 66.7235 142.742 63.5717 135.689 60.5763L137.823 59.6821Z" fill="white" fill-opacity="0.6"/>
<path d="M133.081 81.916C133.388 81.9779 133.701 82.0057 134.014 81.999H134.19C140.845 81.9981 147.367 80.1382 153.022 76.6286C158.677 73.1191 163.24 68.0995 166.197 62.1353C162.778 65.722 157.405 69.2501 150.147 72.6707C146.855 74.2197 139.636 77.6207 135.68 80.0004C134.454 80.7481 132.759 81.8769 133.081 81.916Z" fill="white" fill-opacity="0.6"/>
<path d="M149.375 23.2776H149.106C135.738 17.0814 133.413 13.744 133.057 12.5712C133.03 12.4898 133.011 12.4065 132.998 12.322C133.67 11.9168 134.312 11.4627 134.917 10.9635C135.59 10.8608 136.269 10.8118 136.949 10.8169C141.357 10.9221 145.704 11.8761 149.751 13.6267C149.89 13.7007 150.027 13.7717 150.165 13.8429C150.336 13.9316 150.508 14.0205 150.684 14.1153L151.08 14.345C151.207 14.4183 151.329 14.4965 151.446 14.5747L151.68 14.7359L151.749 14.7848L152.882 15.7034L152.95 15.767L153.331 16.1921L153.38 16.2556L153.81 16.9446L153.844 17.0179L153.932 17.2476V17.3258L153.976 17.4919V18.3813L153.932 18.5865V18.6598L153.805 19.0312L153.732 19.1973L153.199 20.0573C153.102 20.1893 152.989 20.3261 152.897 20.4336L152.301 21.0542L151.905 21.4158L151.588 21.6845L150.762 22.3247C150.352 22.6423 149.863 22.9599 149.375 23.2776Z" fill="white" fill-opacity="0.6"/>
</g>
<defs>
<filter id="filter0_b_52_428" x="38.9897" y="-50" width="190.02" height="192" filterUnits="userSpaceOnUse" color-interpolation-filters="sRGB">
<feFlood flood-opacity="0" result="BackgroundImageFix"/>
<feGaussianBlur in="BackgroundImageFix" stdDeviation="30"/>
<feComposite in2="SourceAlpha" operator="in" result="effect1_backgroundBlur_52_428"/>
<feBlend mode="normal" in="SourceGraphic" in2="effect1_backgroundBlur_52_428" result="shape"/>
</filter>
</defs>
</svg>
