<svg width="81" height="81" viewBox="0 0 81 81" fill="none" xmlns="http://www.w3.org/2000/svg">
<path fill-rule="evenodd" clip-rule="evenodd" d="M80.5905 42.2305C79.5485 63.3927 62.0604 80.2305 40.6396 80.2305C18.5483 80.2305 0.639648 62.3219 0.639648 40.2305C0.639648 18.1391 18.5483 0.230469 40.6396 0.230469C62.0604 0.230469 79.5485 17.0682 80.5905 38.2305H17.6661L26.9798 28.9168C27.7608 28.1357 27.7608 26.8694 26.9798 26.0883C26.1987 25.3073 24.9324 25.3073 24.1514 26.0883L11.4234 38.8163C10.6424 39.5973 10.6424 40.8636 11.4234 41.6447L24.1514 54.3726C24.9324 55.1537 26.1987 55.1537 26.9798 54.3726C27.7608 53.5916 27.7608 52.3252 26.9798 51.5442L17.6661 42.2305H80.5905Z" fill="white"/>
</svg>
