<svg width="31" height="31" viewBox="0 0 31 31" fill="none" xmlns="http://www.w3.org/2000/svg">
<g clip-path="url(#clip0_341_4238)">
<path fill-rule="evenodd" clip-rule="evenodd" d="M30.6787 15.3691C30.6787 23.6534 23.963 30.3691 15.6787 30.3691C7.39444 30.3691 0.678711 23.6534 0.678711 15.3691C0.678711 7.08487 7.39444 0.369141 15.6787 0.369141C23.963 0.369141 30.6787 7.08487 30.6787 15.3691ZM16.2162 11.4428C14.7573 12.0496 11.8414 13.3056 7.46858 15.2108C6.7585 15.4932 6.38653 15.7694 6.35267 16.0395C6.29544 16.496 6.8671 16.6758 7.64556 16.9205C7.75144 16.9538 7.86116 16.9883 7.97363 17.0249C8.73951 17.2739 9.76974 17.5651 10.3053 17.5767C10.7911 17.5872 11.3334 17.3869 11.932 16.9758C16.0177 14.2179 18.1267 12.8239 18.2591 12.7939C18.3525 12.7726 18.482 12.746 18.5697 12.8239C18.6574 12.9019 18.6488 13.0495 18.6395 13.0891C18.5828 13.3306 16.3389 15.4168 15.1776 16.4964C14.8156 16.8329 14.5588 17.0717 14.5063 17.1262C14.3887 17.2483 14.2689 17.3639 14.1537 17.4749C13.4422 18.1608 12.9086 18.6752 14.1832 19.5151C14.7958 19.9188 15.2859 20.2526 15.7749 20.5856C16.3089 20.9492 16.8416 21.312 17.5307 21.7637C17.7063 21.8788 17.874 21.9984 18.0373 22.1148C18.6588 22.5579 19.2171 22.9559 19.9069 22.8924C20.3078 22.8555 20.7218 22.4787 20.9321 21.3546C21.429 18.6981 22.4057 12.9422 22.6315 10.5704C22.6513 10.3626 22.6264 10.0966 22.6064 9.97986C22.5864 9.86311 22.5447 9.69678 22.3929 9.57364C22.2132 9.42781 21.9358 9.39706 21.8117 9.39925C21.2475 9.40918 20.3819 9.71016 16.2162 11.4428Z" fill="#0D1E29"/>
</g>
<defs>
<clipPath id="clip0_341_4238">
<rect width="30" height="30" fill="white" transform="translate(0.678711 0.369141)"/>
</clipPath>
</defs>
</svg>
