<svg width="156" height="92" viewBox="0 0 156 92" fill="none" xmlns="http://www.w3.org/2000/svg">
<path d="M74.4444 9.01216H81.1499V6H74.4444V9.01216Z" fill="white" fill-opacity="0.6"/>
<path d="M82.4742 20.0952H73.365V17.0593H82.4742V20.0952Z" fill="white" fill-opacity="0.6"/>
<path d="M56.087 22.9232C55.5101 22.7099 55.0929 22.1647 55.0929 21.5017C55.0929 20.6712 55.7409 20.0067 56.5737 20.0067C57.3829 20.0067 58.0308 20.6712 58.0308 21.5017C58.0308 22.1647 57.6373 22.7099 57.0589 22.9003L58.4686 25.8414H54.6773L56.087 22.9232Z" fill="white" fill-opacity="0.6"/>
<path d="M42.8215 23.0426L45.0403 20.0075L47.237 23.0426L45.0403 26.0784L42.8215 23.0426Z" fill="white" fill-opacity="0.6"/>
<path d="M113.901 30.7839H41.7437V27.7489H113.901V30.7839Z" fill="white" fill-opacity="0.6"/>
<path d="M89.0469 36.3136H97.023V64.6944H100.814V36.3136H108.583V64.6944H112.375V36.3136H113.9V33.2785H41.7437V36.3136H43.2703V64.6944H47.0616V36.3136H54.7832L54.8306 64.6944H58.5982V36.3136H66.5758V64.6944H70.3892V45.4378C70.3892 44.3766 70.4224 43.5738 70.5251 42.8831L70.5615 42.654L70.601 42.4525C70.6342 42.2976 70.6721 42.1475 70.7132 41.9997C71.2442 40.0551 72.401 38.0449 73.9039 37.1204C75.0355 36.4084 76.3788 36.1003 77.8106 36.1003C78.0887 36.1003 78.3653 36.1113 78.6371 36.1342C78.7667 36.1453 78.8947 36.1587 79.0227 36.1753C79.1175 36.188 79.2123 36.2014 79.3056 36.2172L79.4668 36.2456L79.6359 36.2796C80.1985 36.3989 80.7342 36.5799 81.2336 36.8351C82.9199 37.6893 84.2616 39.818 84.84 41.8101C85.1387 42.8065 85.2319 43.8258 85.2319 45.4378V64.6944H89.0469V36.3136Z" fill="white" fill-opacity="0.6"/>
<path fill-rule="evenodd" clip-rule="evenodd" d="M54.4639 78.321C54.0357 77.7332 53.4778 77.2986 52.8804 77.0354V76.9177C53.7117 76.4665 54.9602 75.3761 54.9602 73.1233C54.9602 70.6808 53.5268 69.3525 51.978 68.9258C51.0772 68.688 50.1749 68.6651 49.3657 68.6651H42.8215V86H49.2662L49.7007 85.996C50.0089 85.9913 50.3234 85.9795 50.6379 85.9534C51.1531 85.9099 51.6746 85.827 52.1851 85.6673C53.9187 85.1695 55.2842 83.5339 55.2842 80.9729C55.2842 79.9006 54.9633 79.0069 54.4639 78.321ZM51.0994 75.8265C50.6363 76.1109 50.0832 76.182 49.4795 76.182H45.5049V70.9645H49.3657C49.99 70.9645 50.4767 71.0127 50.8671 71.1794C51.6778 71.4631 52.2325 72.2454 52.2325 73.4314C52.2325 74.6412 51.7694 75.4472 51.0994 75.8265ZM51.1689 78.6964C51.8864 79.0038 52.4869 79.7157 52.4869 80.9729C52.4869 82.3478 51.9559 83.1775 51.0535 83.5339C50.9856 83.5583 50.9145 83.5805 50.8418 83.5994C50.7485 83.6239 50.6505 83.6437 50.5494 83.6603C50.4056 83.684 50.2539 83.6998 50.0974 83.7101L49.9346 83.718L49.666 83.7227H45.5049V78.4585H49.7118C50.1749 78.4585 50.7059 78.506 51.1689 78.6964Z" fill="white" fill-opacity="0.6"/>
<path fill-rule="evenodd" clip-rule="evenodd" d="M74.8869 85.9984L76.6901 83.4619L72.7582 83.5331V68.6643H67.1179L57.9154 85.9984H74.8869ZM70.1237 70.7748V83.6508H61.6846L68.3663 70.7748H70.1237Z" fill="white" fill-opacity="0.6"/>
<path d="M66.5395 25.6233H89.0105V22.5882H66.5395V25.6233Z" fill="white" fill-opacity="0.6"/>
<path d="M80.1116 11.5297H75.1635L77.6367 14.9448L80.1116 11.5297Z" fill="white" fill-opacity="0.6"/>
<path d="M94.4754 68.6643V85.9992H91.792V77.9599H83.2154V85.9992H80.5556V68.6643H83.2154V75.5886H91.792V68.6643H94.4754Z" fill="white" fill-opacity="0.6"/>
<path d="M97.5287 21.5017C97.5287 21.7569 97.5871 21.9948 97.6914 22.2018C97.7768 22.3693 97.8922 22.5171 98.0312 22.6364C98.1671 22.7526 98.3252 22.8426 98.499 22.9003L97.0893 25.8414H100.881L99.4709 22.9232C100.049 22.7099 100.465 22.1647 100.465 21.5017C100.465 20.6712 99.817 20.0067 98.9858 20.0067C98.6681 20.0067 98.3757 20.1086 98.1371 20.2825C98.0391 20.3544 97.9506 20.4381 97.8732 20.5314C97.8131 20.6033 97.761 20.6807 97.7152 20.7637C97.6899 20.8103 97.6662 20.8593 97.6456 20.9091C97.5713 21.0908 97.5287 21.2907 97.5287 21.5017Z" fill="white" fill-opacity="0.6"/>
<path d="M106.21 78.9319L101.563 85.9992H98.8815L104.939 77.0591L99.1596 68.6643H102.374L106.581 74.7826L110.579 68.6643H113.169L107.829 76.6324L114.257 85.9992H111.064L106.21 78.9319Z" fill="white" fill-opacity="0.6"/>
<path d="M110.423 20.0075L108.226 23.0434L110.423 26.0784L112.642 23.0434L110.423 20.0075Z" fill="white" fill-opacity="0.6"/>
</svg>
