<svg width="31" height="31" viewBox="0 0 31 31" fill="none" xmlns="http://www.w3.org/2000/svg">
<g clip-path="url(#clip0_341_4242)">
<path fill-rule="evenodd" clip-rule="evenodd" d="M2.49848 2.47797C0.389648 4.5868 0.389648 7.98089 0.389648 14.7691V15.9691C0.389648 22.7574 0.389648 26.1515 2.49848 28.2603C4.60731 30.3691 8.0014 30.3691 14.7896 30.3691H15.9896C22.7779 30.3691 26.172 30.3691 28.2808 28.2603C30.3896 26.1515 30.3896 22.7574 30.3896 15.9691V14.7691C30.3896 7.98089 30.3896 4.5868 28.2808 2.47797C26.172 0.369141 22.7779 0.369141 15.9896 0.369141H14.7896C8.0014 0.369141 4.60731 0.369141 2.49848 2.47797ZM5.45222 9.4942C5.61472 17.2942 9.51471 21.9817 16.3522 21.9817H16.7398V17.5192C19.2523 17.7692 21.1521 19.6067 21.9146 21.9817H25.4647C24.4897 18.4317 21.9271 16.4692 20.3271 15.7192C21.9271 14.7942 24.1771 12.5442 24.7146 9.4942H21.4895C20.7895 11.9692 18.7148 14.2192 16.7398 14.4317V9.4942H13.5146V18.1442C11.5146 17.6442 8.98971 15.2192 8.87721 9.4942H5.45222Z" fill="#0D1E29"/>
</g>
<defs>
<clipPath id="clip0_341_4242">
<rect width="30" height="30" fill="white" transform="translate(0.389648 0.369141)"/>
</clipPath>
</defs>
</svg>
