<svg width="130" height="93" viewBox="0 0 130 93" fill="none" xmlns="http://www.w3.org/2000/svg">
<path fill-rule="evenodd" clip-rule="evenodd" d="M30.4046 42.1789C29.4397 41.3483 28.3825 40.6896 27.2743 40.1979C27.7095 39.8357 28.1203 39.4368 28.5046 38.9982C32.4129 34.5251 31.9289 27.7518 27.424 23.8713C25.3775 22.1088 22.8554 21.2466 20.3461 21.2482L5.04492 21.2466V66.8216H34.7461V51.7226C34.7715 48.1927 33.2993 44.6744 30.4046 42.1789ZM28.4462 63.247H23.0454V48.0552H16.7456V63.247H11.3448V24.8211H17.6457C21.001 24.8211 23.8192 27.0998 24.6185 30.1829H18.5458V33.7574H24.6153C23.8171 36.8389 21.0042 39.1157 17.6521 39.1192H14.9453V42.6934H19.446C21.5371 42.6918 23.6388 43.4118 25.3446 44.8798C27.3943 46.6456 28.443 49.131 28.4473 51.6297L28.4462 63.247Z" fill="white" fill-opacity="0.6"/>
<path d="M65.0926 29.7673V45.025H60.7798V39.0746H54.8992V45.025H50.5865V29.7673H54.8992V35.4998H60.7798V29.7673H65.0926Z" fill="white" fill-opacity="0.6"/>
<path d="M72.0251 45.2561C72.145 45.2683 72.265 45.2789 72.386 45.2882C72.7511 45.3158 73.1205 45.3299 73.492 45.3299C74.9441 45.3299 76.1786 45.112 77.1955 44.676C78.2114 44.2257 78.9735 43.6296 79.4819 42.8887C79.9904 42.1476 80.2441 41.3193 80.2441 40.4038C80.2441 39.3431 79.9617 38.5075 79.3949 37.8972C78.8429 37.2725 78.1827 36.8219 77.4131 36.5459C76.6574 36.255 75.6999 35.9865 74.5376 35.7394C73.5069 35.5213 72.7586 35.3106 72.2947 35.1073C71.8298 34.9038 71.5973 34.5986 71.5973 34.1918C71.5973 33.785 71.7937 33.4581 72.1854 33.211C72.577 32.9493 73.2023 32.8185 74.0589 32.8185C75.4239 32.8185 76.8325 33.211 78.2846 33.9957L79.6125 30.7914C78.8727 30.3556 78.015 30.0287 77.0427 29.8106C76.5257 29.6872 76.0056 29.5967 75.4812 29.5388C75.0174 29.4876 74.5503 29.4619 74.0801 29.4619C73.3148 29.4619 72.61 29.5213 71.9667 29.6402C71.3786 29.749 70.8415 29.9074 70.3554 30.1157C69.3544 30.5517 68.5986 31.1475 68.0902 31.903C67.5828 32.6442 67.3281 33.4798 67.3281 34.4097C67.3281 35.4704 67.604 36.3134 68.156 36.9381C68.3513 37.1586 68.5594 37.3585 68.7812 37.5373C68.9447 37.6692 69.1156 37.7897 69.2939 37.899C69.5582 38.0614 69.8406 38.1989 70.1378 38.3114C70.9073 38.5874 71.8659 38.849 73.0133 39.0961C74.0589 39.3286 74.8136 39.5538 75.2785 39.7717C75.7572 39.9753 75.9971 40.2948 75.9971 40.7308C75.9971 41.559 75.1692 41.9732 73.5143 41.9732C73.0069 41.9732 72.4953 41.9265 71.9784 41.8328C71.6069 41.7657 71.2332 41.6744 70.8564 41.559C69.9563 41.283 69.1655 40.9197 68.4829 40.4691L67.0669 43.6514C67.793 44.1601 68.7366 44.5669 69.8989 44.8721C70.0751 44.9183 70.2524 44.9613 70.4297 45.0005L70.6303 45.043L70.7747 45.0719C71.1865 45.1521 71.6037 45.2134 72.0251 45.2561Z" fill="white" fill-opacity="0.6"/>
<path d="M94.4785 41.6901V45.025H82.2375V29.7673H94.1951V33.1022H86.5068V35.6742H93.2801V38.9002H86.5068V41.6901H94.4785Z" fill="white" fill-opacity="0.6"/>
<path fill-rule="evenodd" clip-rule="evenodd" d="M57.796 51.5636H50.5865V66.8213H57.796C59.4657 66.8213 60.9465 66.509 62.2393 65.884C63.5312 65.2593 64.5332 64.3727 65.2454 63.225C65.9566 62.077 66.3122 60.7327 66.3122 59.1925C66.3122 57.6523 65.9566 56.3079 65.2454 55.1602C64.5332 54.0122 63.5312 53.1256 62.2393 52.5009C60.9465 51.8762 59.4657 51.5636 57.796 51.5636ZM60.7586 62.266C59.9741 63.0069 58.9286 63.3776 57.6219 63.3776H54.8992V55.0076H57.6219C57.9828 55.0076 58.3236 55.0357 58.6441 55.092C58.7322 55.1074 58.8182 55.1249 58.9031 55.1445C58.9774 55.1618 59.0507 55.1806 59.1218 55.2011C59.7555 55.3812 60.3011 55.6872 60.7586 56.1192C61.5568 56.8601 61.9559 57.8847 61.9559 59.1925C61.9559 60.5002 61.5568 61.5248 60.7586 62.266Z" fill="white" fill-opacity="0.6"/>
<path d="M68.3853 55.0076H72.524V66.8213H68.3853V55.0076Z" fill="white" fill-opacity="0.6"/>
<path d="M70.4541 53.6999C70.1983 53.6999 69.9594 53.6757 69.7365 53.6274C69.3024 53.5329 68.9319 53.3464 68.6252 53.0678C68.1602 52.6464 67.9278 52.123 67.9278 51.4984C67.9278 50.8737 68.1602 50.3504 68.6252 49.929C68.7271 49.8369 68.8353 49.7549 68.951 49.6827C69.0593 49.6148 69.174 49.5559 69.295 49.506C69.3905 49.4664 69.4903 49.4327 69.5943 49.4046C69.8565 49.333 70.1431 49.2969 70.4541 49.2969C71.2099 49.2969 71.8192 49.5004 72.2841 49.9072C72.749 50.2994 72.9804 50.8081 72.9804 51.4328C72.9804 52.087 72.749 52.6318 72.2841 53.0678C72.0739 53.2583 71.834 53.4058 71.5644 53.5101C71.4391 53.5587 71.3075 53.598 71.1695 53.6277C70.9466 53.6757 70.7088 53.6999 70.4541 53.6999Z" fill="white" fill-opacity="0.6"/>
<path fill-rule="evenodd" clip-rule="evenodd" d="M87.9122 64.6638V55.0079H83.9688V56.4464C83.1854 55.3566 81.9509 54.8118 80.2664 54.8118C79.2208 54.8118 78.2559 55.0517 77.3696 55.5312C76.4843 55.9961 75.7795 56.6646 75.2573 57.5363C74.734 58.3937 74.4728 59.3817 74.4728 60.5007C74.4728 61.6341 74.734 62.6367 75.2573 63.5087C75.7795 64.3661 76.4843 65.0343 77.3696 65.5138C78.2559 65.979 79.2208 66.2115 80.2664 66.2115C81.8055 66.2115 82.9753 65.7463 83.7735 64.8164V65.2089C83.7735 66.1534 83.5187 66.8653 83.0114 67.3449C82.5029 67.8244 81.7036 68.0643 80.6145 68.0643C80.2112 68.0643 79.8036 68.0269 79.3907 67.952C79.2049 67.9183 79.0181 67.8769 78.8313 67.8284C78.7007 67.7944 78.5691 67.7567 78.4375 67.7153C78.2559 67.6607 78.0819 67.6004 77.9152 67.5349C77.8292 67.5012 77.7454 67.4659 77.6636 67.4293C77.5214 67.3656 77.3855 67.2974 77.256 67.2249C77.0278 67.097 76.8187 66.9553 76.6287 66.8001L75.1267 69.699C75.8379 70.2077 76.7019 70.5927 77.7178 70.8541C78.7347 71.1158 79.8237 71.2466 80.985 71.2466C83.2215 71.2466 84.9347 70.6944 86.1257 69.5899C87.3167 68.5 87.9122 66.8579 87.9122 64.6638ZM83.0761 62.2445C82.5974 62.6948 81.987 62.9201 81.2472 62.9201C80.5063 62.9201 79.8895 62.6948 79.3949 62.2445C79.1837 62.0513 79.017 61.834 78.896 61.5925C78.8355 61.4717 78.7867 61.3451 78.7495 61.2125C78.7113 61.0784 78.6848 60.9383 78.6699 60.7918C78.6604 60.6974 78.6551 60.6003 78.6551 60.5007C78.6551 59.7888 78.8939 59.2148 79.3737 58.7788C79.448 58.7111 79.5255 58.6485 79.6051 58.5911C79.8163 58.4396 80.0477 58.3231 80.2993 58.2422C80.3693 58.2196 80.4405 58.2 80.5137 58.183C80.6209 58.1583 80.7313 58.1392 80.8449 58.1259C80.9744 58.1108 81.1081 58.1031 81.2472 58.1031C82.0019 58.1031 82.6186 58.3284 83.0984 58.7788C83.5771 59.2148 83.817 59.7888 83.817 60.5007C83.817 61.2127 83.5697 61.7941 83.0761 62.2445Z" fill="white" fill-opacity="0.6"/>
<path d="M94.7099 55.0076V66.8213H90.5712V55.0076H94.7099Z" fill="white" fill-opacity="0.6"/>
<path d="M92.64 53.6999C91.8853 53.6999 91.2749 53.4892 90.8111 53.0678C90.6752 52.9444 90.5584 52.8122 90.4618 52.6716C90.3706 52.5375 90.2973 52.3958 90.2421 52.2462C90.1561 52.0156 90.1137 51.7664 90.1137 51.4984C90.1137 50.8737 90.3461 50.3504 90.8111 49.929C91.2749 49.5076 91.8853 49.2969 92.64 49.2969C93.3958 49.2969 94.0051 49.5004 94.47 49.9072C94.5825 50.0022 94.6812 50.1041 94.7672 50.2127C94.8457 50.3127 94.9126 50.4186 94.9678 50.53C95.1005 50.7978 95.1674 51.0987 95.1674 51.4328C95.1674 52.087 94.9349 52.6318 94.47 53.0678C94.0051 53.4892 93.3958 53.6999 92.64 53.6999Z" fill="white" fill-opacity="0.6"/>
<path d="M104.93 66.6432C105.157 66.5567 105.362 66.4564 105.544 66.342L104.52 63.4431C104.158 63.6902 103.737 63.8136 103.257 63.8136C102.88 63.8136 102.575 63.6974 102.343 63.4649C102.228 63.3349 102.143 63.181 102.089 63.0029C102.04 62.8424 102.016 62.6622 102.016 62.4623V58.5389H104.716V55.4436H102.016V52.3704H97.8773V55.4436H96.1567V58.5389H97.8773V62.5059C97.8773 64.0025 98.2913 65.1288 99.1192 65.8843C99.1787 65.9384 99.2402 65.9907 99.3029 66.0408C99.391 66.1112 99.4823 66.1775 99.5778 66.2401C99.8209 66.4009 100.088 66.5368 100.379 66.6477C100.506 66.6958 100.636 66.7393 100.771 66.778C101.328 66.9378 101.961 67.0177 102.669 67.0177C103.236 67.0177 103.765 66.9598 104.259 66.8433C104.501 66.7881 104.724 66.7215 104.93 66.6432Z" fill="white" fill-opacity="0.6"/>
<path fill-rule="evenodd" clip-rule="evenodd" d="M113.634 54.9068C114.323 55.0026 114.936 55.1713 115.474 55.4128C115.921 55.6129 116.316 55.8632 116.659 56.1633C117.69 57.0496 118.206 58.4155 118.206 60.2608V66.8218H114.35V65.296C113.755 66.4439 112.594 67.0179 110.866 67.0179C109.951 67.0179 109.16 66.8579 108.491 66.5384C107.823 66.2186 107.315 65.7901 106.967 65.2524C106.632 64.7002 106.466 64.0753 106.466 63.3779C106.466 62.2588 106.893 61.3945 107.751 60.7842C108.608 60.1592 109.929 59.8469 111.715 59.8469H114.067C113.995 58.597 113.159 57.9723 111.563 57.9723C110.996 57.9723 110.423 58.0668 109.842 58.2557C109.261 58.4301 108.767 58.6771 108.36 58.9966L106.967 56.185C107.621 55.749 108.411 55.4147 109.341 55.1822C109.973 55.0169 110.604 54.907 111.236 54.8524C111.548 54.8253 111.86 54.8118 112.172 54.8118C112.692 54.8118 113.18 54.8433 113.634 54.9068ZM112.019 64.4022C112.499 64.4022 112.919 64.286 113.284 64.0535C113.498 63.916 113.676 63.7406 113.82 63.5273C113.919 63.3795 114.002 63.2133 114.067 63.0292V62.0046H112.282C111.5 62.0046 110.973 62.1723 110.698 62.508C110.548 62.6903 110.474 62.9222 110.474 63.2035C110.474 63.5668 110.611 63.8574 110.887 64.0753C111.163 64.2934 111.541 64.4022 112.019 64.4022Z" fill="white" fill-opacity="0.6"/>
<path d="M124.956 50.6481H120.817V66.8213H124.956V50.6481Z" fill="white" fill-opacity="0.6"/>
</svg>
