<svg width="233" height="94" viewBox="0 0 233 94" fill="none" xmlns="http://www.w3.org/2000/svg">
<path fill-rule="evenodd" clip-rule="evenodd" d="M156.763 47.0273C156.763 24.9645 138.812 7.02148 116.755 7.02148C94.6992 7.02148 76.7529 24.9645 76.7529 47.0273C76.7529 69.0817 94.6992 87.0215 116.755 87.0215C138.812 87.0215 156.763 69.0817 156.763 47.0273ZM155.38 47.0273C155.38 68.3212 138.057 85.6423 116.755 85.6423C95.4629 85.6423 78.1334 68.3212 78.1334 47.0273C78.1334 25.7211 95.4629 8.39671 116.755 8.39671C138.057 8.39671 155.38 25.7211 155.38 47.0273ZM145.032 56.0672C145.265 55.4179 145.506 54.6757 145.506 54.6757C145.506 54.6757 134.935 60.3288 122.988 60.3288C117.376 60.3288 113.937 59.5111 111.428 58.9106C117.06 57.8776 124.134 57.0221 132.149 55.0048C136.181 53.977 141.133 51.6409 143.376 49.6679C145.334 47.9251 146.809 45.6859 146.329 43.3818C146.201 42.7429 145.384 41.2961 144.334 40.7907C145.334 39.5312 145.229 38.4618 145.097 37.4996C145.014 36.7736 144.682 35.9819 144.224 35.2898C143.6 34.4421 142.998 33.8137 141.726 33.0526C141.914 31.9792 141.737 31.0119 141.333 30.1486C140.331 28.4344 138.567 26.9877 135.51 25.4459C135.348 24.8025 134.978 23.9991 134.338 23.2419C130.479 19.42 124.189 17.5692 118.89 17.4853C112.247 17.3715 106.942 18.8118 103.703 20.2878C102.113 21.0164 100.896 21.7795 99.6485 22.592C109.481 18.2653 121.488 18.5307 127.915 21.4126C129.915 22.3168 131.301 22.8834 131.877 24.0232C125.244 22.2368 122.344 21.9213 116.755 22.0254C108.84 22.1854 98.2765 25.3483 94.2211 27.7182L92.4568 29.9222C98.2531 26.4959 109.106 24.2554 115.14 24.0876C121.852 23.9776 127.038 24.5859 131.824 26.3078C131.553 27.5666 130.974 28.1424 129.915 28.7539C110.747 25.4459 99.4409 29.3543 89.2132 36.058L88.4398 38.2477C99.856 30.3867 113.862 28.2373 127.344 30.6053C122.504 32.2986 116.722 32.6558 111.891 33.776C107.756 34.7401 105.542 35.0107 100.063 36.8224C94.4481 38.679 91.1792 40.5474 89.0942 42.9472C88.1132 44.0778 87.3495 45.3828 87.1732 46.8146C87.1029 47.6427 87.1472 48.3759 87.3996 49.1676C87.6364 49.8136 88.1529 50.468 88.7253 51.1029C88.0748 52.2336 87.4939 53.6934 88.4352 55.3893C88.8847 56.1999 89.9282 57.0007 90.9638 57.7514C90.8493 58.0266 90.7667 58.3115 90.7166 58.614C90.5442 59.5846 90.4109 60.7321 91.0757 61.7606C92.1953 63.5138 93.5504 64.6763 95.7036 65.8089C96.0393 67.27 96.5682 68.4702 97.6806 69.5C100.086 71.7099 105.451 75.9175 114.972 76.5596C122.132 77.028 127.24 74.8819 129.177 73.9386L131.502 72.7195C127.519 74.3094 120.803 75.2566 115.297 74.8006C107.322 74.1461 100.175 68.9334 99.3167 67.4255C99.5886 67.6011 99.9633 67.7514 100.264 67.8847C109.609 72.3929 121.69 74.8201 137.136 68.5659L138.423 67.3266C124.396 71.6839 112.053 71.5336 98.8899 64.6548C98.9992 64.0121 99.3017 63.4149 99.9223 62.9732C103.295 64.4447 106.508 65.7003 110.475 66.4672C115.055 67.3383 120.349 67.497 124.671 67.3201C129.019 67.1399 137.683 64.9743 141.774 62.8353C142.149 62.4957 142.336 61.9109 142.703 61.5479C134.696 64.4447 125.224 65.8239 119.506 65.3984C113.887 64.9944 108.934 64.325 102.368 61.3371C103.619 60.7777 104.922 60.3633 106.249 60.0178C110.562 61.3371 114.962 62.1191 120.205 62.3604C125.352 62.5959 137.447 60.656 145.032 56.0672ZM95.3198 57.7078C95.7843 57.2628 96.3698 56.8315 97.0216 56.4249C98.469 57.0904 99.8898 57.7182 101.279 58.292C100.264 58.696 99.3811 59.1273 98.6525 59.5638C97.5232 58.9724 96.4231 58.3453 95.3198 57.7078ZM96.1863 52.6967C95.0479 52.067 94.4169 51.8595 93.3975 51.0424C97.06 47.9329 104.492 46.1738 107.253 45.5773C115.933 43.6875 124.022 42.5322 127.329 41.704C131.37 40.6833 134.198 39.7388 136.165 38.8287C136.273 38.6862 139.458 40.2234 139.803 40.6079C138.684 41.4776 137.182 42.2225 135.57 42.808C130.611 44.5839 121.676 46.4555 116.907 47.1978C112.114 47.9557 108.145 48.5763 102.811 49.9957C99.7506 50.8115 97.7092 51.7235 96.1863 52.6967ZM94.0734 60.0178C94.8566 60.4953 95.6698 60.9598 96.4979 61.3781C96.1492 61.8374 95.9313 62.1932 95.7843 62.6766C94.5912 61.7001 94.0519 60.9058 94.0734 60.0178ZM91.4114 53.3551C92.14 53.8599 92.7365 54.1995 93.5998 54.6815C93.2602 54.9918 92.8757 55.2624 92.542 55.5955C91.7555 55.144 91.0172 54.2034 91.4114 53.3551ZM131.179 37.0488C120.807 39.8032 110.562 40.6879 100.802 43.5444C92.8705 45.8713 90.7999 48.7799 90.7999 48.7161C87.3098 43.9217 99.4065 40.5057 101.698 39.8123C107.56 38.0773 114.395 36.7261 120.62 35.9897C124.908 35.494 127.126 35.9566 131.179 37.0488ZM137.398 33.5646C137.117 33.9594 135.322 35.6411 134.922 35.44C132.71 34.8051 130.734 34.0778 128.101 33.6094C129.671 32.9979 130.769 32.3337 131.709 31.5798C133.819 32.1457 135.81 32.8529 137.398 33.5646ZM138.128 31.1576C136.708 30.6209 135.234 30.0803 133.761 29.6971C134.253 29.1747 134.968 28.411 135.134 27.7442C136.437 28.5932 137.96 29.8572 138.128 31.1576ZM141.741 38.4891C140.893 37.8952 140.019 37.5374 139.049 37.0605C139.65 36.5876 140.218 36.075 140.702 35.494C141.977 36.5668 142.352 37.3266 141.741 38.4891ZM105.127 56.9441C103.418 56.2922 101.752 55.5688 100.19 54.7869C101.752 54.15 103.448 53.5997 105.055 53.2113C113.35 51.1856 120.64 50.7861 130.683 48.0845C135.524 46.7957 139.015 45.4361 141.223 43.7291C141.587 43.4572 141.909 43.212 142.208 42.9543C145.122 47.4795 134.179 50.9292 126.713 52.5211C122.573 53.3993 116.849 54.3972 114.991 54.7153C110.117 55.5415 108.485 55.9832 105.127 56.9441Z" fill="white" fill-opacity="0.6"/>
</svg>
