<svg width="483" height="92" viewBox="0 0 483 92" fill="none" xmlns="http://www.w3.org/2000/svg">
<path d="M215.677 12.8034L152.961 0V59.3072H155.261V2.79357L215.212 15.0325L215.677 12.8034Z" fill="white" fill-opacity="0.6"/>
<path d="M241.174 66.9344V89.2204L212.852 83.5817L212.398 85.8131L243.474 92V66.9344H241.174Z" fill="white" fill-opacity="0.6"/>
<path d="M196.252 47.9678C198.244 47.2366 200.482 47.5342 201.663 47.7026C203.702 47.9935 205.395 49.1937 206.556 50.5344C207.693 51.8461 208.488 53.4903 208.488 54.8699H206.188C206.188 54.2369 205.75 53.1012 204.81 52.0159C203.895 50.9595 202.668 50.1456 201.335 49.9555C200.111 49.7808 198.426 49.5973 197.052 50.1017C196.403 50.3403 195.843 50.7269 195.426 51.3499C195.002 51.9825 194.668 52.9439 194.629 54.4205C194.541 57.7055 194.607 58.3049 194.774 59.8257L194.774 59.8295C194.909 61.0617 195.478 62.8312 196.678 64.2167C197.837 65.5546 199.616 66.5796 202.362 66.3928C204.479 66.2489 205.353 65.4278 205.752 64.7995C205.969 64.4565 206.08 64.1144 206.136 63.8509C206.164 63.7204 206.177 63.6135 206.183 63.5419C206.185 63.5189 206.186 63.4997 206.187 63.4847L206.188 63.4638L206.188 63.4478L206.188 63.4433H208.488C208.488 63.5836 208.482 64.7771 207.7 66.0098C206.874 67.3116 205.299 68.4746 202.52 68.6636C199.006 68.9025 196.535 67.5496 194.932 65.6981C193.369 63.8943 192.662 61.6631 192.488 60.0752C192.307 58.4326 192.24 57.731 192.329 54.3605C192.377 52.5752 192.788 51.1677 193.509 50.0922C194.236 49.0073 195.219 48.347 196.252 47.9678Z" fill="white" fill-opacity="0.6"/>
<path d="M175.98 28.3648L184.128 38.6956H181.241L173.987 29.5317H170.942V38.6956H168.642V18.0917H170.942V27.2556H173.957L180.562 18.0917L183.364 18.0917L175.98 28.3648Z" fill="white" fill-opacity="0.6"/>
<path d="M231.962 23.8745H220.234V38.6956H222.534V26.1506H229.662V38.6956H231.962V23.8745Z" fill="white" fill-opacity="0.6"/>
<path d="M312.376 23.9656H315.504V38.6956H313.204V27.1273L305.516 38.709H302.729V23.9173H305.029V36.0796L312.376 23.9656Z" fill="white" fill-opacity="0.6"/>
<path fill-rule="evenodd" clip-rule="evenodd" d="M275.723 23.5734C273.282 23.5734 271.664 24.0136 270.683 24.9222C269.652 25.8767 269.6 27.0911 269.6 27.8105H271.9C271.9 27.176 271.977 26.841 272.254 26.5844C272.581 26.282 273.45 25.8495 275.723 25.8495C276.761 25.8495 277.41 26.0452 277.822 26.2864C278.219 26.5186 278.479 26.8408 278.66 27.2626C278.851 27.7057 278.952 28.2557 278.997 28.9048C279.018 29.1956 279.026 29.487 279.029 29.7825H273.5C272.362 29.7825 271.149 30.0895 270.221 30.9885C269.287 31.8942 268.814 33.2322 268.814 34.9376C268.814 37.6225 271.224 39.3055 273.768 39.3636C275.529 39.4038 277.414 38.7176 279.028 37.1657V38.6956H281.328V30.9205L281.328 30.8097C281.328 30.7251 281.328 30.6381 281.329 30.5491V30.547C281.332 29.994 281.335 29.3627 281.292 28.748C281.238 27.9832 281.11 27.1474 280.776 26.3712C280.433 25.5738 279.874 24.8433 278.993 24.3276C278.128 23.8209 277.042 23.5734 275.723 23.5734ZM273.5 32.0586H279.028V33.3664C277.497 36.2266 275.388 37.1239 273.821 37.0881C272.109 37.049 271.114 36.0108 271.114 34.9376C271.114 33.6367 271.468 32.9662 271.831 32.6149C272.2 32.2569 272.755 32.0586 273.5 32.0586Z" fill="white" fill-opacity="0.6"/>
<path fill-rule="evenodd" clip-rule="evenodd" d="M205.511 26.0004C205.792 25.6727 206.11 25.3692 206.468 25.0994C207.505 24.3175 208.81 23.8745 210.395 23.8745C211.703 23.8745 212.802 24.1674 213.699 24.72C214.595 25.272 215.216 26.0379 215.641 26.8693C216.469 28.4879 216.595 30.4424 216.595 31.9014C216.595 33.3884 216.214 35.1677 215.262 36.6132C214.28 38.1045 212.679 39.2376 210.395 39.2376C208.176 39.2376 206.596 38.2207 205.511 36.8707V44.786H203.211V23.8745H205.511V26.0004ZM205.707 31.5533C205.707 32.6433 205.835 33.496 206.273 34.3718C207.061 35.9481 208.564 36.9615 210.395 36.9615C211.788 36.9615 212.712 36.3172 213.335 35.3704C213.989 34.3777 214.295 33.058 214.295 31.9014C214.295 30.4965 214.156 29.0065 213.589 27.8967C213.317 27.3638 212.958 26.9445 212.484 26.6524C212.01 26.3608 211.348 26.1506 210.395 26.1506C209.269 26.1506 208.464 26.4562 207.861 26.9102C207.244 27.3751 206.634 28.0095 206.273 28.858C205.927 29.6679 205.707 30.6116 205.707 31.5533Z" fill="white" fill-opacity="0.6"/>
<path fill-rule="evenodd" clip-rule="evenodd" d="M328.889 24.0236C328.356 24.0236 327.814 24.0174 327.285 24.0114C326.593 24.0035 325.923 23.9958 325.326 24.0026C324.245 24.0148 323.204 24.072 322.301 24.2833C321.387 24.4969 320.506 24.8927 319.87 25.6625C319.23 26.4364 318.966 27.4325 318.966 28.588C318.966 30.2506 319.427 31.4666 320.392 32.299C320.855 32.6987 321.396 32.97 321.943 33.1704L318.536 38.709L321.266 38.6956L324.331 33.6136H327.739V38.6956H330.039V24.0236H328.889ZM327.739 31.3375H323.797C322.858 31.1095 322.283 30.9109 321.903 30.5833C321.59 30.3125 321.266 29.8192 321.266 28.588C321.266 27.7649 321.452 27.3433 321.65 27.1037C321.852 26.8601 322.195 26.6467 322.83 26.4984C323.474 26.3478 324.303 26.2904 325.352 26.2785C325.947 26.2718 326.553 26.279 327.205 26.2868L327.739 26.2929V31.3375Z" fill="white" fill-opacity="0.6"/>
<path d="M285.85 23.9173H288.15V36.4192H295.134V23.9173H297.434V36.4192H299.66V41.5743H297.36V38.6953H285.85V23.9173Z" fill="white" fill-opacity="0.6"/>
<path d="M172.014 40.9267H168.642V62.2798H170.942V44.4353L176.604 58.6232H179.636L185.041 47.9308V65.649H187.341V44.9124H184.1L178.28 56.3471H178.169L172.014 40.9267Z" fill="white" fill-opacity="0.6"/>
<path d="M212.901 50.5471L228.295 52.9847V73.424H225.995V54.9255L215.201 53.2164V70.7027H212.901V50.5471Z" fill="white" fill-opacity="0.6"/>
<path fill-rule="evenodd" clip-rule="evenodd" d="M192.785 39.1763C196.502 39.1763 199.515 35.7646 199.515 31.556C199.515 27.3475 196.502 23.9358 192.785 23.9358C189.069 23.9358 186.056 27.3475 186.056 31.556C186.056 35.7646 189.069 39.1763 192.785 39.1763ZM192.785 36.9002C194.95 36.9002 197.215 34.8053 197.215 31.556C197.215 28.3067 194.95 26.2119 192.785 26.2119C190.62 26.2119 188.356 28.3067 188.356 31.556C188.356 34.8053 190.62 36.9002 192.785 36.9002Z" fill="white" fill-opacity="0.6"/>
<path fill-rule="evenodd" clip-rule="evenodd" d="M242.324 39.1763C246.04 39.1763 249.053 35.7646 249.053 31.556C249.053 27.3475 246.04 23.9358 242.324 23.9358C238.607 23.9358 235.594 27.3475 235.594 31.556C235.594 35.7646 238.607 39.1763 242.324 39.1763ZM242.324 36.9002C244.489 36.9002 246.753 34.8053 246.753 31.556C246.753 28.3067 244.489 26.2119 242.324 26.2119C240.159 26.2119 237.894 28.3067 237.894 31.556C237.894 34.8053 240.159 36.9002 242.324 36.9002Z" fill="white" fill-opacity="0.6"/>
<path fill-rule="evenodd" clip-rule="evenodd" d="M254.863 26.0003C255.144 25.6727 255.461 25.3692 255.819 25.0994C256.857 24.3175 258.162 23.8745 259.747 23.8745C261.054 23.8745 262.154 24.1674 263.051 24.72C263.947 25.272 264.568 26.0379 264.993 26.8693C265.82 28.4879 265.946 30.4424 265.946 31.9014C265.946 33.3884 265.566 35.1677 264.614 36.6131C263.632 38.1045 262.031 39.2375 259.747 39.2375C257.527 39.2375 255.948 38.2207 254.863 36.8706V44.786H252.563V23.8745H254.863V26.0003ZM255.059 31.5532C255.059 32.6433 255.186 33.496 255.624 34.3718C256.412 35.948 257.916 36.9615 259.747 36.9615C261.14 36.9615 262.063 36.3172 262.687 35.3704C263.341 34.3777 263.646 33.058 263.646 31.9014C263.646 30.4965 263.508 29.0065 262.941 27.8967C262.668 27.3638 262.31 26.9445 261.835 26.6524C261.362 26.3608 260.7 26.1506 259.747 26.1506C258.62 26.1506 257.815 26.4562 257.213 26.9102C256.596 27.375 255.986 28.0095 255.624 28.858C255.279 29.6679 255.059 30.6116 255.059 31.5532Z" fill="white" fill-opacity="0.6"/>
</svg>
