<svg width="80" height="81" viewBox="0 0 80 81" fill="none" xmlns="http://www.w3.org/2000/svg">
<path fill-rule="evenodd" clip-rule="evenodd" d="M0.000308848 38.2305C1.04237 17.0682 18.5304 0.230463 39.9512 0.230465C62.0426 0.230467 79.9512 18.1391 79.9512 40.2305C79.9512 62.3219 62.0426 80.2305 39.9512 80.2305C18.5304 80.2305 1.04237 63.3927 0.000308498 42.2305L62.9247 42.2305L53.611 51.5442C52.83 52.3252 52.83 53.5916 53.611 54.3726C54.3921 55.1536 55.6584 55.1537 56.4395 54.3726L69.1674 41.6447C69.9484 40.8636 69.9484 39.5973 69.1674 38.8163L56.4395 26.0883C55.6584 25.3073 54.3921 25.3073 53.611 26.0883C52.83 26.8694 52.83 28.1357 53.611 28.9168L62.9247 38.2305L0.000308848 38.2305Z" fill="white"/>
</svg>
