<svg width="131" height="92" viewBox="0 0 131 92" fill="none" xmlns="http://www.w3.org/2000/svg">
<path d="M89.6448 26.7454V24.864C89.5716 24.2463 89.6311 23.6201 89.8206 23.0276C90.0091 22.435 90.3235 21.8896 90.7405 21.4287C91.2161 21.0142 91.7737 20.7038 92.3763 20.5178C92.7552 20.4011 93.1458 20.3352 93.5403 20.3205C93.7737 20.3118 94.0081 20.3213 94.2415 20.3491H105.349C109.373 20.3491 115.377 20.3491 119.335 24.3569C123.294 28.3647 123.36 34.2539 123.36 36.3806V42.8423C123.36 44.969 123.36 50.8579 119.335 54.866C115.312 58.8738 109.325 58.8738 105.3 58.8738H98.3636C94.9124 58.8738 92.3606 58.8738 90.1849 57.8433C88.0227 56.4653 86.1868 54.6348 84.803 52.4775L83.1663 50.3345L83.0198 50.1382C82.011 49.0071 81.4016 47.5759 81.2854 46.0649C81.4222 44.4534 82.1028 42.9363 83.2161 41.7627L89.6448 33.2561H105.725L95.2718 47.1609C94.7405 47.633 94.3548 48.2473 94.1604 48.9314C93.9661 49.6152 93.972 50.3406 94.1761 51.0217C94.8636 52.4775 96.5804 52.4775 97.9388 52.4775H105.725C106.391 52.5549 107.066 52.498 107.709 52.3096C108.353 52.1213 108.952 51.8057 109.471 51.3816C110.295 50.3166 110.67 48.9726 110.519 47.6352V31.5874C110.67 30.25 110.295 28.9062 109.471 27.8413C108.952 27.417 108.353 27.1016 107.709 26.9131C107.066 26.7248 106.391 26.6677 105.725 26.7454H89.6448Z" fill="white" fill-opacity="0.6"/>
<path d="M7.67118 37.7385C7.59696 37.1118 7.65849 36.4768 7.84989 35.8757C7.94559 35.5764 8.07255 35.2891 8.22782 35.0183C8.38505 34.7451 8.57157 34.4888 8.78349 34.2539C9.25614 33.834 9.81278 33.519 10.4163 33.3301C11.0198 33.1411 11.6565 33.0825 12.2845 33.1579H39.2112C42.7122 33.1579 45.2151 33.1579 47.3909 34.2539C49.555 35.6208 51.3929 37.447 52.7727 39.6033L54.4085 41.7463C55.5384 42.876 56.2425 44.3611 56.4036 45.9504C56.2366 47.564 55.5208 49.071 54.3753 50.2202L47.8323 58.7593H31.8011L42.2376 44.8545C42.5979 44.5105 42.888 44.1023 43.0931 43.6528C43.1761 43.4709 43.2454 43.2822 43.3001 43.0881C43.4905 42.4148 43.4964 41.7029 43.3167 41.0266C42.6468 39.5542 40.8636 39.5542 39.5706 39.5542H27.0071V71.6826H14.1009V39.6033H7.67118V37.7385Z" fill="white" fill-opacity="0.6"/>
<path d="M86.4554 33.1579H70.3753L51.0716 58.8247H67.136L86.4554 33.1579Z" fill="white" fill-opacity="0.6"/>
</svg>
