<svg width="384" height="93" viewBox="0 0 384 93" fill="none" xmlns="http://www.w3.org/2000/svg">
<path fill-rule="evenodd" clip-rule="evenodd" d="M145.051 30.7034C146.778 30.6919 148.277 30.1384 148.983 28.7132L149.789 26.5301L149.777 26.529C149.231 26.477 148.686 26.4252 148.132 26.3936C147.875 28.1924 146.721 28.7484 144.966 28.7484C143.169 28.7484 142.142 27.9782 142.014 26.3936C141.592 26.4174 141.175 26.4558 140.759 26.4941L140.555 26.5129L140.948 28.2087L141.2 28.7075C141.995 30.2194 143.22 30.6756 145.051 30.7034ZM152.537 26.822C152.367 31.6183 149.8 34.1457 145.052 34.1457C140.431 34.1457 137.736 31.6183 137.608 26.822C137.826 26.796 138.044 26.7721 138.263 26.7481C138.416 26.7312 138.57 26.7144 138.723 26.6969L139.081 28.3951L139.08 28.3952L139.303 29.4522L139.307 29.4671C140.266 31.5783 142.279 32.7696 144.693 32.7696H144.769C144.825 32.7696 144.878 32.7691 144.928 32.7687C144.972 32.7683 145.015 32.7679 145.055 32.7679C147.531 32.7802 149.823 31.6985 150.88 29.4744L150.881 29.4741L150.881 29.4712L151.142 28.3935L151.142 28.3932L151.55 26.71C151.714 26.7292 151.879 26.7476 152.044 26.766C152.208 26.7844 152.373 26.8028 152.537 26.822ZM139.178 28.9383L139.047 28.3984L139.046 28.3984L139.178 28.9383ZM67.5836 38.0291H65.478V63.8609V63.8611H67.5836L67.5835 63.8609V51.4826H82.6329V63.8609V65.7555H79.7272V53.7205H70.4876V65.7555H67.5835H67.5836H65.4775H62.6596V35.7738H65.478V35.774H67.5836H70.4876V46.6529H79.7272V35.774H82.6329V49.3355H67.5835L67.5836 38.0291ZM82.6331 65.7555H84.6944V63.8611H82.6331V65.7555ZM296.656 63.8202V35.774H293.881V65.7557H296.656L298.846 65.7555L301.665 65.7553V54.3196C302.65 54.3196 303.589 54.3196 304.617 54.148L311.204 65.7553H314.755L313.57 63.8198L306.03 51.5208L313.528 63.8198H313.526L306.028 51.5208C304.833 51.7939 303.477 51.9534 302.307 51.9558H298.846V63.8198L296.656 63.8202ZM116.97 59.6909L118.906 63.8606H121.236L121.831 65.1418L121.237 63.8606H121.265H121.237L109.917 39.4686L109.765 39.1421H108.467L108.247 39.6164L96.1442 65.7558H94.0159V64.6414L107.492 35.3883H110.786L124.304 64.6414V65.7558H122.115L122.115 65.7552H119.766L119.766 65.7555H116.817L115.064 61.9869H103.256L101.503 65.7555H98.5044L101.42 59.6214H116.938H116.938L116.97 59.6909ZM208.745 65.7555H210.807V63.82H208.745V45.7221L198.992 55.9224L189.417 45.7458V65.7553H192.279V52.3916L198.611 59.0736H199.468L205.841 52.3916V65.7553L208.745 65.7555ZM14.4047 65.7557H11.3954L26.074 35.774H28.6064V36.9301L14.4047 65.7557ZM7.15318 38.0272L15.1433 53.2201L22.4892 38.0272H22.5929L23.6969 35.7738H20.3071L15.1744 46.8244H14.9604L9.31323 35.7738H5.91349L7.10581 38.0272H7.15318ZM0.757812 35.774H3.51566L14.0031 55.5644L9.10811 65.7557H6.14855V64.9421L10.8541 55.2619L0.757812 36.9301V35.774ZM15.1441 53.2202L22.5937 38.0274H22.49L15.1441 53.2202ZM84.6948 65.7552V63.8608V35.7736H87.5571V65.7552H84.6948ZM109.118 47.5523L112.583 55.4337H105.738L109.118 47.5523ZM109.142 42.7971L102.352 57.5155H116.006L109.142 42.7971ZM138.891 50.4643V35.7736H136.029V38.0696V57.237C138.451 54.8523 140.861 52.4928 143.27 50.1339L143.272 50.1323C146.22 47.2458 149.167 44.3602 152.135 41.4309L152.372 41.1979H153.096H153.995V65.7552H156.815V35.6452H154.035L138.891 50.4643ZM135.411 60.7361L135.649 60.5104C138.647 57.6368 141.546 54.7767 144.442 51.9191L144.443 51.9187L144.443 51.9183L144.444 51.9178L144.444 51.9175L144.445 51.917L144.445 51.9165L144.446 51.9162L144.446 51.9157L144.446 51.9152L144.447 51.9149L144.447 51.9144L144.448 51.9139L144.448 51.9135L144.449 51.9131L144.449 51.9127L144.449 51.9122L144.45 51.9119L144.45 51.9114L144.451 51.9109L144.451 51.9106L144.452 51.9101L144.452 51.9096L144.452 51.9093L144.453 51.9088L144.453 51.9083L144.454 51.9079C146.902 49.4931 149.347 47.0802 151.85 44.6627V65.7557H148.901V51.0223L133.8 65.799H131.062V35.774H133.926V38.07V60.7361H135.411ZM198.996 48.7082L187.274 35.6872H184.45V65.7555H187.356V42.3118H187.784H188.429H189.083L199 52.9029L209.042 42.3118H209.745H210.38H210.807V63.8192V65.7555H213.669V35.6872H210.931L198.996 48.7082ZM237.63 35.3064V38.1747C240.348 38.3963 243.006 39.4478 245.077 41.3578C247.424 43.5196 248.971 46.7886 248.967 51.0094C248.971 55.2301 247.423 58.5032 245.072 60.6683C243.004 62.58 240.346 63.6348 237.63 63.8563V66.3395C244.919 65.8595 251.87 60.6896 251.87 50.8066C251.87 40.9449 244.919 35.7847 237.63 35.3064ZM224.101 51.0092C224.098 55.2309 225.645 58.5038 227.994 60.6682C230.099 62.6126 232.81 63.664 235.574 63.862V66.3468C228.221 65.9412 221.154 60.7705 221.154 50.8066C221.154 40.8639 228.221 35.7045 235.574 35.299V38.1697C232.811 38.3709 230.104 39.424 227.999 41.3635C225.648 43.5246 224.098 46.7935 224.101 51.0092ZM229.215 52.8054H226.292C227.077 58.9206 231.692 61.7897 236.453 61.8356C241.256 61.7947 245.97 58.8537 246.772 52.8054H243.853C242.253 61.0162 230.815 61.0162 229.215 52.8054ZM229.041 50.478H226.19C226.463 43.5124 231.376 40.2606 236.453 40.2116C241.582 40.2557 246.605 43.5926 246.88 50.478H244.028C243.723 40.1331 229.346 40.1331 229.041 50.478ZM282.829 56.3171H282.828L283.474 54.2338H286.264C285.153 62.7144 278.436 66.0553 272.061 66.0553C264.448 66.0978 256.746 60.9581 256.703 50.7644C256.746 40.5708 264.448 35.4302 272.061 35.4302C278.265 35.4302 284.981 38.8145 286.136 46.8242H283.573L282.812 45.1017L282.277 43.8937L282.273 43.888C280.165 40.059 276.32 38.1007 272.061 38.1138C268.975 38.1138 265.881 39.2413 263.542 41.4269C261.202 43.6101 259.645 46.8635 259.653 50.9656C259.647 55.0285 261.184 58.2689 263.508 60.4496C265.827 62.6344 268.9 63.7733 271.977 63.7757L271.993 63.7745L271.999 63.7741L272.031 63.7757H272.09C276.451 63.7757 280.528 61.5567 282.467 57.4865L282.719 56.9551L282.467 57.4861L282.829 56.3171ZM261.715 50.9659C261.728 43.9276 266.936 40.1623 272.063 40.1337C275.687 40.1509 278.59 41.6161 280.335 44.6856L281.22 46.8245H278.607C277.538 43.783 275.27 42.4126 272.063 42.4126C267.572 42.4126 264.619 45.796 264.619 50.7649C264.619 55.176 267.527 59.0304 272.063 59.0739C275.313 59.0739 277.923 57.4467 278.737 54.2341H281.203L280.493 56.7582C278.73 60.1277 275.806 61.6911 272.063 61.7132C266.931 61.6838 261.728 57.9585 261.715 50.9659ZM307.784 48.6595C306.375 49.4069 304.339 49.9808 302.264 49.976H298.846V35.7742H301.665V47.124H302.221C309.529 47.124 309.512 41.8967 309.496 36.5435C309.494 36.2871 309.494 36.0305 309.494 35.7742H312.398V38.0693V38.8886C312.381 43.6777 310.99 46.9506 307.784 48.6595ZM317.365 35.774H314.456L314.46 38.8851V39.0781C314.495 43.8998 312.886 48.6864 308.005 50.8187L317.18 65.7557H319.718V64.5561L311.591 51.3642C317.373 47.657 317.37 42.2073 317.365 36.2774V35.774ZM348.807 44.982C348.807 46.7807 347.909 48.9655 346.454 50.1651C348.893 51.407 350.048 53.6343 350.048 56.2893C350.005 61.5157 346.839 65.7552 340.722 65.7552H326.69V63.6047H329.466V63.6065H340.637C344.431 63.5705 347.3 60.124 347.312 56.4913C347.308 53.9533 345.797 51.5444 343.515 50.5445C345.109 49.2657 346.04 47.1055 346.074 45.1847C346.069 41.4931 343.127 38.3803 339.44 38.3705H329.466V38.377L326.69 38.3762V35.7736H339.482C344.658 35.7736 348.807 39.7997 348.807 44.982ZM326.69 61.4067L329.465 61.4075V40.434H326.69V61.4067ZM334.091 47.4662H338.925C341.964 47.4662 341.964 42.6266 338.882 42.6266H334.091V47.4662ZM339.44 40.3899C341.938 40.3964 344.008 42.6147 344.011 45.1845C344.003 47.8117 342.048 49.9335 339.44 49.9335H331.528V40.3899H339.44ZM334.091 53.8485H340.166C343.247 53.8485 343.288 58.9449 340.209 58.9449H334.091V53.8485ZM331.528 61.5409H340.637C341.845 61.5435 342.994 60.9597 343.857 60.0169C344.715 59.074 345.254 57.7871 345.252 56.4911C345.248 53.9164 343.161 51.9622 340.637 51.9556H331.528V61.5409ZM360.002 38.0272H359.903V38.0274H360.002L369.154 55.5642L364.069 65.7555H361.299V64.9419L366.006 55.2617L355.909 36.9299V35.7738H358.825L360.002 38.0272ZM377.418 38.4896L378.647 35.7742H375.459L370.326 46.8239H370.111L364.464 35.7742H361.223L370.295 53.2236L377.418 38.4896ZM367.414 63.9036L380.928 35.774H383.758V36.9301L369.555 65.7557H366.325L367.227 63.9036H367.414ZM34.7753 57.719V57.7223L34.7739 57.7195H34.7729L34.7747 57.7227V57.7342H34.7771L34.964 58.4683C35.9531 62.156 38.9853 64.1184 42.7207 64.1192C42.7656 64.1192 42.808 64.1184 42.8529 64.1184C48.1972 64.1674 51.2687 60.7513 51.369 56.9508C51.374 56.851 51.3756 56.748 51.3756 56.645C51.3911 53.937 49.8279 51.2689 46.9395 49.951C48.8938 48.6223 49.9227 46.3721 49.9162 44.1849C49.9179 42.5618 49.356 40.9281 48.162 39.6951C46.973 38.4596 45.1608 37.6804 42.8529 37.6845C39.6419 37.669 37.2164 38.9036 36.2814 41.1432L35.6533 43.3115H33.3544C33.0981 37.7867 37.5904 35.2168 42.8088 35.2168C49.3544 35.2168 52.6478 39.543 52.6478 43.911C52.6478 45.8823 51.7928 48.1521 50.0387 49.48C53.0758 51.107 54.3596 53.506 54.3596 56.8896C54.3596 62.2009 50.5091 66.3121 42.8088 66.3121C36.3074 66.3121 32.3279 62.7152 32.3279 55.9901H34.7747V57.719H34.7753ZM34.7772 57.7338L34.7748 57.7223V57.7338H34.7772ZM39.0452 55.9898C39.0452 58.3455 40.5863 59.845 42.8099 59.845C47.9442 59.845 47.9442 53.0349 42.8099 53.0349H40.7136V46.7806H42.725C46.489 46.7806 46.4041 41.5558 42.8099 41.5558C41.1415 41.5558 40.1583 42.1985 40.1583 43.3114H37.8145L38.2041 41.8027C38.8409 40.3931 40.538 39.7112 42.854 39.7071C46.4588 39.7529 47.83 41.8829 47.8854 44.1959C47.8675 46.4936 46.3795 48.7765 43.5466 49.0782H42.618V51.1419H43.5449C47.4999 51.4804 49.3391 54.1248 49.3645 56.7289C49.322 59.4068 47.429 62.0542 42.854 62.0993C39.834 62.0723 37.6887 60.6062 36.9219 58.0193L36.8442 57.7191H36.814V55.9898H39.0452Z" fill="white" fill-opacity="0.6"/>
</svg>
