<svg width="106" height="409" viewBox="0 0 106 409" fill="none" xmlns="http://www.w3.org/2000/svg">
<path d="M0.272729 209.636V199.455C18.6212 199.348 31.0303 196.061 37.5 189.591C44.0758 183.015 47.3636 170.606 47.3636 152.364V69C47.3636 57.4394 48.5303 47.4166 50.8636 38.9318C53.197 30.3409 56.75 23.2348 61.5227 17.6136C66.2955 11.9924 72.2879 7.80302 79.5 5.04545C86.8182 2.28786 95.4091 0.909069 105.273 0.909069V11.0909C94.2424 10.9848 85.1742 12.947 78.0682 16.9773C71.0682 21.0076 65.8712 27.3182 62.4773 35.9091C59.1894 44.3939 57.5455 55.4242 57.5455 69V152.364C57.5455 162.864 56.5379 171.773 54.5227 179.091C52.5076 186.303 49.2727 192.189 44.8182 196.75C40.3636 201.205 34.4773 204.492 27.1591 206.614C19.8409 208.629 10.8788 209.636 0.272729 209.636ZM105.273 408.182C95.4091 408.182 86.8182 406.803 79.5 404.045C72.2879 401.288 66.2955 397.098 61.5227 391.477C56.75 385.856 53.197 378.75 50.8636 370.159C48.5303 361.674 47.3636 351.652 47.3636 340.091V256.727C47.3636 238.485 44.0758 226.129 37.5 219.659C31.0303 213.083 18.6212 209.742 0.272729 209.636V199.455C10.8788 199.561 19.8409 200.674 27.1591 202.795C34.4773 204.811 40.3636 208.045 44.8182 212.5C49.2727 216.955 52.5076 222.841 54.5227 230.159C56.5379 237.371 57.5455 246.227 57.5455 256.727V340.091C57.5455 353.667 59.1894 364.697 62.4773 373.182C65.8712 381.773 71.0682 388.03 78.0682 391.955C85.1742 395.985 94.2424 398 105.273 398V408.182ZM0.272729 209.636V199.455H34.6364V209.636H0.272729Z" fill="#9EA5A9"/>
</svg>
