<?xml version="1.0" encoding="utf-8"?><svg viewBox="0 0 800 800" xmlns="http://www.w3.org/2000/svg" xmlns:xlink="http://www.w3.org/1999/xlink"><style>:root>svg{display:none}:root>svg:target{display:block}</style><svg viewBox="0 0 483 92" id="MSP-icon" xmlns="http://www.w3.org/2000/svg"><path d="M215.677 12.803L152.961 0v59.307h2.3V2.794l59.951 12.239.465-2.23zm25.497 54.131V89.22l-28.322-5.638-.454 2.231L243.474 92V66.934h-2.3zm-44.922-18.966c1.992-.731 4.23-.434 5.411-.265 2.039.29 3.732 1.49 4.893 2.831 1.137 1.312 1.932 2.956 1.932 4.336h-2.3c0-.633-.438-1.769-1.378-2.854-.915-1.056-2.142-1.87-3.475-2.06-1.224-.175-2.909-.359-4.283.146-.649.238-1.209.625-1.626 1.248-.424.633-.758 1.594-.797 3.07-.088 3.285-.022 3.885.145 5.406v.004c.135 1.232.704 3.001 1.904 4.387 1.159 1.338 2.938 2.363 5.684 2.176 2.117-.144 2.991-.965 3.39-1.594a2.918 2.918 0 00.431-1.257l.004-.057.001-.021v-.021h2.3c0 .14-.006 1.334-.788 2.567-.826 1.302-2.401 2.465-5.18 2.654-3.514.239-5.985-1.114-7.588-2.966-1.563-1.804-2.27-4.035-2.444-5.623-.181-1.642-.248-2.344-.159-5.715.048-1.785.459-3.192 1.18-4.268.727-1.085 1.71-1.745 2.743-2.124z" fill-opacity=".6"/><path d="M175.98 28.365l8.148 10.33h-2.887l-7.254-9.163h-3.045v9.164h-2.3V18.092h2.3v9.164h3.015l6.605-9.164h2.802l-7.384 10.273zm55.982-4.49h-11.728v14.82h2.3V26.152h7.128v12.545h2.3V23.875zm80.414.091h3.128v14.73h-2.3V27.127l-7.688 11.582h-2.787V23.917h2.3V36.08l7.347-12.114z" fill-opacity=".6"/><path fill-rule="evenodd" clip-rule="evenodd" d="M275.723 23.573c-2.441 0-4.059.44-5.04 1.35-1.031.954-1.083 2.168-1.083 2.888h2.3c0-.635.077-.97.354-1.227.327-.302 1.196-.735 3.469-.735 1.038 0 1.687.196 2.099.437.397.233.657.555.838.977.191.443.292.993.337 1.642.021.29.029.582.032.877H273.5c-1.138 0-2.351.308-3.279 1.206-.934.906-1.407 2.244-1.407 3.95 0 2.684 2.41 4.367 4.954 4.426 1.761.04 3.646-.646 5.26-2.198v1.53h2.3V30.81l.001-.26v-.003c.003-.553.006-1.184-.037-1.799-.054-.765-.182-1.6-.516-2.377-.343-.797-.902-1.528-1.783-2.043-.865-.507-1.951-.755-3.27-.755zM273.5 32.06h5.528v1.307c-1.531 2.86-3.64 3.758-5.207 3.722-1.712-.039-2.707-1.077-2.707-2.15 0-1.301.354-1.972.717-2.323.369-.358.924-.556 1.669-.556zM205.511 26a6.12 6.12 0 01.957-.9c1.037-.783 2.342-1.226 3.927-1.226 1.308 0 2.407.293 3.304.846.896.552 1.517 1.318 1.942 2.15.828 1.618.954 3.572.954 5.031 0 1.487-.381 3.267-1.333 4.712-.982 1.492-2.583 2.625-4.867 2.625-2.219 0-3.799-1.017-4.884-2.367v7.915h-2.3V23.874h2.3V26zm.196 5.553c0 1.09.128 1.943.566 2.819.788 1.576 2.291 2.59 4.122 2.59 1.393 0 2.317-.645 2.94-1.592.654-.992.96-2.312.96-3.469 0-1.404-.139-2.895-.706-4.004-.272-.533-.631-.952-1.105-1.245-.474-.291-1.136-.501-2.089-.501-1.126 0-1.931.305-2.534.76-.617.464-1.227 1.098-1.588 1.947a6.98 6.98 0 00-.566 2.695zm123.182-7.529c-.533 0-1.075-.007-1.604-.013-.692-.008-1.362-.015-1.959-.008-1.081.012-2.122.069-3.025.28-.914.214-1.795.61-2.431 1.38-.64.773-.904 1.77-.904 2.925 0 1.663.461 2.879 1.426 3.711.463.4 1.004.671 1.551.871l-3.407 5.539 2.73-.013 3.065-5.082h3.408v5.082h2.3V24.024h-1.15zm-1.15 7.313h-3.942c-.939-.227-1.514-.426-1.894-.754-.313-.27-.637-.764-.637-1.995 0-.823.186-1.245.384-1.484.202-.244.545-.457 1.18-.606.644-.15 1.473-.208 2.522-.22.595-.006 1.201.001 1.853.009l.534.006v5.044z" fill-opacity=".6"/><path d="M285.85 23.917h2.3V36.42h6.984V23.917h2.3V36.42h2.226v5.155h-2.3v-2.879h-11.51V23.917zm-113.836 17.01h-3.372V62.28h2.3V44.435l5.662 14.188h3.032l5.405-10.692v17.718h2.3V44.912H184.1l-5.82 11.435h-.111l-6.155-15.42zm40.887 9.62l15.394 2.438v20.439h-2.3V54.925l-10.794-1.709v17.487h-2.3V50.547z" fill-opacity=".6"/><path fill-rule="evenodd" clip-rule="evenodd" d="M192.785 39.176c3.717 0 6.73-3.411 6.73-7.62s-3.013-7.62-6.73-7.62c-3.716 0-6.729 3.412-6.729 7.62 0 4.209 3.013 7.62 6.729 7.62zm0-2.276c2.165 0 4.43-2.095 4.43-5.344 0-3.25-2.265-5.344-4.43-5.344-2.165 0-4.429 2.095-4.429 5.344 0 3.25 2.264 5.344 4.429 5.344zm49.539 2.276c3.716 0 6.729-3.411 6.729-7.62s-3.013-7.62-6.729-7.62c-3.717 0-6.73 3.412-6.73 7.62 0 4.209 3.013 7.62 6.73 7.62zm0-2.276c2.165 0 4.429-2.095 4.429-5.344 0-3.25-2.264-5.344-4.429-5.344-2.165 0-4.43 2.095-4.43 5.344 0 3.25 2.265 5.344 4.43 5.344zM254.863 26a6.08 6.08 0 01.956-.9c1.038-.783 2.343-1.226 3.928-1.226 1.307 0 2.407.293 3.304.846.896.552 1.517 1.318 1.942 2.15.827 1.618.953 3.572.953 5.031 0 1.487-.38 3.267-1.332 4.712-.982 1.492-2.583 2.624-4.867 2.624-2.22 0-3.799-1.016-4.884-2.366v7.915h-2.3V23.874h2.3V26zm.196 5.553c0 1.09.127 1.943.565 2.819.788 1.576 2.292 2.59 4.123 2.59 1.393 0 2.316-.645 2.94-1.592.654-.992.959-2.312.959-3.469 0-1.404-.138-2.895-.705-4.004-.273-.533-.631-.952-1.106-1.245-.473-.291-1.135-.501-2.088-.501-1.127 0-1.932.305-2.534.76-.617.464-1.227 1.098-1.589 1.947a6.998 6.998 0 00-.565 2.695z" fill-opacity=".6"/></svg><svg viewBox="0 0 81 81" id="Subtract" xmlns="http://www.w3.org/2000/svg"><path fill-rule="evenodd" clip-rule="evenodd" d="M80.59 42.23c-1.041 21.163-18.53 38-39.95 38-22.092 0-40-17.908-40-40 0-22.09 17.908-40 40-40 21.42 0 38.909 16.838 39.95 38H17.667l9.314-9.313a2 2 0 00-2.829-2.829L11.423 38.816a2 2 0 000 2.829l12.728 12.728a2 2 0 102.829-2.829l-9.314-9.313h62.925z"/></svg><svg viewBox="0 0 27 16" id="accordion-arrow" xmlns="http://www.w3.org/2000/svg"><path d="M22.657.876l-9.018 9.018L4.623.876a2.275 2.275 0 00-3.237 0 2.275 2.275 0 000 3.237l10.613 10.613a2.303 2.303 0 003.26 0L25.894 4.113a2.275 2.275 0 000-3.237 2.275 2.275 0 00-3.237 0z"/></svg><svg viewBox="0 0 106 409" id="bracket-left" xmlns="http://www.w3.org/2000/svg"><path d="M.127 209.458v-10.182c18.349-.106 30.758-3.394 37.227-9.864 6.576-6.576 9.864-18.985 9.864-37.227V68.821c0-11.56 1.167-21.583 3.5-30.068 2.333-8.59 5.886-15.697 10.66-21.318 4.772-5.621 10.764-9.81 17.977-12.568C86.672 2.109 95.264.73 105.126.73v10.182c-11.03-.106-20.098 1.856-27.204 5.886-7 4.03-12.197 10.342-15.591 18.932-3.288 8.485-4.932 19.516-4.932 33.091v83.364c0 10.5-1.008 19.409-3.023 26.727-2.015 7.212-5.25 13.099-9.704 17.659-4.455 4.455-10.341 7.743-17.66 9.864-7.318 2.015-16.28 3.023-26.886 3.023zm105 198.545c-9.863 0-18.454-1.379-25.772-4.136-7.213-2.758-13.205-6.947-17.978-12.568-4.773-5.622-8.326-12.728-10.659-21.319-2.333-8.484-3.5-18.507-3.5-30.068v-83.363c0-18.243-3.288-30.599-9.864-37.069-6.47-6.575-18.878-9.916-37.227-10.022v-10.182c10.606.106 19.568 1.22 26.887 3.341 7.318 2.015 13.204 5.25 17.659 9.704 4.454 4.455 7.69 10.341 9.704 17.659 2.015 7.212 3.023 16.069 3.023 26.569v83.363c0 13.576 1.644 24.606 4.932 33.091 3.394 8.591 8.59 14.849 15.59 18.773 7.107 4.03 16.175 6.045 27.205 6.045v10.182zm-105-198.545v-10.182h34.364v10.182H.127z"/></svg><svg viewBox="0 0 106 409" id="bracket-right" xmlns="http://www.w3.org/2000/svg"><path d="M105.425 199.276v10.182c-18.349.106-30.81 3.447-37.387 10.022-6.47 6.47-9.704 18.826-9.704 37.069v83.363c0 11.561-1.167 21.584-3.5 30.068-2.333 8.591-5.887 15.697-10.66 21.319-4.772 5.621-10.817 9.81-18.136 12.568-7.212 2.757-15.75 4.136-25.613 4.136v-10.182c11.136 0 20.204-2.015 27.204-6.045 7-3.924 12.144-10.182 15.432-18.773 3.394-8.485 5.091-19.515 5.091-33.091v-83.363c0-10.5 1.008-19.357 3.023-26.569 2.015-7.318 5.25-13.204 9.704-17.659 4.455-4.56 10.341-7.848 17.66-9.863 7.318-2.122 16.28-3.182 26.886-3.182zM.425.73c9.863 0 18.401 1.38 25.613 4.137 7.319 2.757 13.364 6.947 18.137 12.568 4.773 5.621 8.326 12.727 10.659 21.318 2.333 8.485 3.5 18.508 3.5 30.068v83.364c0 18.242 3.235 30.651 9.704 37.227 6.576 6.47 19.038 9.758 37.387 9.864v10.182c-10.606-.106-19.568-1.167-26.887-3.182-7.318-2.121-13.204-5.409-17.659-9.864-4.454-4.454-7.689-10.288-9.704-17.5-2.015-7.318-3.023-16.227-3.023-26.727V68.821c0-13.575-1.697-24.606-5.09-33.09-3.289-8.591-8.433-14.902-15.433-18.933-7-4.03-16.068-5.992-27.204-5.886V.73zm105 198.546v10.182H71.061v-10.182h34.364z"/></svg><svg viewBox="0 0 272 92" id="enGroup-icon" xmlns="http://www.w3.org/2000/svg"><path d="M170.506 27.44c-3.098-.084-4.261 1.942-4.82 4.527l-1.089 5.474c-.21.819-.684 1.076-1.415 1.291h-4.907c-3.229-.217-4.995 1.811-5.08 4.27-.045 2.025 1.679 4.006 3.829 4.052h4.573c.559.089.861.386.903 1.034l-.86 4.569c-.948 2.845.301 5.863 3.573 5.948 3.832.121 4.377-2.719 4.817-5.02l.089-.454.991-4.92a2.074 2.074 0 011.809-1.162h4.777c3.488.3 5.296-1.769 5.424-3.925.087-2.035-1.033-4.309-4.219-4.397h-4.647c-.475-.04-1.079-.212-.991-.944l1.075-5.34c.649-2.544-1.163-4.872-3.832-5.002zm-74.604 7.274c-5.82-9.09 1.549-17.925 13.044-17.71l11.709.005c.432-.043.604.172.561.562l-1.077 5.976c-.086.474-.432.69-.903.69l-12.485.087c-2.325.177-4.091 1.211-4.091 4.014.345 2.597 1.778 3.284 3.575 3.66h9.64c.646.045.818.39.731.907l-.943 5.733c-.045.56-.389.819-1.035.775h-10.933c-3.796.044-5.553 3.147-5.683 5.56-.13 2.458 1.29 4.914 3.917 5.131h12.536c2.412-.045 4.349-1.121 4.865-2.673l2.971-9.7c3.961-12.923 28.456-12.578 26.218 3.542l-3.186 15.82c-.088.69-.516.907-1.077.907h-6.587c-.517-.04-.861-.385-.689-.944l3.254-15.131c.645-3.2-.258-5.13-3.143-5.56h-2.539c-2.368.129-4.135 2.112-4.823 4.051-.979 3.922-1.886 7.242-2.83 9.57-2.541 7.155-8.489 7.89-10.376 7.931l-15.068.043c-6.93 0-12.312-5.343-12.569-11.466-.172-3.922 1.722-8.579 7.016-11.78z" fill-opacity=".6"/><path fill-rule="evenodd" clip-rule="evenodd" d="M176.498 66.358h-3.75v8.456h2.058v-2.823h1.695c.396.005.79-.048 1.171-.158.332-.095.641-.266.903-.501.259-.248.458-.56.578-.909.141-.43.208-.884.198-1.34a3.046 3.046 0 00-.234-1.267 2.374 2.374 0 00-.636-.849 2.513 2.513 0 00-.913-.466 3.966 3.966 0 00-1.07-.143zm-.297 3.927h-1.395l.009-2.165h1.386a1.23 1.23 0 01.792.25c.103.098.185.217.239.349.065.158.092.335.075.512a.973.973 0 01-.309.818 1.278 1.278 0 01-.797.236z" fill-opacity=".6"/><path d="M158.641 74.076c.551-.615.825-1.535.825-2.76l-.004-4.958h-2.06v5.096c.028.436-.081.87-.31 1.232-.207.276-.565.415-1.074.417-.509.001-.867-.137-1.073-.417a2.025 2.025 0 01-.312-1.232v-5.096h-2.054v4.958c0 1.228.275 2.148.825 2.76.55.613 1.423.919 2.619.919 1.196.003 2.068-.303 2.618-.919z" fill-opacity=".6"/><path fill-rule="evenodd" clip-rule="evenodd" d="M132.063 68.857a5.583 5.583 0 00-.26 1.724l.01.002c-.005.59.082 1.177.26 1.734.164.515.422.99.757 1.398.121.143.251.276.389.397.253.222.534.405.835.544a4.163 4.163 0 003.313 0 3.5 3.5 0 001.22-.94c.338-.408.597-.884.76-1.399a5.807 5.807 0 000-3.45 4.165 4.165 0 00-.76-1.405 3.55 3.55 0 00-1.22-.944 4.167 4.167 0 00-3.313 0 3.618 3.618 0 00-1.224.944 4.23 4.23 0 00-.767 1.395zm1.899 2.65a4.227 4.227 0 01-.1-.926l.009.002a4.228 4.228 0 01.091-.926c.061-.287.17-.56.322-.805a1.676 1.676 0 011.417-.811c.57 0 1.101.305 1.417.811.152.245.261.518.322.805.13.609.13 1.242 0 1.85a2.57 2.57 0 01-.322.805 1.675 1.675 0 01-1.417.811c-.203 0-.402-.038-.587-.111a1.728 1.728 0 01-.83-.7 2.589 2.589 0 01-.322-.806zm-17.733-5.149h-4.03v8.454h2.078v-3.084h1.561c.203-.011.405.041.582.15.134.103.242.241.312.402.083.174.14.363.166.557.03.205.052.414.066.627.007.063.016.156.023.274.007.118.018.245.033.384.014.133.036.265.066.396a.957.957 0 00.112.299h2.038a.958.958 0 01-.167-.381 4.578 4.578 0 01-.09-.467l-.01-.09a7.2 7.2 0 01-.045-.568 12.1 12.1 0 00-.016-.27 1.819 1.819 0 01-.006-.134 5.008 5.008 0 00-.088-.622 2.685 2.685 0 00-.2-.61 1.738 1.738 0 00-.342-.502 1.151 1.151 0 00-.521-.298v-.013a1.79 1.79 0 00.938-.848c.203-.39.307-.829.305-1.275a2.3 2.3 0 00-.235-1.09 2.201 2.201 0 00-.625-.74 2.55 2.55 0 00-.887-.42 3.944 3.944 0 00-1.018-.131zm-.243 3.673h-1.728l-.016-1.917h1.641c.26-.008.517.067.737.219a.803.803 0 01.304.695c.024.275-.061.548-.235.752a.926.926 0 01-.703.251z" fill-opacity=".6"/><path d="M97.665 74.822h1.308l.009-4.64H95.66v1.636h1.44c-.03.206-.105.399-.214.566a1.297 1.297 0 01-.356.362c-.373.25-.808.372-1.247.352-.565.023-1.1-.275-1.406-.783a2.492 2.492 0 01-.322-.806 4.285 4.285 0 010-1.849c.061-.287.17-.56.322-.805.307-.509.841-.806 1.406-.784.377-.012.75.095 1.069.31.281.184.464.5.493.853h2.054a3.254 3.254 0 00-.404-1.376c-.215-.375-.5-.7-.837-.953a3.428 3.428 0 00-1.114-.552 4.42 4.42 0 00-1.223-.178 3.782 3.782 0 00-1.62.334 3.653 3.653 0 00-.701.427 3.82 3.82 0 00-.544.516 4.24 4.24 0 00-.792 1.398 5.52 5.52 0 000 3.45 4.32 4.32 0 00.791 1.398 3.762 3.762 0 003.186 1.277 2.8 2.8 0 001.421-.572 2.02 2.02 0 00.47-.517l.133.936z" fill-opacity=".6"/></svg><svg viewBox="0 0 233 94" id="gazprom-icon" xmlns="http://www.w3.org/2000/svg"><path fill-rule="evenodd" clip-rule="evenodd" d="M156.763 47.027c0-22.063-17.951-40.006-40.008-40.006-22.056 0-40.002 17.944-40.002 40.006 0 22.055 17.946 39.995 40.002 39.995 22.057 0 40.008-17.94 40.008-39.995zm-1.383 0c0 21.294-17.323 38.615-38.625 38.615-21.292 0-38.622-17.32-38.622-38.615 0-21.306 17.33-38.63 38.622-38.63 21.302 0 38.625 17.324 38.625 38.63zm-10.348 9.04c.233-.65.474-1.391.474-1.391s-10.571 5.653-22.518 5.653c-5.612 0-9.051-.818-11.56-1.418 5.632-1.033 12.706-1.889 20.721-3.906 4.032-1.028 8.984-3.364 11.227-5.337 1.958-1.743 3.433-3.982 2.953-6.286-.128-.64-.945-2.086-1.995-2.591 1-1.26.895-2.33.763-3.291-.083-.726-.415-1.518-.873-2.21-.624-.848-1.226-1.476-2.498-2.237a4.766 4.766 0 00-.393-2.904c-1.002-1.715-2.766-3.161-5.823-4.703-.162-.644-.532-1.447-1.172-2.204-3.859-3.822-10.149-5.673-15.448-5.757-6.643-.113-11.948 1.327-15.187 2.803-1.59.728-2.807 1.491-4.055 2.304 9.833-4.327 21.84-4.061 28.267-1.18 2 .905 3.386 1.471 3.962 2.611-6.633-1.786-9.533-2.102-15.122-1.998-7.915.16-18.478 3.323-22.534 5.693l-1.764 2.204c5.796-3.426 16.649-5.667 22.683-5.834 6.712-.11 11.898.498 16.684 2.22-.271 1.259-.85 1.834-1.909 2.446-19.168-3.308-30.474.6-40.702 7.304l-.773 2.19c11.416-7.861 25.422-10.01 38.904-7.643-4.84 1.694-10.622 2.05-15.453 3.171-4.135.964-6.349 1.235-11.828 3.046-5.615 1.857-8.884 3.725-10.969 6.125-.98 1.13-1.744 2.436-1.92 3.868-.071.828-.027 1.56.226 2.353.236.646.753 1.3 1.325 1.935-.65 1.13-1.231 2.59-.29 4.286.45.81 1.493 1.612 2.529 2.362-.115.276-.197.56-.247.863-.173.97-.306 2.118.359 3.147 1.12 1.753 2.474 2.915 4.628 4.048.335 1.461.864 2.661 1.977 3.691 2.405 2.21 7.77 6.418 17.291 7.06 7.16.468 12.268-1.678 14.205-2.621l2.325-1.22c-3.983 1.59-10.699 2.538-16.205 2.082-7.975-.655-15.122-5.868-15.98-7.376.272.176.646.326.947.46 9.345 4.508 21.426 6.935 36.872.68l1.287-1.238c-14.027 4.357-26.37 4.207-39.533-2.672.11-.643.412-1.24 1.032-1.682 3.373 1.472 6.586 2.727 10.553 3.494 4.58.871 9.874 1.03 14.196.853 4.348-.18 13.012-2.346 17.103-4.485.375-.34.562-.924.929-1.287-8.007 2.897-17.479 4.276-23.197 3.85-5.619-.404-10.572-1.073-17.138-4.06 1.251-.56 2.554-.975 3.881-1.32 4.313 1.32 8.713 2.101 13.956 2.342 5.147.236 17.242-1.704 24.827-6.293zm-49.712 1.64c.464-.444 1.05-.876 1.702-1.282 1.447.665 2.868 1.293 4.257 1.867a18.382 18.382 0 00-2.626 1.272 91.658 91.658 0 01-3.333-1.856zm.866-5.01c-1.138-.63-1.77-.838-2.789-1.655 3.663-3.11 11.095-4.868 13.856-5.465 8.68-1.89 16.769-3.045 20.076-3.873 4.041-1.02 6.869-1.965 8.836-2.875.108-.143 3.293 1.394 3.638 1.779-1.119.87-2.621 1.614-4.233 2.2-4.959 1.776-13.894 3.648-18.663 4.39-4.793.758-8.762 1.378-14.096 2.798-3.06.816-5.102 1.727-6.625 2.7zm-2.113 7.32c.784.478 1.597.943 2.425 1.361-.349.46-.567.815-.714 1.299-1.193-.977-1.732-1.771-1.71-2.66zm-2.662-6.662c.729.505 1.326.845 2.189 1.327-.34.31-.724.58-1.058.913-.787-.451-1.525-1.392-1.13-2.24zM131.18 37.05c-10.372 2.754-20.617 3.639-30.377 6.495C92.871 45.871 90.8 48.78 90.8 48.716c-3.49-4.794 8.606-8.21 10.898-8.904 5.862-1.735 12.697-3.086 18.922-3.822 4.288-.496 6.506-.033 10.559 1.059zm6.219-3.484c-.281.394-2.076 2.076-2.476 1.875-2.212-.635-4.188-1.362-6.821-1.83 1.57-.612 2.668-1.276 3.608-2.03 2.11.566 4.101 1.273 5.689 1.985zm.73-2.407c-1.42-.537-2.894-1.078-4.367-1.46.492-.523 1.207-1.287 1.373-1.954 1.303.85 2.826 2.113 2.994 3.414zm3.613 7.331c-.848-.594-1.722-.952-2.692-1.428.601-.473 1.169-.986 1.653-1.567 1.275 1.073 1.65 1.833 1.039 2.995zm-36.614 18.455a54.39 54.39 0 01-4.937-2.157 34.875 34.875 0 014.865-1.576c8.295-2.025 15.585-2.425 25.628-5.127 4.841-1.288 8.332-2.648 10.54-4.355.364-.272.686-.517.985-.775 2.914 4.526-8.029 7.975-15.495 9.567-4.14.878-9.864 1.876-11.722 2.194-4.874.826-6.506 1.268-9.864 2.23z" fill-opacity=".6"/></svg><svg viewBox="0 0 12 10" id="header-arrow" xmlns="http://www.w3.org/2000/svg"><path d="M10.788 1.672L4.114 8.346H.869m9.919-6.674l-6.563-.095m6.563.095l.094 6.562"/></svg><svg viewBox="0 0 80 81" id="next-arrow" xmlns="http://www.w3.org/2000/svg"><path fill-rule="evenodd" clip-rule="evenodd" d="M0 38.23c1.042-21.162 18.53-38 39.951-38 22.092 0 40 17.91 40 40 0 22.092-17.908 40-40 40-21.42 0-38.909-16.837-39.95-38h62.924l-9.314 9.314a2 2 0 002.829 2.829l12.727-12.728a2 2 0 000-2.829L56.44 26.088a2 2 0 00-2.829 2.829l9.314 9.313H0z"/></svg><svg viewBox="0 0 114 93" id="orv-icon" xmlns="http://www.w3.org/2000/svg"><path d="M72.39 57.658a8.068 8.068 0 00.614-3.086v-1.153h8.005v2.696a14.501 14.501 0 01-14.502 14.501H47.491a14.503 14.503 0 01-14.5-14.482V37.118a14.502 14.502 0 0114.5-14.502h2.544v7.996h-.98a8.057 8.057 0 00-8.06 8.068v15.892a8.055 8.055 0 008.06 8.058h15.881a8.06 8.06 0 007.453-4.972z" fill-opacity=".6"/><path fill-rule="evenodd" clip-rule="evenodd" d="M81.01 22.616H53.202v8.063h13.22L55.078 42.028l6.634 6.634 11.234-11.235v12.425h8.063V22.616zm-7.95 8.063l-.114.114v-.114h.115z" fill-opacity=".6"/></svg><svg viewBox="0 0 24 24" id="prev-arrow" xmlns="http://www.w3.org/2000/svg"><path d="M7 12h10M7 12l4-4m-4 4l4 4m10-4a9 9 0 11-18 0 9 9 0 0118 0z"/></svg><svg viewBox="0 0 379 89" id="ros-icon" xmlns="http://www.w3.org/2000/svg"><path d="M33.79 9.896l1.16-1.117V.123h1.312v12.814l-8.744 8.486V.122h1.314v14.554l1.164-1.123V.124h1.313v12.161l1.159-1.114V.123h1.322v9.773zm-8.777 4.784l-1.162-1.121V.125H22.53v12.16l-1.152-1.117V.125h-1.32v9.772L18.896 8.78V.125h-1.317v12.813l8.75 8.485V.125h-1.316V14.68zm2.507 13.852l8.744-8.488V14.61l-8.745 8.442v5.48zm8.744 12.997l-8.745 8.484v-5.804l8.745-8.435v5.755z" fill-opacity=".6"/><path fill-rule="evenodd" clip-rule="evenodd" d="M297.294 40.91h12.638v-4.52h-18.746v25.843h12.217c2.292 0 4.469-.264 6.376-2.148 1.256-1.24 2.253-3.197 2.253-5.837 0-2.825-1.224-4.788-3.167-6.105-1.987-1.357-3.939-1.508-5.956-1.508h-5.615V40.91zm4.926 16.806h-4.926v-6.714h4.771c.809 0 1.915.083 2.786.944.365.36.605.749.753 1.151.147.4.204.813.204 1.226 0 .718-.113 1.655-.957 2.482-.871.87-1.714.91-2.631.91zM101.135 36.39c2.257 0 4.772.074 6.948 1.538 1.455.946 3.169 2.833 3.169 6.184 0 3.692-2.365 8.025-8.894 8.025h-5.5v10.095H92.05V36.39h9.085zm.293 11.979c1.062 0 2.531.002 3.717-1.095.838-.756 1.3-2.033 1.3-3.124 0-1.02-.422-2.224-1.26-2.942-.841-.714-2.175-1.055-3.669-1.055h-4.658v8.216h4.57zm14.257-3.39c1.334-1.247 3.324-2.337 6.296-2.337 2.978 0 4.965 1.09 6.301 2.337 1.981 1.848 3.012 4.706 3.012 7.644 0 2.94-1.031 5.803-3.012 7.65-1.336 1.245-3.323 2.335-6.301 2.335-2.972 0-4.962-1.09-6.296-2.336-1.989-1.847-3.019-4.708-3.019-7.65 0-2.937 1.03-5.795 3.019-7.643zm3.246 13.07c.13.155.314.35.556.544.324.26.752.52 1.297.683.349.104.747.17 1.197.17 1.683 0 2.635-.903 3.053-1.396.307-.339 1.455-1.843 1.455-5.427 0-3.577-1.148-5.077-1.455-5.42a3.884 3.884 0 00-3.053-1.397c-.533 0-.993.092-1.386.232a3.896 3.896 0 00-1.664 1.164c-.303.343-1.456 1.844-1.456 5.42 0 3.585 1.153 5.09 1.456 5.428z" fill-opacity=".6"/><path d="M145.561 47.237c.494.718.878 1.85.955 2.828l4.046-.491c-.266-1.697-1.03-3.577-2.294-4.818-1.254-1.283-3.24-2.115-5.648-2.115-2.82 0-5.229 1.361-6.641 3.014-.993 1.172-2.252 3.358-2.252 7.01 0 3.915 1.415 6.405 2.901 7.796 1.107 1.02 2.98 2.148 5.879 2.148 2.592 0 4.427-.94 5.612-1.998 1.413-1.274 2.212-3.237 2.443-5.01l-4.046-.488c-.077.981-.461 2.11-1.03 2.904-.491.66-1.084 1.08-1.768 1.283-.33.099-.682.146-1.055.146-1.608 0-2.601-.978-3.095-1.73-.342-.54-.585-1.26-.748-2.049-.202-.977-.282-2.062-.282-3.044 0-1.09.074-3.498 1.03-5.043.611-1.016 1.602-1.771 3.095-1.771 1.522 0 2.436.755 2.898 1.428zm19.9 2.828c-.076-.977-.455-2.11-.954-2.828-.457-.673-1.377-1.428-2.904-1.428-1.484 0-2.478.755-3.09 1.77-.95 1.546-1.03 3.953-1.03 5.044 0 .756.048 1.572.162 2.353a9.947 9.947 0 00.281 1.343c.149.531.342 1.01.587 1.397a4.144 4.144 0 00.894.977 3.493 3.493 0 002.196.753c.387 0 .752-.05 1.093-.155.672-.207 1.254-.624 1.735-1.274.319-.441.579-.985.758-1.55.144-.452.237-.917.27-1.354l4.048.489c-.229 1.772-1.03 3.735-2.443 5.01-1.187 1.057-3.014 1.997-5.611 1.997-2.901 0-4.772-1.129-5.88-2.148-1.487-1.391-2.899-3.881-2.899-7.796 0-3.652 1.257-5.838 2.251-7.01 1.408-1.653 3.813-3.014 6.64-3.014 2.405 0 4.39.832 5.647 2.115 1.265 1.24 2.028 3.12 2.295 4.818l-4.046.491z" fill-opacity=".6"/><path fill-rule="evenodd" clip-rule="evenodd" d="M186.721 61.029c1.141-.793 2.517-2.11 3.201-4.371l-4.236-.53a3.477 3.477 0 01-.596 1.398 3.74 3.74 0 01-.32.403 4.57 4.57 0 01-1.037.856c-.367.22-.743.373-1.112.475a5.088 5.088 0 01-1.362.182c-1.297 0-3.171-.523-4.198-2.637-.662-1.334-.653-2.991-.652-3.315v-.032h13.821v-.869c0-2.185-.612-4.713-1.95-6.522-1.256-1.733-3.622-3.427-7.327-3.427-2.941 0-4.884 1.207-5.92 2.072-1.793 1.472-3.433 4.07-3.433 7.99 0 3.087 1.111 5.69 2.593 7.198 1.608 1.618 4.28 2.712 6.914 2.712 2.101 0 4.088-.568 5.614-1.583zm-1.825-13.043c.075.165.142.338.202.517.218.663.322 1.405.322 2.085h-8.892c0-1.392.533-2.557 1.142-3.314.765-.902 2.024-1.622 3.474-1.622 1.412 0 2.712.72 3.434 1.772.118.172.225.36.318.562z" fill-opacity=".6"/><path d="M209.081 43.02v19.212h-4.433V46.26h-5.036a288.891 288.891 0 01-.166 3.402l-.015.25c-.03.568-.058 1.121-.087 1.77l-.014.283c-.114 2.091-.326 6.038-1.972 8.237-.952 1.242-2.134 1.73-2.974 1.96a5.39 5.39 0 01-1.568.222l-.128-.002-.123-.004a3.516 3.516 0 01-.886-.145V58.92h.372c.577-.041 1.341-.34 1.84-.719 1.477-1.164 1.664-3.754 1.816-5.868l.015-.195a109.329 109.329 0 00.229-5.144l.014-.695.022-1.242.041-2.037h13.053z" fill-opacity=".6"/><path fill-rule="evenodd" clip-rule="evenodd" d="M223.074 49.873h-4.889v-6.852h-4.427v19.212h9.695c1.215 0 2.175-.22 2.895-.485l.1-.038.201-.081a6.555 6.555 0 00.861-.443c.195-.12.333-.222.417-.284l.032-.023c.874-.718 2.02-2.11 2.02-4.86 0-.263-.01-.582-.047-.934a7.374 7.374 0 00-.145-.888c-.202-.868-.606-1.813-1.405-2.586-1.603-1.583-4.055-1.738-5.308-1.738zm-1.41 9.196h-3.479l.001-6.03h3.479c.608 0 1.559.076 2.323.57.228.145.418.308.573.49a2.557 2.557 0 01.295.434l.03.06.04.086c.026.059.05.12.072.18.125.358.178.758.178 1.197a3.593 3.593 0 01-.107.874 2.888 2.888 0 01-.593 1.156 3.183 3.183 0 01-.295.307c-.768.635-1.678.676-2.517.676z" fill-opacity=".6"/><path d="M236.414 43.02l3.588 5.988 3.74-5.989h4.047l-5.689 8.704 6.756 10.51h-5.194L239.241 55l-4.657 7.232h-4.047l6.641-9.982-5.958-9.23h5.194z" fill-opacity=".6"/><path fill-rule="evenodd" clip-rule="evenodd" d="M258.573 42.642c-2.976 0-4.961 1.09-6.297 2.337-1.987 1.848-3.017 4.706-3.017 7.644 0 2.94 1.03 5.802 3.017 7.65 1.336 1.245 3.321 2.335 6.297 2.335 2.98 0 4.966-1.09 6.3-2.336 1.981-1.846 3.019-4.708 3.019-7.65 0-2.937-1.038-5.795-3.019-7.643-1.334-1.247-3.32-2.337-6.3-2.337zm0 16.803c-1.678 0-2.635-.902-3.049-1.395-.139-.153-.449-.543-.747-1.256a8.447 8.447 0 01-.498-1.72l-.007-.032-.018-.098-.022-.134a11.407 11.407 0 01-.088-.672 15.028 15.028 0 01-.075-1.516c0-3.576 1.148-5.077 1.455-5.42.414-.492 1.371-1.395 3.049-1.395 1.118 0 1.914.398 2.446.81.118.09.223.182.315.27.119.114.219.222.299.315.3.344 1.446 1.844 1.446 5.42 0 3.585-1.146 5.09-1.446 5.428a3.908 3.908 0 01-3.06 1.395z" fill-opacity=".6"/><path d="M270.251 48.218c.572-2.335 2.062-3.615 3.13-4.258.648-.412 2.441-1.32 5.493-1.32 1.042 0 2.095.101 3.072.322.815.184 1.578.451 2.239.811 2.134 1.164 2.669 2.862 2.669 4.069 0 1.32-.653 3.84-3.969 4.216v.08c1.142.154 2.407.643 3.168 1.429.471.487.867 1.204 1.072 2.017.096.378.149.777.149 1.183 0 1.926-1.143 3.618-2.597 4.562-1.757 1.129-4.166 1.28-5.951 1.28-1.799 0-4.544-.185-6.456-1.693-1.065-.831-2.057-2.26-2.366-4.07l4.009-.68c.148.6.498 1.508.955 2.034.997 1.133 2.557 1.245 3.549 1.245.995 0 2.065-.113 2.904-.681.761-.523 1.143-1.242 1.143-2.185 0-.442-.048-.837-.211-1.198a2.183 2.183 0 00-.628-.795c-.88-.715-2.06-.828-3.165-.828h-2.025v-2.941h2.025a8.148 8.148 0 001.852-.23c.236-.062.451-.136.627-.221.801-.418 1.258-1.094 1.258-2.185 0-.605-.233-1.17-.799-1.621-.884-.715-2.14-.754-2.787-.754-.882 0-2.176.11-3.246 1.018a3.626 3.626 0 00-.999 1.336 3.742 3.742 0 00-.264.886l-3.851-.828z" fill-opacity=".6"/><path fill-rule="evenodd" clip-rule="evenodd" d="M315.173 48.368c.611-2.6 2.329-3.918 3.361-4.521 1.524-.869 3.548-1.207 6.07-1.207 3.207 0 6.452.415 7.901 3.394.7 1.42.692 2.934.686 4.279v7.775c0 1.545.228 2.979.572 4.145h-5.532c-.156-.753-.267-1.772-.307-3.05-.729 1.278-2.485 3.43-6.526 3.43a9.641 9.641 0 01-2.786-.394c-.787-.24-1.509-.594-2.104-1.073a5.278 5.278 0 01-1.564-2.126 5.768 5.768 0 01-.421-2.173c0-1.922.841-4.224 4.162-5.578 2.137-.865 5.612-1.166 7.177-1.241l1.831-.08v-.413c0-.244-.008-.619-.07-1.01a3.782 3.782 0 00-.127-.553l-.028-.08a2.389 2.389 0 00-.058-.15l-.052-.111a1.627 1.627 0 00-.236-.357c-.726-.828-2.177-.865-2.756-.865-.342 0-.715.014-1.092.07-.498.072-1.004.217-1.46.494a2.97 2.97 0 00-1.371 1.96l-5.27-.565zm10.807 4.785c-1.912.15-3.821.341-4.891 1.655-.177.22-.354.504-.472.857a2.774 2.774 0 00-.138.88c0 .279.047.528.126.748a2.03 2.03 0 00.71.945c.54.417 1.338.605 2.102.605 1.146 0 2.484-.488 3.246-1.391.115-.12 1.03-1.25 1.03-3.43v-1.02l-1.713.151z" fill-opacity=".6"/><path d="M343.301 50.215v-7.196h-5.694v19.213h5.694V54.17h6.142v8.063h5.684V43.02h-5.684v7.196h-6.142zm21.937-7.195v7.384h1.528c1.637 0 2.326-.794 2.743-1.659a9.26 9.26 0 00.452-1.15c.122-.38.215-.74.304-1.09l.011-.037c.185-.718.358-1.386.727-2.053.332-.611.727-.958 1.097-1.156a2.23 2.23 0 01.734-.24h4.693a9.193 9.193 0 00-1.489 2.07c-.214.437-.423.97-.62 1.517-.261.727-.5 1.476-.696 2.05-.076.225-.145.422-.207.581-.46 1.204-1.224 2.41-3.171 2.562v.071c1.033.155 2.099.68 2.902 1.85.234.34.434.73.639 1.203.225.524.454 1.15.735 1.923.23.648.403 1.114.566 1.527l.18.45.186.45.327.774c.382.869.608 1.395 1.258 2.185h-5.342a2.104 2.104 0 01-.9-.524c-.413-.408-.785-1.083-1.198-2.263a32.427 32.427 0 01-.284-.834l-.087-.274-.162-.524c-.136-.45-.244-.8-.424-1.235l-.27-.673c-.571-1.433-1.335-1.737-2.513-1.737h-1.719v8.064h-5.686V43.02h5.686zM36.264 27.151l-8.745 8.486V30.16l8.745-8.44v5.431zm0 7.109l-8.745 8.484v-5.477l8.745-8.44v5.433zM17.58 41.527l8.752 8.485V44.21l-8.753-8.434v5.75zm0-21.483l8.752 8.486v-5.48l-8.753-8.439v5.433zm8.752 15.593l-8.753-8.483V21.72l8.753 8.44v5.477zM17.58 34.26l8.752 8.485v-5.478l-8.753-8.438v5.431z" fill-opacity=".6"/><path fill-rule="evenodd" clip-rule="evenodd" d="M69.7 38.739c.603 0 1.1.498 1.1 1.107v.672a1.11 1.11 0 01-1.1 1.108h-3.133v.946h1.56v1.334h-1.56v1.38h1.56v2.542h-1.56v-1.151h-2.315v1.151h-1.564v-2.542h1.564v-1.38h-1.564v-1.334h1.564v-.946H48.425c.446.692.709 1.505.709 2.39 0 2.499-2.059 4.522-4.593 4.522-2.53 0-4.58-2.023-4.58-4.522 0-.983.322-1.886.857-2.627a1.442 1.442 0 01-.663-1.205c0-.51.267-.952.663-1.213a4.539 4.539 0 01-.709-1.484l-.044-.181a4.204 4.204 0 01-.048-.248l-.025-.18a4.336 4.336 0 01-.021-.251 4.324 4.324 0 01-.01-.28c0-2.495 2.05-4.523 4.58-4.523 2.534 0 4.593 2.028 4.593 4.523a4.363 4.363 0 01-.709 2.392h21.274zm-25.16 7.606c1.307 0 2.368-1.04 2.368-2.329 0-.161-.032-.36-.085-.578a7.468 7.468 0 00-.206-.69c-.328-.95-.819-1.95-.819-1.95v-1.232s.48-.98.808-1.921c.172-.491.302-.972.302-1.297 0-1.285-1.061-2.332-2.368-2.332a2.376 2.376 0 00-1.449.493 2.35 2.35 0 00-.527.567 2.305 2.305 0 00.004 2.552l.66 1.1a1.92 1.92 0 00-.667 1.456c0 .577.26 1.098.666 1.448l-.659 1.1c-.247.37-.388.812-.388 1.284 0 1.288 1.06 2.329 2.36 2.329z" fill-opacity=".6"/><path d="M9.622 35.988v5.64c0 5.39 2.38 8.85 3.747 10.201.803.78 8.938 8.678 9.05 8.79 2.534 2.441 2.977 3.246 3.54 4.634v-6.247c0-5.101-2.401-7.34-3.934-8.768a33.59 33.59 0 01-.395-.372c-3.425-3.302-5.724-5.474-7.572-7.293-3.51-3.465-4.436-6.585-4.436-6.585zm7.993 23.977c1.15 1.103 2.467 2.365 4.015 3.858l.305.286.085.08c1.532 1.424 3.937 3.66 3.937 8.77v6.6l-.034-.083c-.547-1.352-1.021-2.519-3.501-4.907-.1-.102-8.254-7.977-9.059-8.748-1.262-1.411-3.744-4.853-3.744-10.239v-4.87s.931 2.35 4.438 5.815c1.013.996 2.161 2.1 3.558 3.438z" fill-opacity=".6"/><path d="M39.671 10.566c-.635 0-1.26.013-1.879.041v2.64a41.012 41.012 0 011.88-.046c20.222 0 36.616 16.184 36.616 36.146 0 19.96-16.394 36.14-36.617 36.14-20.227 0-36.623-16.18-36.623-36.14 0-11.08 5.053-20.993 13.002-27.621V18.35C6.531 25.428.378 36.676.378 49.346c0 21.42 17.59 38.777 39.293 38.777 21.696 0 39.287-17.357 39.287-38.777 0-21.417-17.591-38.78-39.287-38.78z" fill-opacity=".6"/><path d="M69.192 67.058a35.724 35.724 0 01-1.73 2.535v-7.74h1.73v5.205zm3.31-7.098c.247-.747.469-1.508.662-2.27h-5.701v1.383h.866c1.52-.04 3.217-.06 4.173.888zM33 57.5h1.546v15.467H33V57.5z" fill-opacity=".6"/><path fill-rule="evenodd" clip-rule="evenodd" d="M29.437 54.517h5.109c1.318 0 2.237.271 2.777.78.54.5.785 1.406.785 2.711v14.447c0 1.312-.245 2.218-.785 2.723-.811.797-2.297.797-3.54.797-.272-.026-.543-.026-.783-.026v6.849c.511.101 1.024.192 1.546.27v-5.626c2.349 0 3.893-.79 4.616-2.381v8.372l.213.005.296.003c.324 0 .647-.004.97-.015V58.279c0-1.335.276-2.268.784-2.798.242-.254.577-.447 1.001-.58.47-.148 1.048-.221 1.73-.221.177 0 .366-.004.562-.007 1.265-.023 2.833-.052 3.703.808.516.53.754 1.463.754 2.798v7.405h-3.5v-7.917h-1.52v25.388c.221-.028.44-.058.66-.091.286-.042.571-.088.86-.135V67.177h3.5V82.13c.724-.203 1.435-.43 2.134-.673V67.769c0-1.546.378-2.72 1.977-3.25l-1.761-9.523h3.541l.59 10.4h.434l.595-10.4h3.73l-1.998 9.523c1.674.583 1.999 1.595 1.999 3.25v8.84a33.103 33.103 0 002.97-2.476V54.917h10.37c.07-.455.139-.921.197-1.384H49.687l.345 1.719c-.77-1.392-2.228-2.092-4.357-2.092h-1.52c-2.572 0-4.135 1.01-4.724 3.025-.553-2.11-2.182-3.16-4.885-3.16h-6.648v28.382c.286.104.575.202.866.297l.584.19.09.029V54.517zm32.218 10.93l-1.674-1.575 1.674-8.54v10.116z" fill-opacity=".6"/><path d="M56.66 79.037c-.523.29-1.056.568-1.595.835V67.336h1.595v11.7z" fill-opacity=".6"/></svg><svg viewBox="0 0 268 92" id="rusGidro-icon" xmlns="http://www.w3.org/2000/svg"><g filter="url(#ma)" fill-opacity=".6"><path d="M134.917 10.084a4.258 4.258 0 00-.933-.083h-.175a35.754 35.754 0 00-32.007 19.849c3.419-3.582 8.791-7.11 16.05-10.535 3.292-1.55 10.515-4.955 14.472-7.33.654-.396 2.74-1.828 2.593-1.901zm2.355 48.416c-12.939 5.375-24.109 10.07-24.598 15.148-.04.482.016.967.166 1.427-9.309-6.68-13.055-15.98-13.798-20.939-.762-5.111 6.794-9.617 20.119-15.671 3.77-1.7 7.722-3.362 11.551-4.965 12.944-5.375 24.109-10.07 24.597-15.148a3.574 3.574 0 00-.156-1.442c9.31 6.695 13.056 15.994 13.798 20.954.762 5.111-6.799 9.612-20.118 15.666-3.542 1.612-7.288 3.18-10.93 4.706l-.631.264z"/><path d="M103.976 29.537l-.455.43-.327.323-.088.088-.278.288-1.534 1.784-.249.337-.044.058-.244.352a14.03 14.03 0 00-1.094 1.91c-.265.9-.47 1.816-.616 2.742-.361 2.414 1.09 4.75 4.557 7.33 3.908-2.732 9.52-5.414 15.02-7.911 3.746-1.7 7.702-3.357 11.531-4.955l2.164-.904c-7.053-2.99-13.949-6.138-17.315-9.221-4.356 2.267-7.888 4.579-10.506 6.88l-.425.381-.097.088zm14.765 39.103a19.744 19.744 0 00-3.058 2.316l-.122.112-.127.132-.049.054c-.233.242-.45.5-.649.772l-.376.606a3.65 3.65 0 00-.225.488l-.078.254v.846l.029.195v.069l.23.625.044.088.044.078.058.093.538.694.004.005c.106.11.207.216.318.318l.879.713.142.103.083.058.185.127c.232.153.477.303.738.45l.073.039c.288.151.586.303.889.45l.069.034c4.674 2.174 11.487 3.127 14.774 2.638.607-.497 1.248-.95 1.92-1.353a1.532 1.532 0 00-.059-.26c-.425-1.147-2.769-4.505-16.274-10.745zm19.082-8.958c3.84-1.603 7.806-3.264 11.562-4.97 5.494-2.497 11.102-5.18 15.014-7.906 3.468 2.575 4.918 4.916 4.557 7.33-.107.937-.315 1.86-.62 2.751a10.462 10.462 0 01-1.368 2.301l-.303.411c-.134.187-.284.37-.443.565l-.045.056-.459.532-.225.244-2.007 1.955-.445.386-.435.362-.068.053-.532.426-.489.371-.073.054a60.356 60.356 0 01-8.435 5.204c-3.366-3.084-10.267-6.235-17.32-9.23l2.134-.895z"/><path d="M133.081 81.916c.307.062.62.09.933.083h.176a35.72 35.72 0 0018.832-5.37 35.743 35.743 0 0013.175-14.494c-3.419 3.587-8.792 7.115-16.05 10.536-3.292 1.549-10.511 4.95-14.467 7.33-1.226.747-2.921 1.876-2.599 1.915zm16.294-58.638h-.269c-13.368-6.197-15.693-9.534-16.049-10.707a1.527 1.527 0 01-.059-.249c.672-.405 1.314-.86 1.919-1.358a12.828 12.828 0 012.032-.147 34.309 34.309 0 0112.802 2.81c.139.074.276.145.414.216.171.089.343.178.519.272l.396.23c.127.073.249.151.366.23l.234.16.069.05 1.133.918.068.064.381.425.049.064.43.689.034.073.088.23v.078l.044.166v.89l-.044.204v.074l-.127.371-.073.166-.533.86a6.78 6.78 0 01-.302.377l-.596.62-.396.362-.317.268-.826.64c-.41.318-.899.636-1.387.954z"/></g><defs><filter id="ma" x="38.99" y="-50" width="190.02" height="192" filterUnits="userSpaceOnUse" color-interpolation-filters="sRGB"><feFlood flood-opacity="0" result="BackgroundImageFix"/><feGaussianBlur in="BackgroundImageFix" stdDeviation="30"/><feComposite in2="SourceAlpha" operator="in" result="effect1_backgroundBlur_52_428"/><feBlend in="SourceGraphic" in2="effect1_backgroundBlur_52_428" result="shape"/></filter></defs></svg><svg viewBox="0 0 131 92" id="rzd-icon" xmlns="http://www.w3.org/2000/svg"><path d="M89.645 26.745v-1.881a4.348 4.348 0 011.096-3.435 4.519 4.519 0 013.5-1.08h11.108c4.024 0 10.028 0 13.986 4.008 3.959 4.008 4.025 9.897 4.025 12.024v6.461c0 2.127 0 8.016-4.025 12.024-4.023 4.008-10.01 4.008-14.035 4.008h-6.936c-3.452 0-6.003 0-8.18-1.03a17.685 17.685 0 01-5.381-5.367l-1.637-2.142-.146-.197a6.917 6.917 0 01-1.735-4.073 7.127 7.127 0 011.931-4.302l6.429-8.507h16.08L95.272 47.161a3.734 3.734 0 00-1.096 3.86c.688 1.456 2.404 1.456 3.763 1.456h7.786a5.003 5.003 0 003.746-1.095 5.173 5.173 0 001.048-3.747V31.587a5.172 5.172 0 00-1.048-3.746 5.004 5.004 0 00-3.746-1.096h-16.08zM7.671 37.739a4.424 4.424 0 011.112-3.485 4.469 4.469 0 013.502-1.096H39.21c3.501 0 6.004 0 8.18 1.096a17.457 17.457 0 015.382 5.35l1.635 2.142a6.933 6.933 0 011.996 4.204 7.08 7.08 0 01-2.029 4.27l-6.543 8.54h-16.03l10.436-13.905a3.901 3.901 0 001.062-1.767c.19-.673.196-1.385.017-2.061-.67-1.473-2.453-1.473-3.746-1.473H27.007v32.129H14.101v-32.08H7.67V37.74z" fill-opacity=".6"/><path d="M86.455 33.158h-16.08L51.072 58.825h16.064l19.32-25.667z" fill-opacity=".6"/></svg><svg viewBox="0 0 81 81" id="telegram" xmlns="http://www.w3.org/2000/svg"><circle cx="40.64" cy="40.821" r="40" fill-opacity=".1"/><g clip-path="url(#oa)"><path d="M56.42 27.734L50.592 54.89c-.44 1.917-1.587 2.394-3.216 1.49l-8.881-6.464-4.285 4.071c-.475.469-.871.86-1.785.86l.638-8.935 16.46-14.693c.715-.63-.156-.98-1.113-.35L28.062 43.527l-8.76-2.708c-1.906-.588-1.94-1.883.396-2.786l34.265-13.04c1.587-.588 2.975.349 2.457 2.742z"/></g><defs><clipPath id="oa"><path transform="translate(14.64 24.82)" d="M0 0h48v32H0z"/></clipPath></defs></svg><svg viewBox="0 0 384 93" id="uznayMSK-icon" xmlns="http://www.w3.org/2000/svg"><path fill-rule="evenodd" clip-rule="evenodd" d="M145.051 30.703c1.727-.011 3.226-.565 3.932-1.99l.806-2.183-.012-.001a43.273 43.273 0 00-1.645-.135c-.257 1.798-1.411 2.354-3.166 2.354-1.797 0-2.824-.77-2.952-2.354-.422.023-.839.062-1.255.1l-.204.019.393 1.696.252.498c.795 1.512 2.02 1.969 3.851 1.996zm7.486-3.881c-.17 4.796-2.737 7.324-7.485 7.324-4.621 0-7.316-2.528-7.444-7.324.218-.026.436-.05.655-.074l.46-.051.358 1.698h-.001l.223 1.057.004.015c.959 2.111 2.972 3.303 5.386 3.303h.076l.159-.001.127-.001c2.476.012 4.768-1.07 5.825-3.294h.001v-.003l.261-1.078.408-1.683c.164.02.329.038.494.056l.493.056zm-13.359 2.116l-.131-.54h-.001l.132.54zM67.584 38.03h-2.106v25.832h2.106V51.483h15.049v14.273h-2.906V53.72h-9.24v12.035H62.66V35.773h7.828v10.879h9.24V35.774h2.905v13.562h-15.05V38.029zm15.05 27.726h2.06v-1.894h-2.06v1.895zm214.022-1.935V35.774h-2.775v29.982h7.784V54.32c.985 0 1.924 0 2.952-.172l6.587 11.607h3.551l-1.185-1.935-7.54-12.3 7.498 12.3h-.002l-7.498-12.3a17.638 17.638 0 01-3.721.436h-3.461V63.82h-2.19zM116.97 59.69l1.936 4.17h2.33l.595 1.282-.594-1.281h.028-.028l-11.32-24.392-.152-.327h-1.298l-.22.474-12.103 26.14h-2.128V64.64l13.476-29.253h3.294l13.518 29.253v1.115h-7.487l-1.753-3.77h-11.808l-1.753 3.77h-2.999l2.916-6.135h15.518l.032.07zm91.775 6.066h2.062V63.82h-2.062V45.722l-9.753 10.2-9.575-10.176v20.01h2.862V52.391l6.332 6.682h.857l6.373-6.682v13.363h2.904zm-194.34 0h-3.01l14.679-29.982h2.532v1.156L14.405 65.756zM7.153 38.027l7.99 15.193 7.346-15.193h.104l1.104-2.253h-3.39l-5.133 11.05h-.214l-5.647-11.05h-3.4l1.193 2.253h.047zM.758 35.774h2.758l10.487 19.79-4.895 10.192h-2.96v-.814l4.706-9.68L.758 36.93v-1.156zM15.144 53.22l7.45-15.193h-.104L15.144 53.22zm69.55 12.535V35.774h2.863v29.981h-2.862zm24.424-18.203l3.465 7.882h-6.845l3.38-7.882zm.024-4.755l-6.79 14.719h13.654l-6.864-14.719zm29.749 7.667v-14.69h-2.862v21.463c2.422-2.385 4.832-4.744 7.241-7.103l.002-.002c2.948-2.886 5.895-5.772 8.863-8.701l.237-.233h1.623v24.557h2.82v-30.11h-2.78l-15.144 14.82zm-3.48 10.272l.238-.226c2.998-2.873 5.897-5.733 8.793-8.59l.001-.001.001-.001.001-.001h.001v-.001l.001-.001.001-.001h.001v-.001l.001-.001.001-.001h.001v-.001l.001-.001.001-.001c2.448-2.415 4.893-4.828 7.396-7.245v21.093h-2.949V51.022L133.8 65.8h-2.738V35.774h2.864v24.962h1.485zm63.585-12.028l-11.722-13.02h-2.824v30.067h2.906V42.313h1.727L199 52.902l10.042-10.59h1.765v23.443h2.862V35.688h-2.738l-11.935 13.021zm38.634-13.402v2.869c2.718.221 5.376 1.273 7.447 3.183 2.347 2.162 3.894 5.43 3.89 9.651.004 4.221-1.544 7.494-3.895 9.66-2.068 1.911-4.726 2.966-7.442 3.187v2.483c7.289-.48 14.24-5.65 14.24-15.532 0-9.862-6.951-15.022-14.24-15.5zM224.101 51.01c-.003 4.222 1.544 7.495 3.893 9.66 2.105 1.944 4.816 2.995 7.58 3.193v2.485c-7.353-.406-14.42-5.576-14.42-15.54 0-9.943 7.067-15.102 14.42-15.508v2.87c-2.763.202-5.47 1.255-7.575 3.195-2.351 2.16-3.901 5.43-3.898 9.645zm5.114 1.796h-2.923c.785 6.116 5.4 8.985 10.161 9.03 4.803-.04 9.517-2.981 10.319-9.03h-2.919c-1.6 8.211-13.038 8.211-14.638 0zm-.174-2.327h-2.851c.273-6.966 5.186-10.217 10.263-10.266 5.129.044 10.152 3.38 10.427 10.266h-2.852c-.305-10.345-14.682-10.345-14.987 0zm53.788 5.84h-.001l.646-2.084h2.79c-1.111 8.48-7.828 11.821-14.203 11.821-7.613.043-15.315-5.097-15.358-15.29.043-10.194 7.745-15.335 15.358-15.335 6.204 0 12.92 3.385 14.075 11.394h-2.563l-.761-1.722-.535-1.208-.004-.006c-2.108-3.829-5.953-5.787-10.212-5.774-3.086 0-6.18 1.127-8.519 3.313-2.34 2.183-3.897 5.437-3.889 9.539-.006 4.063 1.531 7.303 3.855 9.484 2.319 2.184 5.392 3.323 8.469 3.326l.016-.002h.006l.032.002h.059c4.361 0 8.438-2.22 10.377-6.29l.252-.53-.252.53.362-1.169zm-21.114-5.352c.013-7.038 5.221-10.804 10.348-10.832 3.624.017 6.527 1.482 8.272 4.552l.885 2.139h-2.613c-1.069-3.042-3.337-4.412-6.544-4.412-4.491 0-7.444 3.383-7.444 8.352 0 4.411 2.908 8.265 7.444 8.309 3.25 0 5.86-1.627 6.674-4.84h2.466l-.71 2.524c-1.763 3.37-4.687 4.933-8.43 4.955-5.132-.03-10.335-3.755-10.348-10.747zm46.069-2.306c-1.409.747-3.445 1.32-5.52 1.316h-3.418V35.774h2.819v11.35h.556c7.308 0 7.291-5.227 7.275-10.58-.002-.257-.002-.513-.002-.77h2.904v3.116c-.017 4.789-1.408 8.062-4.614 9.77zm9.581-12.886h-2.909l.004 3.111v.193c.035 4.822-1.574 9.608-6.455 11.74l9.175 14.938h2.538v-1.2l-8.127-13.192c5.782-3.707 5.779-9.157 5.774-15.087v-.503zm31.442 9.208c0 1.799-.898 3.983-2.353 5.183 2.439 1.242 3.594 3.47 3.594 6.124-.043 5.227-3.209 9.466-9.326 9.466H326.69v-2.15h2.776v.002h11.171c3.794-.036 6.663-3.483 6.675-7.116-.004-2.538-1.515-4.947-3.797-5.947 1.594-1.278 2.525-3.438 2.559-5.36-.005-3.69-2.947-6.804-6.634-6.813h-9.974v.006h-2.776v-2.603h12.792c5.176 0 9.325 4.026 9.325 9.208zM326.69 61.407h2.775V40.434h-2.775v20.973zm7.401-13.94h4.834c3.039 0 3.039-4.84-.043-4.84h-4.791v4.84zm5.349-7.077c2.498.006 4.568 2.225 4.571 4.794-.008 2.628-1.963 4.75-4.571 4.75h-7.912V40.39h7.912zm-5.349 13.459h6.075c3.081 0 3.122 5.096.043 5.096h-6.118v-5.096zm-2.563 7.692h9.109c1.208.003 2.357-.581 3.22-1.524.858-.943 1.397-2.23 1.395-3.526-.004-2.575-2.091-4.529-4.615-4.535h-9.109v9.585zm28.474-23.514h-.099.099l9.152 17.537-5.085 10.191h-2.77v-.813l4.707-9.68-10.097-18.332v-1.156h2.916l1.177 2.253zm17.416.463l1.229-2.716h-3.188l-5.133 11.05h-.215l-5.647-11.05h-3.241l9.072 17.45 7.123-14.734zm-10.004 25.414l13.514-28.13h2.83v1.156l-14.203 28.826h-3.23l.902-1.852h.187zM34.775 57.719v.003l-.001-.003h-.001l.002.004v.011h.002l.187.734c.99 3.688 4.021 5.65 7.757 5.651h.132c5.344.048 8.416-3.368 8.516-7.168.005-.1.007-.203.007-.306.015-2.708-1.548-5.376-4.436-6.694 1.954-1.329 2.983-3.579 2.976-5.766.002-1.623-.56-3.257-1.754-4.49-1.189-1.235-3.001-2.015-5.31-2.01-3.21-.016-5.636 1.219-6.57 3.458l-.629 2.169h-2.299c-.256-5.525 4.236-8.095 9.455-8.095 6.545 0 9.839 4.326 9.839 8.694 0 1.971-.855 4.241-2.61 5.569 3.038 1.627 4.322 4.026 4.322 7.41 0 5.31-3.85 9.422-11.551 9.422-6.502 0-10.481-3.597-10.481-10.322h2.447v1.729zm.002.015l-.002-.012v.012h.002zm4.268-1.744c0 2.355 1.541 3.855 3.765 3.855 5.134 0 5.134-6.81 0-6.81h-2.096V46.78h2.011c3.764 0 3.68-5.225.085-5.225-1.669 0-2.652.643-2.652 1.755h-2.343l.39-1.508c.636-1.41 2.333-2.092 4.649-2.096 3.605.046 4.976 2.176 5.031 4.489-.017 2.298-1.505 4.58-4.338 4.882h-.929v2.064h.927c3.955.338 5.794 2.983 5.82 5.587-.043 2.678-1.936 5.325-6.511 5.37-3.02-.027-5.165-1.493-5.932-4.08l-.078-.3h-.03v-1.73h2.231z" fill-opacity=".6"/></svg><svg viewBox="0 0 156 92" id="vdnh-icon" xmlns="http://www.w3.org/2000/svg"><path d="M74.444 9.012h6.706V6h-6.706v3.012zm8.03 11.083h-9.109V17.06h9.11v3.036zm-26.387 2.828a1.51 1.51 0 01-.994-1.421c0-.83.648-1.495 1.48-1.495.81 0 1.458.664 1.458 1.495 0 .663-.394 1.208-.972 1.398l1.41 2.941h-3.792l1.41-2.918zm-13.265.12l2.218-3.035 2.197 3.035-2.197 3.035-2.218-3.035zm71.079 7.741H41.744v-3.035H113.9v3.035zm-24.854 5.53h7.976v28.38h3.791v-28.38h7.769v28.38h3.792v-28.38h1.525v-3.035H41.744v3.035h1.526v28.38h3.792v-28.38h7.721l.048 28.38h3.767v-28.38h7.978v28.38h3.813V45.438c0-1.061.033-1.864.136-2.555l.036-.229.04-.202c.033-.154.071-.304.112-.452.531-1.945 1.688-3.955 3.19-4.88 1.132-.712 2.476-1.02 3.908-1.02a9.861 9.861 0 011.212.075c.095.013.19.026.283.042l.16.029.17.034c.563.119 1.098.3 1.598.555 1.686.854 3.028 2.983 3.606 4.975.299.996.392 2.016.392 3.628v19.256h3.815v-28.38z" fill-opacity=".6"/><path fill-rule="evenodd" clip-rule="evenodd" d="M54.464 78.321a3.931 3.931 0 00-1.584-1.286v-.117c.832-.452 2.08-1.542 2.08-3.795 0-2.442-1.433-3.77-2.982-4.197-.9-.238-1.803-.26-2.612-.26h-6.544V86h6.444l.435-.004c.308-.005.622-.016.937-.043a7.19 7.19 0 001.547-.286c1.734-.498 3.1-2.133 3.1-4.694 0-1.072-.322-1.966-.821-2.652zm-3.365-2.495c-.463.285-1.016.356-1.62.356h-3.974v-5.218h3.86c.625 0 1.112.049 1.502.215.81.284 1.366 1.066 1.366 2.252 0 1.21-.464 2.016-1.134 2.395zm.07 2.87c.717.308 1.318 1.02 1.318 2.277 0 1.375-.531 2.204-1.434 2.56a2.454 2.454 0 01-.211.066 3.19 3.19 0 01-.293.061c-.143.024-.295.04-.452.05l-.162.008-.269.005h-4.161v-5.264h4.207c.463 0 .994.047 1.457.237zm23.718 7.302l1.803-2.536-3.932.071V68.664h-5.64l-9.203 17.334h16.972zm-4.763-15.223V83.65h-8.44l6.682-12.876h1.758z" fill-opacity=".6"/><path d="M66.54 25.623h22.47v-3.035H66.54v3.035zM80.112 11.53h-4.948l2.473 3.415 2.475-3.415zm14.363 57.134V86h-2.683v-8.04h-8.577V86h-2.66V68.664h2.66v6.925h8.577v-6.925h2.683zm3.054-47.162c0 .255.058.493.162.7a1.395 1.395 0 00.808.699l-1.41 2.94h3.792l-1.41-2.918c.578-.213.994-.758.994-1.421 0-.83-.648-1.495-1.48-1.495a1.434 1.434 0 00-1.112.524 1.46 1.46 0 00-.227.378 1.562 1.562 0 00-.117.593zm8.681 57.43l-4.647 7.067h-2.681l6.057-8.94-5.78-8.395h3.215l4.207 6.119 3.998-6.119h2.59l-5.34 7.968L114.257 86h-3.193l-4.854-7.067zm4.213-58.924l-2.197 3.035 2.197 3.035 2.219-3.035-2.219-3.035z" fill-opacity=".6"/></svg><svg viewBox="0 0 130 93" id="vshe-icon" xmlns="http://www.w3.org/2000/svg"><path fill-rule="evenodd" clip-rule="evenodd" d="M30.405 42.179a12.668 12.668 0 00-3.13-1.981c.434-.362.845-.761 1.23-1.2 3.908-4.473 3.424-11.246-1.081-15.127a10.801 10.801 0 00-7.078-2.623l-15.301-.001v45.575h29.701v-15.1a12.448 12.448 0 00-4.341-9.543zm-1.959 21.068h-5.4V48.055h-6.3v15.192h-5.401V24.821h6.3a7.194 7.194 0 016.974 5.362h-6.073v3.574h6.07a7.19 7.19 0 01-6.964 5.362h-2.707v3.574h4.501a9.006 9.006 0 015.899 2.187 8.902 8.902 0 013.102 6.75v11.617z" fill-opacity=".6"/><path d="M65.093 29.767v15.258H60.78v-5.95H54.9v5.95h-4.313V29.767h4.312V35.5h5.88v-5.733h4.314zm6.932 15.489a14.655 14.655 0 001.467.074c1.452 0 2.687-.218 3.703-.654 1.016-.45 1.779-1.046 2.287-1.787.508-.741.762-1.57.762-2.485 0-1.06-.282-1.897-.85-2.507a4.747 4.747 0 00-1.98-1.351c-.757-.291-1.714-.56-2.876-.807-1.031-.218-1.78-.428-2.243-.632-.465-.203-.698-.508-.698-.915 0-.407.197-.734.588-.981.392-.262 1.017-.392 1.874-.392 1.365 0 2.773.392 4.226 1.177l1.328-3.205c-.74-.435-1.598-.762-2.57-.98a12.739 12.739 0 00-2.963-.35c-.765 0-1.47.06-2.113.18a7.585 7.585 0 00-1.612.475c-1 .436-1.756 1.032-2.265 1.787a4.335 4.335 0 00-.762 2.507c0 1.06.276 1.903.828 2.528.195.22.403.42.625.6a4.866 4.866 0 001.357.773c.77.276 1.728.538 2.875.785 1.046.233 1.8.458 2.265.676.48.203.72.523.72.959 0 .828-.829 1.242-2.484 1.242a8.594 8.594 0 01-1.536-.14 9.744 9.744 0 01-1.122-.274c-.9-.276-1.69-.64-2.373-1.09l-1.416 3.182c.726.51 1.67.916 2.832 1.221.176.046.353.09.53.129l.201.042.145.029c.411.08.829.141 1.25.184zm22.453-3.566v3.335h-12.24V29.767h11.957v3.335h-7.688v2.572h6.773V38.9h-6.773v2.79h7.971z" fill-opacity=".6"/><path fill-rule="evenodd" clip-rule="evenodd" d="M57.796 51.564h-7.21V66.82h7.21c1.67 0 3.15-.312 4.443-.937 1.292-.625 2.294-1.511 3.006-2.659.712-1.148 1.067-2.492 1.067-4.032s-.355-2.885-1.067-4.033c-.712-1.148-1.714-2.034-3.006-2.66-1.292-.624-2.773-.936-4.443-.936zm2.963 10.702c-.785.74-1.83 1.112-3.137 1.112h-2.723v-8.37h2.723a5.907 5.907 0 011.281.136c.074.018.148.037.219.057.633.18 1.18.486 1.637.918.798.741 1.197 1.766 1.197 3.074 0 1.307-.4 2.332-1.197 3.073z" fill-opacity=".6"/><path d="M68.385 55.008h4.139V66.82h-4.139V55.008zm2.069-1.308c-.256 0-.495-.024-.717-.073a2.368 2.368 0 01-1.112-.56 2.033 2.033 0 01-.697-1.569c0-.624.232-1.148.697-1.569a2.303 2.303 0 01.97-.524 3.23 3.23 0 01.86-.108c.755 0 1.364.203 1.83.61.464.392.695.901.695 1.526 0 .654-.231 1.199-.696 1.635-.21.19-.45.338-.72.442a2.607 2.607 0 01-.394.118 3.39 3.39 0 01-.716.072z" fill-opacity=".6"/><path fill-rule="evenodd" clip-rule="evenodd" d="M87.912 64.664v-9.656H83.97v1.438c-.784-1.09-2.018-1.634-3.703-1.634-1.045 0-2.01.24-2.896.72a5.29 5.29 0 00-2.113 2.004c-.523.858-.784 1.846-.784 2.965 0 1.133.261 2.136.784 3.008a5.493 5.493 0 002.113 2.005 6.136 6.136 0 002.896.698c1.54 0 2.71-.466 3.507-1.396v.393c0 .944-.254 1.656-.762 2.136-.508.48-1.307.72-2.396.72-.404 0-.811-.038-1.224-.113a7.687 7.687 0 01-.954-.237 6.712 6.712 0 01-.773-.286 5.113 5.113 0 01-.408-.204 4.353 4.353 0 01-.627-.425l-1.503 2.9c.71.509 1.575.894 2.59 1.155 1.018.262 2.107.393 3.268.393 2.237 0 3.95-.553 5.14-1.657 1.192-1.09 1.787-2.732 1.787-4.926zm-4.836-2.42c-.479.45-1.089.676-1.829.676s-1.358-.225-1.852-.675a2.243 2.243 0 01-.499-.652 2.182 2.182 0 01-.147-.38 2.43 2.43 0 01-.08-.421 2.905 2.905 0 01-.014-.291c0-.712.239-1.286.719-1.722a2.492 2.492 0 011.14-.596c.107-.025.217-.044.33-.057.13-.015.264-.023.403-.023.755 0 1.372.225 1.851.676.48.436.719 1.01.719 1.722s-.247 1.293-.74 1.744z" fill-opacity=".6"/><path d="M94.71 55.008V66.82h-4.14V55.008h4.139zM92.64 53.7c-.755 0-1.365-.21-1.829-.632a2.283 2.283 0 01-.35-.396 1.962 1.962 0 01-.219-.426 2.123 2.123 0 01-.128-.748c0-.624.232-1.148.697-1.569.464-.421 1.074-.632 1.829-.632.756 0 1.365.203 1.83.61.112.095.211.197.297.306.079.1.146.206.2.317.133.268.2.569.2.903 0 .654-.232 1.199-.697 1.635-.465.421-1.074.632-1.83.632zm12.29 12.943a3.48 3.48 0 00.614-.301l-1.024-2.899c-.362.247-.783.37-1.263.37-.377 0-.682-.116-.914-.348-.115-.13-.2-.284-.254-.462a1.85 1.85 0 01-.073-.54v-3.924h2.7v-3.095h-2.7V52.37h-4.139v3.074h-1.72v3.095h1.72v3.967c0 1.496.414 2.623 1.242 3.378a3.792 3.792 0 00.459.356c.243.16.51.297.801.408.127.048.257.091.392.13.557.16 1.19.24 1.898.24a6.88 6.88 0 001.59-.175c.242-.055.465-.121.671-.2z" fill-opacity=".6"/><path fill-rule="evenodd" clip-rule="evenodd" d="M113.634 54.907a6.746 6.746 0 011.84.506c.447.2.842.45 1.185.75 1.031.887 1.547 2.253 1.547 4.098v6.56h-3.856v-1.525c-.595 1.148-1.756 1.722-3.484 1.722-.915 0-1.706-.16-2.375-.48-.668-.32-1.176-.748-1.524-1.286-.335-.552-.501-1.177-.501-1.874 0-1.12.427-1.983 1.285-2.594.857-.625 2.178-.937 3.964-.937h2.352c-.072-1.25-.908-1.875-2.504-1.875a5.54 5.54 0 00-1.721.284 4.44 4.44 0 00-1.482.74l-1.393-2.811c.654-.436 1.444-.77 2.374-1.003a11.328 11.328 0 012.831-.37c.52 0 1.008.031 1.462.095zm-1.615 9.495c.48 0 .9-.116 1.265-.349.214-.137.392-.312.536-.526a2.22 2.22 0 00.247-.498v-1.024h-1.785c-.782 0-1.309.167-1.584.503-.15.182-.224.414-.224.695 0 .364.137.654.413.872.276.218.654.327 1.132.327z" fill-opacity=".6"/><path d="M124.956 50.648h-4.139v16.173h4.139V50.648z" fill-opacity=".6"/></svg></svg>