<?xml version="1.0" encoding="utf-8"?><svg viewBox="0 0 800 800" xmlns="http://www.w3.org/2000/svg" xmlns:xlink="http://www.w3.org/1999/xlink"><style>:root>svg{display:none}:root>svg:target{display:block}</style><svg viewBox="0 0 81 81" id="Subtract" xmlns="http://www.w3.org/2000/svg"><path fill-rule="evenodd" clip-rule="evenodd" d="M80.59 42.23c-1.041 21.163-18.53 38-39.95 38-22.092 0-40-17.908-40-40 0-22.09 17.908-40 40-40 21.42 0 38.909 16.838 39.95 38H17.667l9.314-9.313a2 2 0 00-2.829-2.829L11.423 38.816a2 2 0 000 2.829l12.728 12.728a2 2 0 102.829-2.829l-9.314-9.313h62.925z"/></svg><svg viewBox="0 0 12 10" id="header-arrow" xmlns="http://www.w3.org/2000/svg"><path d="M10.788 1.672L4.114 8.346H.869m9.919-6.674l-6.563-.095m6.563.095l.094 6.562"/></svg><svg viewBox="0 0 80 81" id="next-arrow" xmlns="http://www.w3.org/2000/svg"><path fill-rule="evenodd" clip-rule="evenodd" d="M0 38.23c1.042-21.162 18.53-38 39.951-38 22.092 0 40 17.91 40 40 0 22.092-17.908 40-40 40-21.42 0-38.909-16.837-39.95-38h62.924l-9.314 9.314a2 2 0 002.829 2.829l12.727-12.728a2 2 0 000-2.829L56.44 26.088a2 2 0 00-2.829 2.829l9.314 9.313H0z"/></svg><svg viewBox="0 0 24 24" id="prev-arrow" xmlns="http://www.w3.org/2000/svg"><path d="M7 12h10M7 12l4-4m-4 4l4 4m10-4a9 9 0 11-18 0 9 9 0 0118 0z"/></svg></svg>